G75*
%MOIN*%
%OFA0B0*%
%FSLAX24Y24*%
%IPPOS*%
%LPD*%
%AMOC8*
5,1,8,0,0,1.08239X$1,22.5*
%
%ADD10C,0.0030*%
%ADD11C,0.0020*%
%ADD12C,0.0160*%
%ADD13C,0.0100*%
D10*
X025070Y002195D02*
X025384Y002509D01*
X025384Y002587D01*
X025305Y002665D01*
X025148Y002665D01*
X025070Y002587D01*
X025070Y002195D02*
X025384Y002195D01*
X025530Y002273D02*
X025844Y002587D01*
X025844Y002273D01*
X025766Y002195D01*
X025609Y002195D01*
X025530Y002273D01*
X025530Y002587D01*
X025609Y002665D01*
X025766Y002665D01*
X025844Y002587D01*
X025991Y002509D02*
X026148Y002665D01*
X026148Y002195D01*
X026304Y002195D02*
X025991Y002195D01*
X026451Y002430D02*
X026765Y002430D01*
X026686Y002195D02*
X026686Y002665D01*
X026451Y002430D01*
X027070Y003102D02*
X027227Y002945D01*
X027384Y003102D01*
X027384Y003415D01*
X027530Y003337D02*
X027609Y003415D01*
X027766Y003415D01*
X027844Y003337D01*
X027530Y003023D01*
X027609Y002945D01*
X027766Y002945D01*
X027844Y003023D01*
X027844Y003337D01*
X027530Y003337D02*
X027530Y003023D01*
X027991Y003023D02*
X028069Y003023D01*
X028069Y002945D01*
X027991Y002945D01*
X027991Y003023D01*
X028221Y002945D02*
X028535Y002945D01*
X028378Y002945D02*
X028378Y003415D01*
X028221Y003259D01*
X028298Y003695D02*
X028298Y004115D01*
X028103Y004115D02*
X027893Y004115D01*
X027998Y004220D02*
X027998Y003800D01*
X028103Y003695D01*
X028298Y003905D02*
X028508Y004115D01*
X028614Y004115D01*
X028805Y004010D02*
X028805Y003800D01*
X028910Y003695D01*
X029120Y003695D01*
X029225Y003800D01*
X029225Y004010D01*
X029120Y004115D01*
X028910Y004115D01*
X028805Y004010D01*
X028251Y004360D02*
X028251Y004990D01*
X028566Y004990D01*
X028671Y004885D01*
X028671Y004675D01*
X028566Y004570D01*
X028251Y004570D01*
X028064Y004570D02*
X027748Y004570D01*
X027643Y004675D01*
X027748Y004780D01*
X028064Y004780D01*
X028064Y004885D02*
X028064Y004570D01*
X027456Y004570D02*
X027035Y004990D01*
X026848Y004885D02*
X026848Y004780D01*
X026428Y004780D01*
X026428Y004675D02*
X026428Y004885D01*
X026533Y004990D01*
X026743Y004990D01*
X026848Y004885D01*
X026533Y004570D02*
X026428Y004675D01*
X026533Y004570D02*
X026743Y004570D01*
X027035Y004570D02*
X027456Y004990D01*
X027748Y004990D02*
X027958Y004990D01*
X028064Y004885D01*
X028859Y004885D02*
X028859Y004675D01*
X028964Y004570D01*
X029174Y004570D01*
X029279Y004675D01*
X029279Y004885D01*
X029174Y004990D01*
X028964Y004990D01*
X028859Y004885D01*
X029466Y004885D02*
X029466Y004675D01*
X029571Y004570D01*
X029887Y004570D01*
X029887Y005201D01*
X029887Y004990D02*
X029571Y004990D01*
X029466Y004885D01*
X029518Y004326D02*
X029518Y003695D01*
X029623Y003695D02*
X029412Y003695D01*
X029412Y004326D02*
X029518Y004326D01*
X027706Y004010D02*
X027706Y003695D01*
X027706Y004010D02*
X027601Y004115D01*
X027285Y004115D01*
X027285Y003695D01*
X027098Y003800D02*
X027098Y004010D01*
X026993Y004115D01*
X026783Y004115D01*
X026678Y004010D01*
X026678Y003800D01*
X026783Y003695D01*
X026993Y003695D01*
X027098Y003800D01*
X027070Y003415D02*
X027070Y003102D01*
X027372Y002665D02*
X027607Y002665D01*
X027686Y002587D01*
X027686Y002509D01*
X027607Y002430D01*
X027372Y002430D01*
X027372Y002195D02*
X027372Y002665D01*
X027607Y002430D02*
X027686Y002352D01*
X027686Y002273D01*
X027607Y002195D01*
X027372Y002195D01*
X027832Y002273D02*
X027911Y002195D01*
X028068Y002195D01*
X028146Y002273D01*
X028146Y002430D01*
X028068Y002509D01*
X027911Y002509D01*
X027832Y002430D01*
X027832Y002273D01*
X028293Y002195D02*
X028293Y002665D01*
X028293Y002509D02*
X028528Y002509D01*
X028606Y002430D01*
X028606Y002273D01*
X028528Y002195D01*
X028293Y002195D01*
X029214Y002273D02*
X029292Y002195D01*
X029449Y002195D01*
X029527Y002273D01*
X029674Y002195D02*
X029831Y002195D01*
X029752Y002195D02*
X029752Y002665D01*
X029674Y002665D01*
X029527Y002587D02*
X029449Y002665D01*
X029292Y002665D01*
X029214Y002587D01*
X029214Y002273D01*
X029981Y002273D02*
X030059Y002195D01*
X030216Y002195D01*
X030294Y002273D01*
X030294Y002430D01*
X030216Y002509D01*
X030059Y002509D01*
X029981Y002430D01*
X029981Y002273D01*
X030441Y002273D02*
X030441Y002509D01*
X030441Y002273D02*
X030520Y002195D01*
X030755Y002195D01*
X030755Y002509D01*
X030902Y002430D02*
X030902Y002273D01*
X030980Y002195D01*
X031215Y002195D01*
X031215Y002117D02*
X031215Y002509D01*
X030980Y002509D01*
X030902Y002430D01*
X031362Y002430D02*
X031440Y002509D01*
X031597Y002509D01*
X031676Y002430D01*
X031676Y002195D01*
X031362Y002195D02*
X031362Y002665D01*
X031215Y002117D02*
X031137Y002038D01*
X031058Y002038D01*
X026490Y003800D02*
X026385Y003695D01*
X026175Y003695D01*
X026070Y003800D01*
X026070Y004220D01*
X026175Y004326D01*
X026385Y004326D01*
X026490Y004220D01*
X026240Y004570D02*
X026240Y005201D01*
X026240Y004885D02*
X025820Y004885D01*
X025820Y004570D02*
X025820Y005201D01*
X016258Y018695D02*
X015945Y018695D01*
X016258Y018695D02*
X016415Y018852D01*
X016258Y019009D01*
X015945Y019009D01*
X016180Y019155D02*
X016180Y019469D01*
X016023Y019312D02*
X016337Y019312D01*
X015415Y019155D02*
X014945Y019155D01*
X015415Y019469D01*
X014945Y019469D01*
X014945Y019616D02*
X014945Y019851D01*
X015023Y019929D01*
X015337Y019929D01*
X015415Y019851D01*
X015415Y019616D01*
X014945Y019616D01*
X015023Y019009D02*
X014945Y018930D01*
X014945Y018773D01*
X015023Y018695D01*
X015337Y018695D01*
X015415Y018773D01*
X015415Y018930D01*
X015337Y019009D01*
X015180Y019009D01*
X015180Y018852D01*
D11*
X016795Y020690D02*
X016995Y020690D01*
X017045Y020740D01*
X017045Y020840D01*
X016995Y020890D01*
X016795Y020890D01*
X016745Y020840D01*
X016745Y020740D01*
X016795Y020690D01*
X016745Y020985D02*
X016745Y021185D01*
X016745Y021279D02*
X016745Y021479D01*
X016895Y021379D02*
X016895Y021279D01*
X017045Y021279D02*
X016745Y021279D01*
X016895Y021085D02*
X016895Y020985D01*
X017045Y020985D02*
X016745Y020985D01*
X019745Y020985D02*
X020045Y021185D01*
X019745Y021185D01*
X019745Y020985D02*
X020045Y020985D01*
X019995Y020890D02*
X019795Y020890D01*
X019745Y020840D01*
X019745Y020740D01*
X019795Y020690D01*
X019995Y020690D01*
X020045Y020740D01*
X020045Y020840D01*
X019995Y020890D01*
X018665Y017315D02*
X018665Y017115D01*
X018565Y017215D02*
X018765Y017215D01*
X016295Y016104D02*
X016145Y015954D01*
X016195Y015904D02*
X015995Y016104D01*
X015995Y015904D02*
X016295Y015904D01*
X016245Y015810D02*
X016295Y015760D01*
X016295Y015660D01*
X016245Y015610D01*
X016045Y015810D01*
X016245Y015810D01*
X016045Y015810D02*
X015995Y015760D01*
X015995Y015660D01*
X016045Y015610D01*
X016245Y015610D01*
X016295Y015515D02*
X016295Y015315D01*
X016295Y015415D02*
X015995Y015415D01*
X016095Y015315D01*
X015295Y015315D02*
X015295Y015515D01*
X015295Y015415D02*
X014995Y015415D01*
X015095Y015315D01*
X015045Y015610D02*
X014995Y015660D01*
X014995Y015760D01*
X015045Y015810D01*
X015245Y015610D01*
X015295Y015660D01*
X015295Y015760D01*
X015245Y015810D01*
X015045Y015810D01*
X014995Y015904D02*
X015295Y015904D01*
X015195Y015904D02*
X014995Y016104D01*
X015145Y015954D02*
X015295Y016104D01*
X015245Y015610D02*
X015045Y015610D01*
X015915Y014240D02*
X015915Y013940D01*
X015815Y013940D02*
X016015Y013940D01*
X016110Y013990D02*
X016310Y014190D01*
X016310Y013990D01*
X016260Y013940D01*
X016160Y013940D01*
X016110Y013990D01*
X016110Y014190D01*
X016160Y014240D01*
X016260Y014240D01*
X016310Y014190D01*
X016404Y014240D02*
X016404Y013940D01*
X016404Y014040D02*
X016604Y014240D01*
X016454Y014090D02*
X016604Y013940D01*
X015915Y014240D02*
X015815Y014140D01*
X004670Y016565D02*
X004670Y016765D01*
X004670Y016665D02*
X004370Y016665D01*
X004470Y016565D01*
X004420Y016860D02*
X004370Y016910D01*
X004370Y017010D01*
X004420Y017060D01*
X004620Y016860D01*
X004670Y016910D01*
X004670Y017010D01*
X004620Y017060D01*
X004420Y017060D01*
X004420Y017154D02*
X004370Y017204D01*
X004370Y017304D01*
X004420Y017354D01*
X004620Y017154D01*
X004670Y017204D01*
X004670Y017304D01*
X004620Y017354D01*
X004420Y017354D01*
X004370Y017449D02*
X004670Y017449D01*
X004570Y017449D02*
X004570Y017599D01*
X004520Y017649D01*
X004420Y017649D01*
X004370Y017599D01*
X004370Y017449D01*
X004570Y017549D02*
X004670Y017649D01*
X004620Y017154D02*
X004420Y017154D01*
X004420Y016860D02*
X004620Y016860D01*
X001365Y016936D02*
X001315Y016886D01*
X001365Y016936D02*
X001365Y017037D01*
X001315Y017087D01*
X001265Y017087D01*
X001215Y017037D01*
X001215Y016986D01*
X001215Y017037D02*
X001165Y017087D01*
X001115Y017087D01*
X001065Y017037D01*
X001065Y016936D01*
X001115Y016886D01*
X001065Y016792D02*
X001265Y016792D01*
X001365Y016692D01*
X001265Y016592D01*
X001065Y016592D01*
X001115Y016497D02*
X001065Y016447D01*
X001065Y016347D01*
X001115Y016297D01*
X001215Y016397D02*
X001215Y016447D01*
X001265Y016497D01*
X001315Y016497D01*
X001365Y016447D01*
X001365Y016347D01*
X001315Y016297D01*
X001215Y016447D02*
X001165Y016497D01*
X001115Y016497D01*
X001115Y017476D02*
X001065Y017526D01*
X001065Y017626D01*
X001115Y017676D01*
X001315Y017676D01*
X001365Y017626D01*
X001365Y017526D01*
X001315Y017476D01*
X001115Y017476D01*
X001065Y017770D02*
X001365Y017770D01*
X001265Y017770D02*
X001065Y017971D01*
X001215Y017820D02*
X001365Y017971D01*
X003615Y011615D02*
X003565Y011565D01*
X003565Y011515D01*
X003615Y011465D01*
X003715Y011465D01*
X003765Y011415D01*
X003765Y011365D01*
X003715Y011315D01*
X003615Y011315D01*
X003565Y011365D01*
X003615Y011615D02*
X003715Y011615D01*
X003765Y011565D01*
X003860Y011615D02*
X004010Y011615D01*
X004060Y011565D01*
X004060Y011365D01*
X004010Y011315D01*
X003860Y011315D01*
X003860Y011615D01*
X004154Y011515D02*
X004154Y011315D01*
X004154Y011465D02*
X004354Y011465D01*
X004354Y011515D02*
X004354Y011315D01*
X004354Y011515D02*
X004254Y011615D01*
X004154Y011515D01*
X004154Y010615D02*
X004154Y010315D01*
X004354Y010315D01*
X004060Y010365D02*
X004010Y010315D01*
X003910Y010315D01*
X003860Y010365D01*
X003860Y010565D01*
X003910Y010615D01*
X004010Y010615D01*
X004060Y010565D01*
X003765Y010565D02*
X003715Y010615D01*
X003615Y010615D01*
X003565Y010565D01*
X003565Y010515D01*
X003615Y010465D01*
X003715Y010465D01*
X003765Y010415D01*
X003765Y010365D01*
X003715Y010315D01*
X003615Y010315D01*
X003565Y010365D01*
X003615Y009615D02*
X003565Y009565D01*
X003565Y009365D01*
X003615Y009315D01*
X003715Y009315D01*
X003765Y009365D01*
X003765Y009465D01*
X003665Y009465D01*
X003765Y009565D02*
X003715Y009615D01*
X003615Y009615D01*
X003860Y009615D02*
X003860Y009315D01*
X004060Y009315D02*
X003860Y009615D01*
X004060Y009615D02*
X004060Y009315D01*
X004154Y009315D02*
X004304Y009315D01*
X004354Y009365D01*
X004354Y009565D01*
X004304Y009615D01*
X004154Y009615D01*
X004154Y009315D01*
X004204Y008615D02*
X004154Y008565D01*
X004154Y008365D01*
X004204Y008315D01*
X004304Y008315D01*
X004354Y008365D01*
X004354Y008565D02*
X004304Y008615D01*
X004204Y008615D01*
X004060Y008565D02*
X004010Y008615D01*
X003910Y008615D01*
X003860Y008565D01*
X003860Y008365D01*
X003910Y008315D01*
X004010Y008315D01*
X004060Y008365D01*
X003765Y008415D02*
X003765Y008615D01*
X003765Y008415D02*
X003665Y008315D01*
X003565Y008415D01*
X003565Y008615D01*
X004420Y007274D02*
X004370Y007224D01*
X004370Y007074D01*
X004670Y007074D01*
X004570Y007074D02*
X004570Y007224D01*
X004520Y007274D01*
X004420Y007274D01*
X004570Y007174D02*
X004670Y007274D01*
X004620Y006979D02*
X004670Y006929D01*
X004670Y006829D01*
X004620Y006779D01*
X004420Y006979D01*
X004620Y006979D01*
X004620Y006779D02*
X004420Y006779D01*
X004370Y006829D01*
X004370Y006929D01*
X004420Y006979D01*
X004420Y006685D02*
X004370Y006635D01*
X004370Y006535D01*
X004420Y006485D01*
X004620Y006485D01*
X004420Y006685D01*
X004620Y006685D01*
X004670Y006635D01*
X004670Y006535D01*
X004620Y006485D01*
X004620Y006390D02*
X004670Y006340D01*
X004670Y006240D01*
X004620Y006190D01*
X004520Y006290D02*
X004520Y006340D01*
X004570Y006390D01*
X004620Y006390D01*
X004520Y006340D02*
X004470Y006390D01*
X004420Y006390D01*
X004370Y006340D01*
X004370Y006240D01*
X004420Y006190D01*
X005245Y005460D02*
X005545Y005460D01*
X005545Y005360D02*
X005545Y005560D01*
X005345Y005360D02*
X005245Y005460D01*
X005295Y005265D02*
X005245Y005215D01*
X005245Y005115D01*
X005295Y005065D01*
X005345Y005065D01*
X005395Y005115D01*
X005395Y005215D01*
X005445Y005265D01*
X005495Y005265D01*
X005545Y005215D01*
X005545Y005115D01*
X005495Y005065D01*
X006245Y005115D02*
X006295Y005065D01*
X006345Y005065D01*
X006395Y005115D01*
X006395Y005215D01*
X006445Y005265D01*
X006495Y005265D01*
X006545Y005215D01*
X006545Y005115D01*
X006495Y005065D01*
X006245Y005115D02*
X006245Y005215D01*
X006295Y005265D01*
X006295Y005360D02*
X006245Y005410D01*
X006245Y005510D01*
X006295Y005560D01*
X006345Y005560D01*
X006545Y005360D01*
X006545Y005560D01*
X007245Y005510D02*
X007295Y005560D01*
X007345Y005560D01*
X007395Y005510D01*
X007445Y005560D01*
X007495Y005560D01*
X007545Y005510D01*
X007545Y005410D01*
X007495Y005360D01*
X007495Y005265D02*
X007545Y005215D01*
X007545Y005115D01*
X007495Y005065D01*
X007395Y005115D02*
X007345Y005065D01*
X007295Y005065D01*
X007245Y005115D01*
X007245Y005215D01*
X007295Y005265D01*
X007295Y005360D02*
X007245Y005410D01*
X007245Y005510D01*
X007395Y005510D02*
X007395Y005460D01*
X007445Y005265D02*
X007495Y005265D01*
X007445Y005265D02*
X007395Y005215D01*
X007395Y005115D01*
X008245Y005115D02*
X008295Y005065D01*
X008345Y005065D01*
X008395Y005115D01*
X008395Y005215D01*
X008445Y005265D01*
X008495Y005265D01*
X008545Y005215D01*
X008545Y005115D01*
X008495Y005065D01*
X008245Y005115D02*
X008245Y005215D01*
X008295Y005265D01*
X008395Y005360D02*
X008395Y005560D01*
X008545Y005510D02*
X008245Y005510D01*
X008395Y005360D01*
X009245Y005360D02*
X009395Y005360D01*
X009345Y005460D01*
X009345Y005510D01*
X009395Y005560D01*
X009495Y005560D01*
X009545Y005510D01*
X009545Y005410D01*
X009495Y005360D01*
X009495Y005265D02*
X009445Y005265D01*
X009395Y005215D01*
X009395Y005115D01*
X009345Y005065D01*
X009295Y005065D01*
X009245Y005115D01*
X009245Y005215D01*
X009295Y005265D01*
X009245Y005360D02*
X009245Y005560D01*
X009495Y005265D02*
X009545Y005215D01*
X009545Y005115D01*
X009495Y005065D01*
X010245Y005115D02*
X010295Y005065D01*
X010345Y005065D01*
X010395Y005115D01*
X010395Y005215D01*
X010445Y005265D01*
X010495Y005265D01*
X010545Y005215D01*
X010545Y005115D01*
X010495Y005065D01*
X010245Y005115D02*
X010245Y005215D01*
X010295Y005265D01*
X010395Y005360D02*
X010395Y005510D01*
X010445Y005560D01*
X010495Y005560D01*
X010545Y005510D01*
X010545Y005410D01*
X010495Y005360D01*
X010395Y005360D01*
X010295Y005460D01*
X010245Y005560D01*
X012245Y005560D02*
X012295Y005560D01*
X012495Y005360D01*
X012545Y005360D01*
X012495Y005265D02*
X012545Y005215D01*
X012545Y005115D01*
X012495Y005065D01*
X012395Y005115D02*
X012395Y005215D01*
X012445Y005265D01*
X012495Y005265D01*
X012395Y005115D02*
X012345Y005065D01*
X012295Y005065D01*
X012245Y005115D01*
X012245Y005215D01*
X012295Y005265D01*
X012245Y005360D02*
X012245Y005560D01*
X013245Y005510D02*
X013295Y005560D01*
X013345Y005560D01*
X013395Y005510D01*
X013395Y005410D01*
X013345Y005360D01*
X013295Y005360D01*
X013245Y005410D01*
X013245Y005510D01*
X013395Y005510D02*
X013445Y005560D01*
X013495Y005560D01*
X013545Y005510D01*
X013545Y005410D01*
X013495Y005360D01*
X013445Y005360D01*
X013395Y005410D01*
X013445Y005265D02*
X013495Y005265D01*
X013545Y005215D01*
X013545Y005115D01*
X013495Y005065D01*
X013395Y005115D02*
X013345Y005065D01*
X013295Y005065D01*
X013245Y005115D01*
X013245Y005215D01*
X013295Y005265D01*
X013395Y005215D02*
X013445Y005265D01*
X013395Y005215D02*
X013395Y005115D01*
X014245Y005115D02*
X014295Y005065D01*
X014345Y005065D01*
X014395Y005115D01*
X014395Y005215D01*
X014445Y005265D01*
X014495Y005265D01*
X014545Y005215D01*
X014545Y005115D01*
X014495Y005065D01*
X014245Y005115D02*
X014245Y005215D01*
X014295Y005265D01*
X014295Y005360D02*
X014345Y005360D01*
X014395Y005410D01*
X014395Y005560D01*
X014495Y005560D02*
X014295Y005560D01*
X014245Y005510D01*
X014245Y005410D01*
X014295Y005360D01*
X014495Y005360D02*
X014545Y005410D01*
X014545Y005510D01*
X014495Y005560D01*
X015245Y005460D02*
X015545Y005460D01*
X015545Y005360D02*
X015545Y005560D01*
X015495Y005654D02*
X015295Y005654D01*
X015245Y005704D01*
X015245Y005804D01*
X015295Y005854D01*
X015495Y005654D01*
X015545Y005704D01*
X015545Y005804D01*
X015495Y005854D01*
X015295Y005854D01*
X015245Y005460D02*
X015345Y005360D01*
X015295Y005265D02*
X015245Y005215D01*
X015245Y005115D01*
X015295Y005065D01*
X015345Y005065D01*
X015395Y005115D01*
X015395Y005215D01*
X015445Y005265D01*
X015495Y005265D01*
X015545Y005215D01*
X015545Y005115D01*
X015495Y005065D01*
X016245Y005115D02*
X016295Y005065D01*
X016345Y005065D01*
X016395Y005115D01*
X016395Y005215D01*
X016445Y005265D01*
X016495Y005265D01*
X016545Y005215D01*
X016545Y005115D01*
X016495Y005065D01*
X016245Y005115D02*
X016245Y005215D01*
X016295Y005265D01*
X016345Y005360D02*
X016245Y005460D01*
X016545Y005460D01*
X016545Y005360D02*
X016545Y005560D01*
X016545Y005654D02*
X016545Y005854D01*
X016545Y005754D02*
X016245Y005754D01*
X016345Y005654D01*
X017245Y005704D02*
X017295Y005654D01*
X017245Y005704D02*
X017245Y005804D01*
X017295Y005854D01*
X017345Y005854D01*
X017545Y005654D01*
X017545Y005854D01*
X017545Y005560D02*
X017545Y005360D01*
X017545Y005460D02*
X017245Y005460D01*
X017345Y005360D01*
X017295Y005265D02*
X017245Y005215D01*
X017245Y005115D01*
X017295Y005065D01*
X017345Y005065D01*
X017395Y005115D01*
X017395Y005215D01*
X017445Y005265D01*
X017495Y005265D01*
X017545Y005215D01*
X017545Y005115D01*
X017495Y005065D01*
X019245Y005115D02*
X019295Y005065D01*
X019345Y005065D01*
X019395Y005115D01*
X019395Y005215D01*
X019445Y005265D01*
X019495Y005265D01*
X019545Y005215D01*
X019545Y005115D01*
X019495Y005065D01*
X019245Y005115D02*
X019245Y005215D01*
X019295Y005265D01*
X019345Y005360D02*
X019245Y005460D01*
X019545Y005460D01*
X019545Y005360D02*
X019545Y005560D01*
X019495Y005654D02*
X019545Y005704D01*
X019545Y005804D01*
X019495Y005854D01*
X019445Y005854D01*
X019395Y005804D01*
X019395Y005754D01*
X019395Y005804D02*
X019345Y005854D01*
X019295Y005854D01*
X019245Y005804D01*
X019245Y005704D01*
X019295Y005654D01*
X020245Y005804D02*
X020395Y005654D01*
X020395Y005854D01*
X020545Y005804D02*
X020245Y005804D01*
X020245Y005460D02*
X020545Y005460D01*
X020545Y005360D02*
X020545Y005560D01*
X020345Y005360D02*
X020245Y005460D01*
X020295Y005265D02*
X020245Y005215D01*
X020245Y005115D01*
X020295Y005065D01*
X020345Y005065D01*
X020395Y005115D01*
X020395Y005215D01*
X020445Y005265D01*
X020495Y005265D01*
X020545Y005215D01*
X020545Y005115D01*
X020495Y005065D01*
X021245Y005115D02*
X021295Y005065D01*
X021345Y005065D01*
X021395Y005115D01*
X021395Y005215D01*
X021445Y005265D01*
X021495Y005265D01*
X021545Y005215D01*
X021545Y005115D01*
X021495Y005065D01*
X021245Y005115D02*
X021245Y005215D01*
X021295Y005265D01*
X021345Y005360D02*
X021245Y005460D01*
X021545Y005460D01*
X021545Y005360D02*
X021545Y005560D01*
X021495Y005654D02*
X021545Y005704D01*
X021545Y005804D01*
X021495Y005854D01*
X021395Y005854D01*
X021345Y005804D01*
X021345Y005754D01*
X021395Y005654D01*
X021245Y005654D01*
X021245Y005854D01*
X022245Y005854D02*
X022295Y005754D01*
X022395Y005654D01*
X022395Y005804D01*
X022445Y005854D01*
X022495Y005854D01*
X022545Y005804D01*
X022545Y005704D01*
X022495Y005654D01*
X022395Y005654D01*
X022545Y005560D02*
X022545Y005360D01*
X022545Y005460D02*
X022245Y005460D01*
X022345Y005360D01*
X022295Y005265D02*
X022245Y005215D01*
X022245Y005115D01*
X022295Y005065D01*
X022345Y005065D01*
X022395Y005115D01*
X022395Y005215D01*
X022445Y005265D01*
X022495Y005265D01*
X022545Y005215D01*
X022545Y005115D01*
X022495Y005065D01*
X023245Y005115D02*
X023295Y005065D01*
X023345Y005065D01*
X023395Y005115D01*
X023395Y005215D01*
X023445Y005265D01*
X023495Y005265D01*
X023545Y005215D01*
X023545Y005115D01*
X023495Y005065D01*
X023245Y005115D02*
X023245Y005215D01*
X023295Y005265D01*
X023345Y005360D02*
X023245Y005460D01*
X023545Y005460D01*
X023545Y005360D02*
X023545Y005560D01*
X023545Y005654D02*
X023495Y005654D01*
X023295Y005854D01*
X023245Y005854D01*
X023245Y005654D01*
X024245Y005704D02*
X024245Y005804D01*
X024295Y005854D01*
X024345Y005854D01*
X024395Y005804D01*
X024395Y005704D01*
X024345Y005654D01*
X024295Y005654D01*
X024245Y005704D01*
X024395Y005704D02*
X024445Y005654D01*
X024495Y005654D01*
X024545Y005704D01*
X024545Y005804D01*
X024495Y005854D01*
X024445Y005854D01*
X024395Y005804D01*
X024545Y005560D02*
X024545Y005360D01*
X024545Y005460D02*
X024245Y005460D01*
X024345Y005360D01*
X024295Y005265D02*
X024245Y005215D01*
X024245Y005115D01*
X024295Y005065D01*
X024345Y005065D01*
X024395Y005115D01*
X024395Y005215D01*
X024445Y005265D01*
X024495Y005265D01*
X024545Y005215D01*
X024545Y005115D01*
X024495Y005065D01*
X028565Y006340D02*
X028765Y006340D01*
X028665Y006440D02*
X028665Y006240D01*
X029565Y006865D02*
X029615Y006815D01*
X029715Y006815D01*
X029765Y006865D01*
X029765Y006915D01*
X029715Y006965D01*
X029615Y006965D01*
X029565Y007015D01*
X029565Y007065D01*
X029615Y007115D01*
X029715Y007115D01*
X029765Y007065D01*
X029860Y007065D02*
X029910Y007115D01*
X030010Y007115D01*
X030060Y007065D01*
X030060Y007015D01*
X029860Y006815D01*
X030060Y006815D01*
X030154Y006965D02*
X030354Y006965D01*
X030304Y006815D02*
X030304Y007115D01*
X030154Y006965D01*
X030204Y007815D02*
X030154Y007865D01*
X030204Y007815D02*
X030304Y007815D01*
X030354Y007865D01*
X030354Y007915D01*
X030304Y007965D01*
X030254Y007965D01*
X030304Y007965D02*
X030354Y008015D01*
X030354Y008065D01*
X030304Y008115D01*
X030204Y008115D01*
X030154Y008065D01*
X030060Y008065D02*
X030010Y008115D01*
X029910Y008115D01*
X029860Y008065D01*
X029765Y008065D02*
X029715Y008115D01*
X029615Y008115D01*
X029565Y008065D01*
X029565Y008015D01*
X029615Y007965D01*
X029715Y007965D01*
X029765Y007915D01*
X029765Y007865D01*
X029715Y007815D01*
X029615Y007815D01*
X029565Y007865D01*
X029860Y007815D02*
X030060Y008015D01*
X030060Y008065D01*
X030060Y007815D02*
X029860Y007815D01*
X029860Y008690D02*
X030060Y008890D01*
X030060Y008940D01*
X030010Y008990D01*
X029910Y008990D01*
X029860Y008940D01*
X029765Y008940D02*
X029715Y008990D01*
X029615Y008990D01*
X029565Y008940D01*
X029565Y008890D01*
X029615Y008840D01*
X029715Y008840D01*
X029765Y008790D01*
X029765Y008740D01*
X029715Y008690D01*
X029615Y008690D01*
X029565Y008740D01*
X029860Y008690D02*
X030060Y008690D01*
X030154Y008690D02*
X030354Y008890D01*
X030354Y008940D01*
X030304Y008990D01*
X030204Y008990D01*
X030154Y008940D01*
X030154Y008690D02*
X030354Y008690D01*
X030354Y009690D02*
X030154Y009690D01*
X030060Y009690D02*
X029860Y009690D01*
X030060Y009890D01*
X030060Y009940D01*
X030010Y009990D01*
X029910Y009990D01*
X029860Y009940D01*
X029765Y009940D02*
X029715Y009990D01*
X029615Y009990D01*
X029565Y009940D01*
X029565Y009890D01*
X029615Y009840D01*
X029715Y009840D01*
X029765Y009790D01*
X029765Y009740D01*
X029715Y009690D01*
X029615Y009690D01*
X029565Y009740D01*
X030154Y009890D02*
X030254Y009990D01*
X030254Y009690D01*
X030204Y010690D02*
X030154Y010740D01*
X030354Y010940D01*
X030354Y010740D01*
X030304Y010690D01*
X030204Y010690D01*
X030154Y010740D02*
X030154Y010940D01*
X030204Y010990D01*
X030304Y010990D01*
X030354Y010940D01*
X030060Y010940D02*
X030060Y010890D01*
X029860Y010690D01*
X030060Y010690D01*
X030060Y010940D02*
X030010Y010990D01*
X029910Y010990D01*
X029860Y010940D01*
X029765Y010940D02*
X029715Y010990D01*
X029615Y010990D01*
X029565Y010940D01*
X029565Y010890D01*
X029615Y010840D01*
X029715Y010840D01*
X029765Y010790D01*
X029765Y010740D01*
X029715Y010690D01*
X029615Y010690D01*
X029565Y010740D01*
X029615Y011690D02*
X029565Y011740D01*
X029615Y011690D02*
X029715Y011690D01*
X029765Y011740D01*
X029765Y011790D01*
X029715Y011840D01*
X029615Y011840D01*
X029565Y011890D01*
X029565Y011940D01*
X029615Y011990D01*
X029715Y011990D01*
X029765Y011940D01*
X029860Y011890D02*
X029960Y011990D01*
X029960Y011690D01*
X029860Y011690D02*
X030060Y011690D01*
X030154Y011740D02*
X030204Y011690D01*
X030304Y011690D01*
X030354Y011740D01*
X030354Y011940D01*
X030304Y011990D01*
X030204Y011990D01*
X030154Y011940D01*
X030154Y011890D01*
X030204Y011840D01*
X030354Y011840D01*
X030845Y015440D02*
X030745Y015540D01*
X031045Y015540D01*
X031045Y015440D02*
X031045Y015640D01*
X030995Y015735D02*
X030795Y015935D01*
X030995Y015935D01*
X031045Y015885D01*
X031045Y015785D01*
X030995Y015735D01*
X030795Y015735D01*
X030745Y015785D01*
X030745Y015885D01*
X030795Y015935D01*
X030745Y016029D02*
X031045Y016029D01*
X030945Y016029D02*
X030745Y016229D01*
X030895Y016079D02*
X031045Y016229D01*
X001420Y007444D02*
X001270Y007294D01*
X001320Y007244D02*
X001120Y007444D01*
X001120Y007244D02*
X001420Y007244D01*
X001370Y007149D02*
X001170Y007149D01*
X001120Y007099D01*
X001120Y006999D01*
X001170Y006949D01*
X001370Y006949D01*
X001420Y006999D01*
X001420Y007099D01*
X001370Y007149D01*
X001320Y006560D02*
X001120Y006560D01*
X001320Y006560D02*
X001420Y006460D01*
X001320Y006360D01*
X001120Y006360D01*
X001120Y006265D02*
X001120Y006065D01*
X001270Y006065D01*
X001220Y006165D01*
X001220Y006215D01*
X001270Y006265D01*
X001370Y006265D01*
X001420Y006215D01*
X001420Y006115D01*
X001370Y006065D01*
D12*
X004910Y021055D02*
X004912Y021094D01*
X004918Y021133D01*
X004928Y021171D01*
X004941Y021208D01*
X004958Y021244D01*
X004979Y021278D01*
X005002Y021309D01*
X005029Y021338D01*
X005059Y021364D01*
X005091Y021387D01*
X005125Y021406D01*
X005161Y021423D01*
X005198Y021435D01*
X005236Y021444D01*
X005275Y021449D01*
X005315Y021450D01*
X005354Y021447D01*
X005393Y021440D01*
X005431Y021429D01*
X005467Y021415D01*
X005503Y021397D01*
X005536Y021376D01*
X005566Y021351D01*
X005595Y021324D01*
X005620Y021294D01*
X005642Y021261D01*
X005661Y021226D01*
X005676Y021190D01*
X005688Y021152D01*
X005696Y021114D01*
X005700Y021075D01*
X005700Y021035D01*
X005696Y020996D01*
X005688Y020958D01*
X005676Y020920D01*
X005661Y020884D01*
X005642Y020849D01*
X005620Y020816D01*
X005595Y020786D01*
X005566Y020759D01*
X005536Y020734D01*
X005502Y020713D01*
X005467Y020695D01*
X005431Y020681D01*
X005393Y020670D01*
X005354Y020663D01*
X005315Y020660D01*
X005275Y020661D01*
X005236Y020666D01*
X005198Y020675D01*
X005161Y020687D01*
X005125Y020704D01*
X005091Y020723D01*
X005059Y020746D01*
X005029Y020772D01*
X005002Y020801D01*
X004979Y020832D01*
X004958Y020866D01*
X004941Y020902D01*
X004928Y020939D01*
X004918Y020977D01*
X004912Y021016D01*
X004910Y021055D01*
X023871Y012430D02*
X023873Y012477D01*
X023879Y012523D01*
X023889Y012569D01*
X023902Y012614D01*
X023919Y012657D01*
X023940Y012699D01*
X023964Y012739D01*
X023992Y012777D01*
X024023Y012813D01*
X024056Y012845D01*
X024092Y012875D01*
X024130Y012902D01*
X024171Y012925D01*
X024213Y012945D01*
X024257Y012962D01*
X024302Y012974D01*
X024348Y012983D01*
X024395Y012988D01*
X024442Y012989D01*
X024488Y012986D01*
X024535Y012979D01*
X024580Y012968D01*
X024625Y012954D01*
X024668Y012936D01*
X024709Y012914D01*
X024749Y012889D01*
X024786Y012861D01*
X024821Y012829D01*
X024853Y012795D01*
X024882Y012759D01*
X024908Y012720D01*
X024931Y012679D01*
X024950Y012636D01*
X024965Y012592D01*
X024977Y012546D01*
X024985Y012500D01*
X024989Y012453D01*
X024989Y012407D01*
X024985Y012360D01*
X024977Y012314D01*
X024965Y012268D01*
X024950Y012224D01*
X024931Y012181D01*
X024908Y012140D01*
X024882Y012101D01*
X024853Y012065D01*
X024821Y012031D01*
X024786Y011999D01*
X024749Y011971D01*
X024710Y011946D01*
X024668Y011924D01*
X024625Y011906D01*
X024580Y011892D01*
X024535Y011881D01*
X024488Y011874D01*
X024442Y011871D01*
X024395Y011872D01*
X024348Y011877D01*
X024302Y011886D01*
X024257Y011898D01*
X024213Y011915D01*
X024171Y011935D01*
X024130Y011958D01*
X024092Y011985D01*
X024056Y012015D01*
X024023Y012047D01*
X023992Y012083D01*
X023964Y012121D01*
X023940Y012161D01*
X023919Y012203D01*
X023902Y012246D01*
X023889Y012291D01*
X023879Y012337D01*
X023873Y012383D01*
X023871Y012430D01*
D13*
X004680Y002430D02*
X004430Y002430D01*
X004555Y003305D02*
X004555Y003555D01*
X004430Y003430D02*
X004680Y003430D01*
X004680Y004305D02*
X004805Y004305D01*
X004680Y004305D02*
X004680Y004555D01*
X004430Y004555D01*
X004430Y004305D01*
X004305Y004305D01*
X003555Y006180D02*
X003557Y006219D01*
X003563Y006257D01*
X003573Y006294D01*
X003586Y006330D01*
X003604Y006365D01*
X003624Y006397D01*
X003648Y006428D01*
X003675Y006455D01*
X003705Y006480D01*
X003737Y006501D01*
X003771Y006520D01*
X003807Y006534D01*
X003844Y006545D01*
X003882Y006552D01*
X003920Y006555D01*
X003959Y006554D01*
X003997Y006549D01*
X004035Y006540D01*
X004071Y006527D01*
X004106Y006511D01*
X004139Y006491D01*
X004170Y006468D01*
X004199Y006442D01*
X004224Y006413D01*
X004246Y006381D01*
X004265Y006348D01*
X004281Y006312D01*
X004293Y006276D01*
X004301Y006238D01*
X004305Y006199D01*
X004305Y006161D01*
X004301Y006122D01*
X004293Y006084D01*
X004281Y006048D01*
X004265Y006012D01*
X004246Y005979D01*
X004224Y005947D01*
X004199Y005918D01*
X004170Y005892D01*
X004139Y005869D01*
X004106Y005849D01*
X004071Y005833D01*
X004035Y005820D01*
X003997Y005811D01*
X003959Y005806D01*
X003920Y005805D01*
X003882Y005808D01*
X003844Y005815D01*
X003807Y005826D01*
X003771Y005840D01*
X003737Y005859D01*
X003705Y005880D01*
X003675Y005905D01*
X003648Y005932D01*
X003624Y005963D01*
X003604Y005995D01*
X003586Y006030D01*
X003573Y006066D01*
X003563Y006103D01*
X003557Y006141D01*
X003555Y006180D01*
X011305Y004305D02*
X011430Y004305D01*
X011430Y004555D01*
X011680Y004555D01*
X011680Y004305D01*
X011805Y004305D01*
X011555Y003555D02*
X011555Y003305D01*
X011430Y003430D02*
X011680Y003430D01*
X011680Y002430D02*
X011430Y002430D01*
X018430Y002430D02*
X018680Y002430D01*
X018555Y003305D02*
X018555Y003555D01*
X018430Y003430D02*
X018680Y003430D01*
X018555Y004305D02*
X018555Y004555D01*
X018805Y004555D01*
X018805Y004305D01*
X018930Y004305D01*
X018555Y004305D02*
X018430Y004305D01*
X030680Y005930D02*
X030805Y005930D01*
X030805Y006180D01*
X031055Y006180D01*
X031055Y005930D01*
X031180Y005930D01*
X031805Y006055D02*
X032055Y006055D01*
X031930Y006180D02*
X031930Y005930D01*
X032805Y006055D02*
X033055Y006055D01*
X031305Y014680D02*
X030555Y014680D01*
X030555Y017180D01*
X031305Y017180D01*
X031305Y014680D01*
X016430Y015055D02*
X016430Y016305D01*
X015930Y016305D01*
X015930Y015055D01*
X016430Y015055D01*
X015430Y015055D02*
X015430Y016305D01*
X014930Y016305D01*
X014930Y015055D01*
X015430Y015055D01*
X015076Y013680D02*
X015078Y013717D01*
X015084Y013754D01*
X015093Y013789D01*
X015107Y013824D01*
X015123Y013857D01*
X015144Y013888D01*
X015167Y013917D01*
X015193Y013943D01*
X015222Y013966D01*
X015253Y013987D01*
X015286Y014003D01*
X015321Y014017D01*
X015356Y014026D01*
X015393Y014032D01*
X015430Y014034D01*
X015467Y014032D01*
X015504Y014026D01*
X015539Y014017D01*
X015574Y014003D01*
X015607Y013987D01*
X015638Y013966D01*
X015667Y013943D01*
X015693Y013917D01*
X015716Y013888D01*
X015737Y013857D01*
X015753Y013824D01*
X015767Y013789D01*
X015776Y013754D01*
X015782Y013717D01*
X015784Y013680D01*
X015782Y013643D01*
X015776Y013606D01*
X015767Y013571D01*
X015753Y013536D01*
X015737Y013503D01*
X015716Y013472D01*
X015693Y013443D01*
X015667Y013417D01*
X015638Y013394D01*
X015607Y013373D01*
X015574Y013357D01*
X015539Y013343D01*
X015504Y013334D01*
X015467Y013328D01*
X015430Y013326D01*
X015393Y013328D01*
X015356Y013334D01*
X015321Y013343D01*
X015286Y013357D01*
X015253Y013373D01*
X015222Y013394D01*
X015193Y013417D01*
X015167Y013443D01*
X015144Y013472D01*
X015123Y013503D01*
X015107Y013536D01*
X015093Y013571D01*
X015084Y013606D01*
X015078Y013643D01*
X015076Y013680D01*
X003555Y017680D02*
X003557Y017719D01*
X003563Y017757D01*
X003573Y017794D01*
X003586Y017830D01*
X003604Y017865D01*
X003624Y017897D01*
X003648Y017928D01*
X003675Y017955D01*
X003705Y017980D01*
X003737Y018001D01*
X003771Y018020D01*
X003807Y018034D01*
X003844Y018045D01*
X003882Y018052D01*
X003920Y018055D01*
X003959Y018054D01*
X003997Y018049D01*
X004035Y018040D01*
X004071Y018027D01*
X004106Y018011D01*
X004139Y017991D01*
X004170Y017968D01*
X004199Y017942D01*
X004224Y017913D01*
X004246Y017881D01*
X004265Y017848D01*
X004281Y017812D01*
X004293Y017776D01*
X004301Y017738D01*
X004305Y017699D01*
X004305Y017661D01*
X004301Y017622D01*
X004293Y017584D01*
X004281Y017548D01*
X004265Y017512D01*
X004246Y017479D01*
X004224Y017447D01*
X004199Y017418D01*
X004170Y017392D01*
X004139Y017369D01*
X004106Y017349D01*
X004071Y017333D01*
X004035Y017320D01*
X003997Y017311D01*
X003959Y017306D01*
X003920Y017305D01*
X003882Y017308D01*
X003844Y017315D01*
X003807Y017326D01*
X003771Y017340D01*
X003737Y017359D01*
X003705Y017380D01*
X003675Y017405D01*
X003648Y017432D01*
X003624Y017463D01*
X003604Y017495D01*
X003586Y017530D01*
X003573Y017566D01*
X003563Y017603D01*
X003557Y017641D01*
X003555Y017680D01*
M02*
