G75*
%MOIN*%
%OFA0B0*%
%FSLAX24Y24*%
%IPPOS*%
%LPD*%
%AMOC8*
5,1,8,0,0,1.08239X$1,22.5*
%
%ADD10C,0.0000*%
%ADD11R,0.2000X0.1000*%
%ADD12R,0.2000X0.2000*%
%ADD13C,0.0520*%
%ADD14OC8,0.0520*%
%ADD15C,0.0520*%
%ADD16OC8,0.0600*%
%ADD17OC8,0.0740*%
%ADD18C,0.0560*%
%ADD19OC8,0.0630*%
%ADD20C,0.0630*%
%ADD21C,0.2300*%
%ADD22C,0.0600*%
%ADD23C,0.0160*%
%ADD24C,0.0472*%
%ADD25C,0.0500*%
%ADD26C,0.0709*%
D10*
X002899Y001930D02*
X032426Y001930D01*
X032512Y001932D01*
X032598Y001937D01*
X032683Y001947D01*
X032768Y001960D01*
X032852Y001977D01*
X032936Y001997D01*
X033018Y002021D01*
X033099Y002049D01*
X033180Y002080D01*
X033258Y002114D01*
X033335Y002152D01*
X033411Y002194D01*
X033484Y002238D01*
X033555Y002286D01*
X033625Y002337D01*
X033692Y002391D01*
X033756Y002447D01*
X033818Y002507D01*
X033878Y002569D01*
X033934Y002633D01*
X033988Y002700D01*
X034039Y002770D01*
X034087Y002841D01*
X034131Y002914D01*
X034173Y002990D01*
X034211Y003067D01*
X034245Y003145D01*
X034276Y003226D01*
X034304Y003307D01*
X034328Y003389D01*
X034348Y003473D01*
X034365Y003557D01*
X034378Y003642D01*
X034388Y003727D01*
X034393Y003813D01*
X034395Y003899D01*
X034395Y019647D01*
X034393Y019733D01*
X034388Y019819D01*
X034378Y019904D01*
X034365Y019989D01*
X034348Y020073D01*
X034328Y020157D01*
X034304Y020239D01*
X034276Y020320D01*
X034245Y020401D01*
X034211Y020479D01*
X034173Y020556D01*
X034131Y020632D01*
X034087Y020705D01*
X034039Y020776D01*
X033988Y020846D01*
X033934Y020913D01*
X033878Y020977D01*
X033818Y021039D01*
X033756Y021099D01*
X033692Y021155D01*
X033625Y021209D01*
X033555Y021260D01*
X033484Y021308D01*
X033411Y021352D01*
X033335Y021394D01*
X033258Y021432D01*
X033180Y021466D01*
X033099Y021497D01*
X033018Y021525D01*
X032936Y021549D01*
X032852Y021569D01*
X032768Y021586D01*
X032683Y021599D01*
X032598Y021609D01*
X032512Y021614D01*
X032426Y021616D01*
X032426Y021615D02*
X002899Y021615D01*
X002899Y021616D02*
X002811Y021614D01*
X002723Y021608D01*
X002635Y021598D01*
X002547Y021584D01*
X002461Y021567D01*
X002375Y021545D01*
X002291Y021520D01*
X002207Y021490D01*
X002125Y021458D01*
X002045Y021421D01*
X001966Y021381D01*
X001889Y021337D01*
X001814Y021290D01*
X001742Y021240D01*
X001671Y021186D01*
X001604Y021130D01*
X001538Y021070D01*
X001476Y021008D01*
X001416Y020942D01*
X001360Y020875D01*
X001306Y020804D01*
X001256Y020732D01*
X001209Y020657D01*
X001165Y020580D01*
X001125Y020501D01*
X001088Y020421D01*
X001056Y020339D01*
X001026Y020255D01*
X001001Y020171D01*
X000979Y020085D01*
X000962Y019999D01*
X000948Y019911D01*
X000938Y019823D01*
X000932Y019735D01*
X000930Y019647D01*
X000930Y003899D01*
X000932Y003811D01*
X000938Y003723D01*
X000948Y003635D01*
X000962Y003547D01*
X000979Y003461D01*
X001001Y003375D01*
X001026Y003291D01*
X001056Y003207D01*
X001088Y003125D01*
X001125Y003045D01*
X001165Y002966D01*
X001209Y002889D01*
X001256Y002814D01*
X001306Y002742D01*
X001360Y002671D01*
X001416Y002604D01*
X001476Y002538D01*
X001538Y002476D01*
X001604Y002416D01*
X001671Y002360D01*
X001742Y002306D01*
X001814Y002256D01*
X001889Y002209D01*
X001966Y002165D01*
X002045Y002125D01*
X002125Y002088D01*
X002207Y002056D01*
X002291Y002026D01*
X002375Y002001D01*
X002461Y001979D01*
X002547Y001962D01*
X002635Y001948D01*
X002723Y001938D01*
X002811Y001932D01*
X002899Y001930D01*
D11*
X021249Y013930D03*
X021249Y016430D03*
X021249Y019930D03*
X029249Y019930D03*
X029249Y013930D03*
D12*
X029249Y017430D03*
D13*
X024430Y012690D02*
X024430Y012170D01*
X023430Y012170D02*
X023430Y012690D01*
X022430Y012690D02*
X022430Y012170D01*
X021430Y012170D02*
X021430Y012690D01*
X020430Y012690D02*
X020430Y012170D01*
X019430Y012170D02*
X019430Y012690D01*
X018430Y012690D02*
X018430Y012170D01*
X017430Y012170D02*
X017430Y012690D01*
X016430Y012690D02*
X016430Y012170D01*
X015430Y012170D02*
X015430Y012690D01*
X014430Y012690D02*
X014430Y012170D01*
X013430Y012170D02*
X013430Y012690D01*
X012430Y012690D02*
X012430Y012170D01*
X011430Y012170D02*
X011430Y012690D01*
X010430Y012690D02*
X010430Y012170D01*
X009430Y012170D02*
X009430Y012690D01*
X008430Y012690D02*
X008430Y012170D01*
X007430Y012170D02*
X007430Y012690D01*
X006430Y012690D02*
X006430Y012170D01*
X005430Y012170D02*
X005430Y012690D01*
X003190Y012430D02*
X002670Y012430D01*
X002670Y011430D02*
X003190Y011430D01*
X003190Y010430D02*
X002670Y010430D01*
X002670Y009430D02*
X003190Y009430D01*
X003190Y008430D02*
X002670Y008430D01*
X005430Y006690D02*
X005430Y006170D01*
X006430Y006170D02*
X006430Y006690D01*
X007430Y006690D02*
X007430Y006170D01*
X008430Y006170D02*
X008430Y006690D01*
X009430Y006690D02*
X009430Y006170D01*
X010430Y006170D02*
X010430Y006690D01*
X011430Y006690D02*
X011430Y006170D01*
X012430Y006170D02*
X012430Y006690D01*
X013430Y006690D02*
X013430Y006170D01*
X014430Y006170D02*
X014430Y006690D01*
X015430Y006690D02*
X015430Y006170D01*
X016430Y006170D02*
X016430Y006690D01*
X017430Y006690D02*
X017430Y006170D01*
X018430Y006170D02*
X018430Y006690D01*
X019430Y006690D02*
X019430Y006170D01*
X020430Y006170D02*
X020430Y006690D01*
X021430Y006690D02*
X021430Y006170D01*
X022430Y006170D02*
X022430Y006690D01*
X023430Y006690D02*
X023430Y006170D01*
X024430Y006170D02*
X024430Y006690D01*
X003190Y013430D02*
X002670Y013430D01*
X002670Y014430D02*
X003190Y014430D01*
X003190Y015430D02*
X002670Y015430D01*
D14*
X002930Y016680D03*
X003930Y016680D03*
X003930Y017680D03*
X002930Y017680D03*
X009180Y016430D03*
X010180Y016430D03*
X010180Y015430D03*
X009180Y015430D03*
X015180Y014680D03*
X016180Y014680D03*
X016430Y013680D03*
X015430Y013680D03*
X015180Y016680D03*
X016180Y016680D03*
X003930Y007180D03*
X002930Y007180D03*
X002930Y006180D03*
X003930Y006180D03*
X030930Y013930D03*
X030930Y017930D03*
D15*
X011930Y016880D03*
X011930Y014980D03*
D16*
X012430Y004430D03*
X013430Y004430D03*
X014430Y004430D03*
X015430Y004430D03*
X016430Y004430D03*
X017430Y004430D03*
X017430Y003430D03*
X016430Y003430D03*
X015430Y003430D03*
X014430Y003430D03*
X013430Y003430D03*
X012430Y003430D03*
X012430Y002430D03*
X013430Y002430D03*
X014430Y002430D03*
X015430Y002430D03*
X016430Y002430D03*
X017430Y002430D03*
X019430Y002430D03*
X020430Y002430D03*
X021430Y002430D03*
X022430Y002430D03*
X023430Y002430D03*
X024430Y002430D03*
X024430Y003430D03*
X023430Y003430D03*
X022430Y003430D03*
X021430Y003430D03*
X020430Y003430D03*
X019430Y003430D03*
X019430Y004430D03*
X020430Y004430D03*
X021430Y004430D03*
X022430Y004430D03*
X023430Y004430D03*
X024430Y004430D03*
X030930Y006930D03*
X031930Y006930D03*
X032930Y006930D03*
X032930Y007930D03*
X031930Y007930D03*
X030930Y007930D03*
X030930Y008930D03*
X031930Y008930D03*
X032930Y008930D03*
X032930Y009930D03*
X031930Y009930D03*
X030930Y009930D03*
X030930Y010930D03*
X031930Y010930D03*
X032930Y010930D03*
X032930Y011930D03*
X031930Y011930D03*
X030930Y011930D03*
X010430Y004430D03*
X009430Y004430D03*
X008430Y004430D03*
X007430Y004430D03*
X006430Y004430D03*
X005430Y004430D03*
X005430Y003430D03*
X006430Y003430D03*
X007430Y003430D03*
X008430Y003430D03*
X009430Y003430D03*
X010430Y003430D03*
X010430Y002430D03*
X009430Y002430D03*
X008430Y002430D03*
X007430Y002430D03*
X006430Y002430D03*
X005430Y002430D03*
D17*
X017930Y014180D03*
X018930Y014180D03*
X018830Y015180D03*
X017830Y015180D03*
X017930Y016180D03*
X018930Y016180D03*
D18*
X016180Y017400D02*
X016180Y017960D01*
X015180Y017960D02*
X015180Y017400D01*
X017430Y019650D02*
X017430Y020210D01*
X018430Y020210D02*
X018430Y019650D01*
X019430Y019650D02*
X019430Y020210D01*
D19*
X018430Y018680D03*
X027305Y006680D03*
D20*
X028305Y006680D03*
X018430Y017680D03*
D21*
X032426Y019647D03*
X032426Y003899D03*
X002899Y003899D03*
X002899Y019647D03*
D22*
X005349Y019479D03*
X005349Y018692D03*
X005349Y017904D03*
X005349Y017117D03*
X005349Y016330D03*
X005349Y015542D03*
X005349Y014755D03*
X005349Y013967D03*
X014011Y013967D03*
X014011Y014755D03*
X014011Y015542D03*
X014011Y016330D03*
X014011Y017117D03*
X014011Y017904D03*
X014011Y018692D03*
X014011Y019479D03*
X014011Y020267D03*
X014011Y021054D03*
X005349Y021054D03*
X005349Y020267D03*
D23*
X006593Y020267D01*
X007680Y019180D01*
X007680Y015430D01*
X008930Y014180D01*
X009930Y014180D01*
X011430Y012680D01*
X011430Y012430D01*
X011830Y012391D02*
X012030Y012391D01*
X012030Y012233D02*
X011830Y012233D01*
X011830Y012090D02*
X011769Y011943D01*
X011657Y011831D01*
X011510Y011770D01*
X011350Y011770D01*
X011203Y011831D01*
X011091Y011943D01*
X011030Y012090D01*
X011030Y012769D01*
X009839Y013960D01*
X008839Y013960D01*
X007589Y015210D01*
X007460Y015339D01*
X007460Y019089D01*
X006502Y020047D01*
X005734Y020047D01*
X005722Y020017D01*
X005599Y019894D01*
X005549Y019873D01*
X005599Y019852D01*
X005722Y019728D01*
X005755Y019650D01*
X006771Y019650D01*
X006900Y019521D01*
X007400Y019021D01*
X007400Y015271D01*
X008771Y013900D01*
X009771Y013900D01*
X010521Y013150D01*
X010632Y013039D01*
X010657Y013029D01*
X010769Y012917D01*
X010830Y012770D01*
X010830Y012090D01*
X010769Y011943D01*
X010657Y011831D01*
X010510Y011770D01*
X010350Y011770D01*
X010203Y011831D01*
X010091Y011943D01*
X010030Y012090D01*
X010030Y012770D01*
X010091Y012917D01*
X010112Y012937D01*
X009589Y013460D01*
X008589Y013460D01*
X008460Y013589D01*
X006960Y015089D01*
X006960Y018839D01*
X006589Y019210D01*
X005702Y019210D01*
X005599Y019106D01*
X005549Y019086D01*
X005599Y019065D01*
X005722Y018941D01*
X005789Y018779D01*
X005789Y018604D01*
X005722Y018443D01*
X005599Y018319D01*
X005549Y018298D01*
X005599Y018277D01*
X005722Y018154D01*
X005789Y017992D01*
X005789Y017817D01*
X005722Y017655D01*
X005599Y017531D01*
X005549Y017511D01*
X005599Y017490D01*
X005722Y017366D01*
X005789Y017205D01*
X005789Y017029D01*
X005722Y016868D01*
X005599Y016744D01*
X005549Y016723D01*
X005599Y016703D01*
X005722Y016579D01*
X005789Y016417D01*
X005789Y016242D01*
X005722Y016080D01*
X005599Y015957D01*
X005549Y015936D01*
X005599Y015915D01*
X005722Y015791D01*
X005789Y015630D01*
X005789Y015455D01*
X005722Y015293D01*
X005599Y015169D01*
X005549Y015149D01*
X005599Y015128D01*
X005722Y015004D01*
X005789Y014842D01*
X005789Y014667D01*
X005722Y014506D01*
X005599Y014382D01*
X005549Y014361D01*
X005599Y014340D01*
X005722Y014217D01*
X005789Y014055D01*
X005789Y013880D01*
X005722Y013718D01*
X005599Y013594D01*
X005437Y013527D01*
X005262Y013527D01*
X005100Y013594D01*
X004976Y013718D01*
X004909Y013880D01*
X004909Y014055D01*
X004976Y014217D01*
X005100Y014340D01*
X005150Y014361D01*
X005100Y014382D01*
X004976Y014506D01*
X004909Y014667D01*
X004909Y014842D01*
X004976Y015004D01*
X005100Y015128D01*
X005150Y015149D01*
X005100Y015169D01*
X004976Y015293D01*
X004909Y015455D01*
X004909Y015630D01*
X004976Y015791D01*
X005100Y015915D01*
X005150Y015936D01*
X005100Y015957D01*
X004976Y016080D01*
X004909Y016242D01*
X004909Y016417D01*
X004976Y016579D01*
X005100Y016703D01*
X005150Y016723D01*
X005100Y016744D01*
X004976Y016868D01*
X004909Y017029D01*
X004909Y017205D01*
X004976Y017366D01*
X005100Y017490D01*
X005150Y017511D01*
X005100Y017531D01*
X004976Y017655D01*
X004909Y017817D01*
X004909Y017992D01*
X004976Y018154D01*
X005100Y018277D01*
X005150Y018298D01*
X005100Y018319D01*
X004976Y018443D01*
X004909Y018604D01*
X004909Y018779D01*
X004976Y018941D01*
X005100Y019065D01*
X005150Y019086D01*
X005100Y019106D01*
X004976Y019230D01*
X004909Y019392D01*
X004909Y019567D01*
X004976Y019728D01*
X005100Y019852D01*
X005150Y019873D01*
X005100Y019894D01*
X004976Y020017D01*
X004909Y020179D01*
X004909Y020354D01*
X004976Y020516D01*
X005100Y020640D01*
X005150Y020660D01*
X005100Y020681D01*
X004976Y020805D01*
X004964Y020834D01*
X004900Y020834D01*
X004900Y016839D01*
X004771Y016710D01*
X004521Y016460D01*
X004276Y016460D01*
X004096Y016280D01*
X003764Y016280D01*
X003530Y016514D01*
X003530Y016846D01*
X003764Y017080D01*
X004096Y017080D01*
X004276Y016900D01*
X004339Y016900D01*
X004460Y017021D01*
X004460Y021021D01*
X004713Y021274D01*
X004964Y021274D01*
X004976Y021303D01*
X005100Y021427D01*
X005119Y021435D01*
X002899Y021435D01*
X002665Y021420D01*
X002214Y021299D01*
X001810Y021065D01*
X001480Y020735D01*
X001246Y020331D01*
X001125Y019880D01*
X001110Y019647D01*
X001110Y003899D01*
X001125Y003665D01*
X001246Y003214D01*
X001480Y002810D01*
X001810Y002480D01*
X002214Y002246D01*
X002665Y002125D01*
X002899Y002110D01*
X005128Y002110D01*
X004990Y002248D01*
X004990Y002612D01*
X005248Y002870D01*
X005612Y002870D01*
X005870Y002612D01*
X005870Y002248D01*
X005732Y002110D01*
X006128Y002110D01*
X005990Y002248D01*
X005990Y002612D01*
X006248Y002870D01*
X006612Y002870D01*
X006870Y002612D01*
X006870Y002248D01*
X006732Y002110D01*
X007128Y002110D01*
X006990Y002248D01*
X006990Y002612D01*
X007248Y002870D01*
X007612Y002870D01*
X007870Y002612D01*
X007870Y002248D01*
X007732Y002110D01*
X008128Y002110D01*
X007990Y002248D01*
X007990Y002612D01*
X008248Y002870D01*
X008612Y002870D01*
X008870Y002612D01*
X008870Y002248D01*
X008732Y002110D01*
X009128Y002110D01*
X008990Y002248D01*
X008990Y002612D01*
X009248Y002870D01*
X009612Y002870D01*
X009870Y002612D01*
X009870Y002248D01*
X009732Y002110D01*
X010128Y002110D01*
X009990Y002248D01*
X009990Y002612D01*
X010248Y002870D01*
X010612Y002870D01*
X010870Y002612D01*
X010870Y002248D01*
X010732Y002110D01*
X012128Y002110D01*
X011990Y002248D01*
X011990Y002612D01*
X012248Y002870D01*
X012612Y002870D01*
X012870Y002612D01*
X012870Y002248D01*
X012732Y002110D01*
X013128Y002110D01*
X012990Y002248D01*
X012990Y002612D01*
X013248Y002870D01*
X013612Y002870D01*
X013870Y002612D01*
X013870Y002248D01*
X013732Y002110D01*
X014128Y002110D01*
X013990Y002248D01*
X013990Y002612D01*
X014248Y002870D01*
X014612Y002870D01*
X014870Y002612D01*
X014870Y002248D01*
X014732Y002110D01*
X015128Y002110D01*
X014990Y002248D01*
X014990Y002612D01*
X015248Y002870D01*
X015612Y002870D01*
X015870Y002612D01*
X015870Y002248D01*
X015732Y002110D01*
X016128Y002110D01*
X015990Y002248D01*
X015990Y002612D01*
X016248Y002870D01*
X016612Y002870D01*
X016870Y002612D01*
X016870Y002248D01*
X016732Y002110D01*
X017128Y002110D01*
X016990Y002248D01*
X016990Y002612D01*
X017248Y002870D01*
X017612Y002870D01*
X017870Y002612D01*
X017870Y002248D01*
X017732Y002110D01*
X019128Y002110D01*
X018990Y002248D01*
X018990Y002612D01*
X019248Y002870D01*
X019612Y002870D01*
X019870Y002612D01*
X019870Y002248D01*
X019732Y002110D01*
X020128Y002110D01*
X019990Y002248D01*
X019990Y002612D01*
X020248Y002870D01*
X020612Y002870D01*
X020870Y002612D01*
X020870Y002248D01*
X020732Y002110D01*
X021128Y002110D01*
X020990Y002248D01*
X020990Y002612D01*
X021248Y002870D01*
X021612Y002870D01*
X021870Y002612D01*
X021870Y002248D01*
X021732Y002110D01*
X022128Y002110D01*
X021990Y002248D01*
X021990Y002612D01*
X022248Y002870D01*
X022612Y002870D01*
X022870Y002612D01*
X022870Y002248D01*
X022732Y002110D01*
X023128Y002110D01*
X022990Y002248D01*
X022990Y002612D01*
X023248Y002870D01*
X023612Y002870D01*
X023870Y002612D01*
X023870Y002248D01*
X023732Y002110D01*
X024128Y002110D01*
X023990Y002248D01*
X023990Y002612D01*
X024248Y002870D01*
X024612Y002870D01*
X024870Y002612D01*
X024870Y002248D01*
X024732Y002110D01*
X032426Y002110D01*
X032626Y002121D01*
X033017Y002210D01*
X033378Y002384D01*
X033691Y002634D01*
X033940Y002947D01*
X034114Y003308D01*
X034203Y003698D01*
X034215Y003899D01*
X034215Y019647D01*
X034203Y019847D01*
X034114Y020237D01*
X033940Y020598D01*
X033691Y020911D01*
X033378Y021161D01*
X033017Y021335D01*
X032626Y021424D01*
X032426Y021435D01*
X014241Y021435D01*
X014260Y021427D01*
X014384Y021303D01*
X014451Y021142D01*
X014451Y020966D01*
X014384Y020805D01*
X014260Y020681D01*
X014210Y020660D01*
X014260Y020640D01*
X014384Y020516D01*
X014451Y020354D01*
X014451Y020179D01*
X014384Y020017D01*
X014260Y019894D01*
X014210Y019873D01*
X014260Y019852D01*
X014384Y019728D01*
X014451Y019567D01*
X014451Y019392D01*
X014384Y019230D01*
X014260Y019106D01*
X014210Y019086D01*
X014260Y019065D01*
X014384Y018941D01*
X014451Y018779D01*
X014451Y018604D01*
X014384Y018443D01*
X014260Y018319D01*
X014210Y018298D01*
X014260Y018277D01*
X014384Y018154D01*
X014451Y017992D01*
X014451Y017817D01*
X014384Y017655D01*
X014260Y017531D01*
X014210Y017511D01*
X014260Y017490D01*
X014384Y017366D01*
X014451Y017205D01*
X014451Y017029D01*
X014384Y016868D01*
X014260Y016744D01*
X014210Y016723D01*
X014260Y016703D01*
X014384Y016579D01*
X014451Y016417D01*
X014451Y016242D01*
X014384Y016080D01*
X014260Y015957D01*
X014210Y015936D01*
X014260Y015915D01*
X014384Y015791D01*
X014451Y015630D01*
X014451Y015455D01*
X014384Y015293D01*
X014260Y015169D01*
X014210Y015149D01*
X014260Y015128D01*
X014384Y015004D01*
X014451Y014842D01*
X014451Y014667D01*
X014384Y014506D01*
X014260Y014382D01*
X014210Y014361D01*
X014260Y014340D01*
X014384Y014217D01*
X014451Y014055D01*
X014451Y013880D01*
X014384Y013718D01*
X014260Y013594D01*
X014098Y013527D01*
X013923Y013527D01*
X013761Y013594D01*
X013638Y013718D01*
X013571Y013880D01*
X013571Y014055D01*
X013638Y014217D01*
X013761Y014340D01*
X013811Y014361D01*
X013761Y014382D01*
X013638Y014506D01*
X013571Y014667D01*
X013571Y014842D01*
X013638Y015004D01*
X013761Y015128D01*
X013811Y015149D01*
X013761Y015169D01*
X013638Y015293D01*
X013571Y015455D01*
X013571Y015630D01*
X013638Y015791D01*
X013761Y015915D01*
X013811Y015936D01*
X013761Y015957D01*
X013638Y016080D01*
X013571Y016242D01*
X013571Y016417D01*
X013638Y016579D01*
X013761Y016703D01*
X013811Y016723D01*
X013761Y016744D01*
X013638Y016868D01*
X013571Y017029D01*
X013571Y017205D01*
X013638Y017366D01*
X013761Y017490D01*
X013811Y017511D01*
X013761Y017531D01*
X013638Y017655D01*
X013571Y017817D01*
X013571Y017992D01*
X013638Y018154D01*
X013761Y018277D01*
X013811Y018298D01*
X013761Y018319D01*
X013638Y018443D01*
X013571Y018604D01*
X013571Y018779D01*
X013638Y018941D01*
X013761Y019065D01*
X013811Y019086D01*
X013761Y019106D01*
X013638Y019230D01*
X013571Y019392D01*
X013571Y019567D01*
X013638Y019728D01*
X013761Y019852D01*
X013811Y019873D01*
X013761Y019894D01*
X013638Y020017D01*
X013571Y020179D01*
X013571Y020354D01*
X013638Y020516D01*
X013761Y020640D01*
X013811Y020660D01*
X013761Y020681D01*
X013638Y020805D01*
X013571Y020966D01*
X013571Y021142D01*
X013638Y021303D01*
X013761Y021427D01*
X013781Y021435D01*
X005579Y021435D01*
X005599Y021427D01*
X005722Y021303D01*
X005789Y021142D01*
X005789Y020966D01*
X005722Y020805D01*
X005599Y020681D01*
X005549Y020660D01*
X005599Y020640D01*
X005722Y020516D01*
X005734Y020487D01*
X006685Y020487D01*
X007900Y019271D01*
X007900Y015521D01*
X009021Y014400D01*
X010021Y014400D01*
X010150Y014271D01*
X011337Y013084D01*
X011350Y013090D01*
X011510Y013090D01*
X011657Y013029D01*
X011769Y012917D01*
X011830Y012770D01*
X011830Y012090D01*
X011823Y012074D02*
X012037Y012074D01*
X012030Y012090D02*
X012091Y011943D01*
X012203Y011831D01*
X012350Y011770D01*
X012510Y011770D01*
X012657Y011831D01*
X012769Y011943D01*
X012830Y012090D01*
X012830Y012770D01*
X012769Y012917D01*
X012657Y013029D01*
X012650Y013032D01*
X012650Y014571D01*
X012327Y014894D01*
X012330Y014900D01*
X012330Y015060D01*
X012269Y015207D01*
X012157Y015319D01*
X012010Y015380D01*
X011850Y015380D01*
X011844Y015377D01*
X011571Y015650D01*
X010526Y015650D01*
X010346Y015830D01*
X010014Y015830D01*
X009780Y015596D01*
X009780Y015264D01*
X010014Y015030D01*
X010346Y015030D01*
X010526Y015210D01*
X011389Y015210D01*
X011533Y015066D01*
X011530Y015060D01*
X011530Y014900D01*
X011591Y014753D01*
X011703Y014641D01*
X011850Y014580D01*
X012010Y014580D01*
X012016Y014583D01*
X012210Y014389D01*
X012210Y013032D01*
X012203Y013029D01*
X012091Y012917D01*
X012030Y012770D01*
X012030Y012090D01*
X012119Y011916D02*
X011741Y011916D01*
X011119Y011916D02*
X010741Y011916D01*
X010823Y012074D02*
X011037Y012074D01*
X011030Y012233D02*
X010830Y012233D01*
X010830Y012391D02*
X011030Y012391D01*
X011030Y012550D02*
X010830Y012550D01*
X010830Y012708D02*
X011030Y012708D01*
X010932Y012867D02*
X010790Y012867D01*
X010774Y013025D02*
X010661Y013025D01*
X010615Y013184D02*
X010488Y013184D01*
X010457Y013342D02*
X010329Y013342D01*
X010298Y013501D02*
X010171Y013501D01*
X010140Y013659D02*
X010012Y013659D01*
X009981Y013818D02*
X009854Y013818D01*
X009680Y013680D02*
X010430Y012930D01*
X010430Y012430D01*
X010030Y012391D02*
X009830Y012391D01*
X009830Y012233D02*
X010030Y012233D01*
X010037Y012074D02*
X009823Y012074D01*
X009830Y012090D02*
X009769Y011943D01*
X009657Y011831D01*
X009510Y011770D01*
X009350Y011770D01*
X009203Y011831D01*
X009091Y011943D01*
X009030Y012090D01*
X009030Y012770D01*
X009091Y012917D01*
X009203Y013029D01*
X009350Y013090D01*
X009510Y013090D01*
X009657Y013029D01*
X009769Y012917D01*
X009830Y012770D01*
X009830Y012090D01*
X009741Y011916D02*
X010119Y011916D01*
X010030Y012550D02*
X009830Y012550D01*
X009830Y012708D02*
X010030Y012708D01*
X010070Y012867D02*
X009790Y012867D01*
X009661Y013025D02*
X010024Y013025D01*
X009865Y013184D02*
X003509Y013184D01*
X003529Y013203D02*
X003590Y013350D01*
X003590Y013510D01*
X003529Y013657D01*
X003417Y013769D01*
X003270Y013830D01*
X002590Y013830D01*
X002443Y013769D01*
X002331Y013657D01*
X002270Y013510D01*
X002270Y013350D01*
X002331Y013203D01*
X002443Y013091D01*
X002590Y013030D01*
X003270Y013030D01*
X003417Y013091D01*
X003529Y013203D01*
X003587Y013342D02*
X009707Y013342D01*
X009199Y013025D02*
X008661Y013025D01*
X008657Y013029D02*
X008510Y013090D01*
X008350Y013090D01*
X008203Y013029D01*
X008091Y012917D01*
X008030Y012770D01*
X008030Y012090D01*
X008091Y011943D01*
X008203Y011831D01*
X008350Y011770D01*
X008510Y011770D01*
X008657Y011831D01*
X008769Y011943D01*
X008830Y012090D01*
X008830Y012770D01*
X008769Y012917D01*
X008657Y013029D01*
X008790Y012867D02*
X009070Y012867D01*
X009030Y012708D02*
X008830Y012708D01*
X008830Y012550D02*
X009030Y012550D01*
X009030Y012391D02*
X008830Y012391D01*
X008830Y012233D02*
X009030Y012233D01*
X009037Y012074D02*
X008823Y012074D01*
X008741Y011916D02*
X009119Y011916D01*
X008119Y011916D02*
X007741Y011916D01*
X007769Y011943D02*
X007830Y012090D01*
X007830Y012770D01*
X007769Y012917D01*
X007657Y013029D01*
X007510Y013090D01*
X007350Y013090D01*
X007203Y013029D01*
X007091Y012917D01*
X007030Y012770D01*
X007030Y012090D01*
X007091Y011943D01*
X007203Y011831D01*
X007350Y011770D01*
X007510Y011770D01*
X007657Y011831D01*
X007769Y011943D01*
X007823Y012074D02*
X008037Y012074D01*
X008030Y012233D02*
X007830Y012233D01*
X007830Y012391D02*
X008030Y012391D01*
X008030Y012550D02*
X007830Y012550D01*
X007830Y012708D02*
X008030Y012708D01*
X008070Y012867D02*
X007790Y012867D01*
X007661Y013025D02*
X008199Y013025D01*
X008548Y013501D02*
X003590Y013501D01*
X003527Y013659D02*
X005035Y013659D01*
X004935Y013818D02*
X003300Y013818D01*
X003270Y014030D02*
X003417Y014091D01*
X003529Y014203D01*
X003590Y014350D01*
X003590Y014510D01*
X003529Y014657D01*
X003417Y014769D01*
X003270Y014830D01*
X002590Y014830D01*
X002443Y014769D01*
X002331Y014657D01*
X002270Y014510D01*
X002270Y014350D01*
X002331Y014203D01*
X002443Y014091D01*
X002590Y014030D01*
X003270Y014030D01*
X003460Y014135D02*
X004942Y014135D01*
X004909Y013976D02*
X001110Y013976D01*
X001110Y013818D02*
X002560Y013818D01*
X002333Y013659D02*
X001110Y013659D01*
X001110Y013501D02*
X002270Y013501D01*
X002273Y013342D02*
X001110Y013342D01*
X001110Y013184D02*
X002351Y013184D01*
X002443Y012769D02*
X002331Y012657D01*
X002270Y012510D01*
X002270Y012350D01*
X002331Y012203D01*
X002443Y012091D01*
X002590Y012030D01*
X003270Y012030D01*
X003417Y012091D01*
X003529Y012203D01*
X003590Y012350D01*
X003590Y012510D01*
X003529Y012657D01*
X003417Y012769D01*
X003270Y012830D01*
X002590Y012830D01*
X002443Y012769D01*
X002382Y012708D02*
X001110Y012708D01*
X001110Y012550D02*
X002287Y012550D01*
X002270Y012391D02*
X001110Y012391D01*
X001110Y012233D02*
X002319Y012233D01*
X002484Y012074D02*
X001110Y012074D01*
X001110Y011916D02*
X005119Y011916D01*
X005091Y011943D02*
X005203Y011831D01*
X005350Y011770D01*
X005510Y011770D01*
X005657Y011831D01*
X005769Y011943D01*
X005830Y012090D01*
X005830Y012770D01*
X005769Y012917D01*
X005657Y013029D01*
X005510Y013090D01*
X005350Y013090D01*
X005203Y013029D01*
X005091Y012917D01*
X005030Y012770D01*
X005030Y012090D01*
X005091Y011943D01*
X005037Y012074D02*
X003376Y012074D01*
X003541Y012233D02*
X005030Y012233D01*
X005030Y012391D02*
X003590Y012391D01*
X003573Y012550D02*
X005030Y012550D01*
X005030Y012708D02*
X003478Y012708D01*
X003270Y011830D02*
X002590Y011830D01*
X002443Y011769D01*
X002331Y011657D01*
X002270Y011510D01*
X002270Y011350D01*
X002331Y011203D01*
X002443Y011091D01*
X002590Y011030D01*
X003270Y011030D01*
X003417Y011091D01*
X003529Y011203D01*
X003590Y011350D01*
X003590Y011510D01*
X003529Y011657D01*
X003417Y011769D01*
X003270Y011830D01*
X003429Y011757D02*
X015277Y011757D01*
X015261Y011762D02*
X015327Y011741D01*
X015395Y011730D01*
X015430Y011730D01*
X015465Y011730D01*
X015533Y011741D01*
X015599Y011762D01*
X015661Y011794D01*
X015715Y011833D01*
X015839Y011710D01*
X016710Y010839D01*
X016710Y007339D01*
X016839Y007210D01*
X017112Y006937D01*
X017091Y006917D01*
X017030Y006770D01*
X017030Y006090D01*
X017091Y005943D01*
X017203Y005831D01*
X017350Y005770D01*
X017510Y005770D01*
X017657Y005831D01*
X017769Y005943D01*
X017830Y006090D01*
X017830Y006770D01*
X017769Y006917D01*
X017657Y007029D01*
X017632Y007039D01*
X017150Y007521D01*
X017150Y011021D01*
X016401Y011770D01*
X016510Y011770D01*
X016657Y011831D01*
X016769Y011943D01*
X016830Y012090D01*
X016830Y012770D01*
X016769Y012917D01*
X016657Y013029D01*
X016510Y013090D01*
X016350Y013090D01*
X016203Y013029D01*
X016150Y012976D01*
X016150Y013394D01*
X016264Y013280D01*
X016596Y013280D01*
X016830Y013514D01*
X016830Y013846D01*
X016596Y014080D01*
X016264Y014080D01*
X016150Y013966D01*
X016150Y014280D01*
X016346Y014280D01*
X016580Y014514D01*
X016580Y014846D01*
X016346Y015080D01*
X016014Y015080D01*
X015834Y014900D01*
X015526Y014900D01*
X015346Y015080D01*
X015014Y015080D01*
X014780Y014846D01*
X014780Y014514D01*
X015014Y014280D01*
X015346Y014280D01*
X015526Y014460D01*
X015710Y014460D01*
X015710Y014022D01*
X015612Y014120D01*
X015430Y014120D01*
X015430Y013680D01*
X015430Y013680D01*
X015430Y013240D01*
X015612Y013240D01*
X015710Y013338D01*
X015710Y013030D01*
X015661Y013066D01*
X015599Y013098D01*
X015533Y013119D01*
X015465Y013130D01*
X015430Y013130D01*
X015430Y012430D01*
X015430Y012430D01*
X015430Y011730D01*
X015430Y012430D01*
X015430Y012430D01*
X015430Y012430D01*
X014990Y012430D01*
X014990Y012725D01*
X015001Y012793D01*
X015022Y012859D01*
X015054Y012921D01*
X015094Y012977D01*
X015143Y013026D01*
X015199Y013066D01*
X015261Y013098D01*
X015327Y013119D01*
X015395Y013130D01*
X015430Y013130D01*
X015430Y012430D01*
X014990Y012430D01*
X014990Y012135D01*
X015001Y012067D01*
X015022Y012001D01*
X015054Y011939D01*
X015094Y011883D01*
X015143Y011834D01*
X015199Y011794D01*
X015261Y011762D01*
X015430Y011757D02*
X015430Y011757D01*
X015583Y011757D02*
X015792Y011757D01*
X015930Y011930D02*
X015930Y014680D01*
X016180Y014680D01*
X015930Y014680D02*
X015180Y014680D01*
X015499Y014927D02*
X015861Y014927D01*
X015710Y014452D02*
X015517Y014452D01*
X015359Y014293D02*
X015710Y014293D01*
X015710Y014135D02*
X014418Y014135D01*
X014451Y013976D02*
X015104Y013976D01*
X014990Y013862D02*
X014990Y013680D01*
X015430Y013680D01*
X015430Y013680D01*
X015430Y013680D01*
X015430Y014120D01*
X015248Y014120D01*
X014990Y013862D01*
X014990Y013818D02*
X014425Y013818D01*
X014325Y013659D02*
X014990Y013659D01*
X014990Y013680D02*
X014990Y013498D01*
X015248Y013240D01*
X015430Y013240D01*
X015430Y013680D01*
X014990Y013680D01*
X014990Y013501D02*
X013171Y013501D01*
X013150Y013521D02*
X013150Y016521D01*
X012650Y017021D01*
X012521Y017150D01*
X012226Y017150D01*
X012157Y017219D01*
X012010Y017280D01*
X011850Y017280D01*
X011703Y017219D01*
X011591Y017107D01*
X011530Y016960D01*
X011530Y016800D01*
X011533Y016794D01*
X011389Y016650D01*
X010526Y016650D01*
X010346Y016830D01*
X010014Y016830D01*
X009780Y016596D01*
X009780Y016264D01*
X010014Y016030D01*
X010346Y016030D01*
X010526Y016210D01*
X011571Y016210D01*
X011844Y016483D01*
X011850Y016480D01*
X012010Y016480D01*
X012157Y016541D01*
X012269Y016653D01*
X012293Y016710D01*
X012339Y016710D01*
X012710Y016339D01*
X012710Y013339D01*
X012839Y013210D01*
X013112Y012937D01*
X013091Y012917D01*
X013030Y012770D01*
X013030Y012090D01*
X013091Y011943D01*
X013203Y011831D01*
X013350Y011770D01*
X013510Y011770D01*
X013657Y011831D01*
X013769Y011943D01*
X013830Y012090D01*
X013830Y012770D01*
X013769Y012917D01*
X013657Y013029D01*
X013632Y013039D01*
X013150Y013521D01*
X013150Y013659D02*
X013697Y013659D01*
X013597Y013818D02*
X013150Y013818D01*
X013150Y013976D02*
X013571Y013976D01*
X013604Y014135D02*
X013150Y014135D01*
X013150Y014293D02*
X013714Y014293D01*
X013692Y014452D02*
X013150Y014452D01*
X013150Y014610D02*
X013594Y014610D01*
X013571Y014769D02*
X013150Y014769D01*
X013150Y014927D02*
X013606Y014927D01*
X013719Y015086D02*
X013150Y015086D01*
X013150Y015244D02*
X013687Y015244D01*
X013592Y015403D02*
X013150Y015403D01*
X013150Y015561D02*
X013571Y015561D01*
X013608Y015720D02*
X013150Y015720D01*
X013150Y015878D02*
X013724Y015878D01*
X013682Y016037D02*
X013150Y016037D01*
X013150Y016195D02*
X013590Y016195D01*
X013571Y016354D02*
X013150Y016354D01*
X013150Y016512D02*
X013610Y016512D01*
X013729Y016671D02*
X013001Y016671D01*
X012842Y016829D02*
X013676Y016829D01*
X013588Y016988D02*
X012684Y016988D01*
X012525Y017146D02*
X013571Y017146D01*
X013612Y017305D02*
X007900Y017305D01*
X007900Y017463D02*
X013734Y017463D01*
X013671Y017622D02*
X007900Y017622D01*
X007900Y017780D02*
X013586Y017780D01*
X013571Y017939D02*
X007900Y017939D01*
X007900Y018097D02*
X013614Y018097D01*
X013740Y018256D02*
X007900Y018256D01*
X007900Y018414D02*
X013666Y018414D01*
X013584Y018573D02*
X007900Y018573D01*
X007900Y018731D02*
X013571Y018731D01*
X013616Y018890D02*
X007900Y018890D01*
X007900Y019048D02*
X013745Y019048D01*
X013661Y019207D02*
X007900Y019207D01*
X007806Y019365D02*
X013582Y019365D01*
X013571Y019524D02*
X007648Y019524D01*
X007489Y019682D02*
X013618Y019682D01*
X013750Y019841D02*
X007331Y019841D01*
X007172Y019999D02*
X013656Y019999D01*
X013580Y020158D02*
X007014Y020158D01*
X006855Y020316D02*
X013571Y020316D01*
X013621Y020475D02*
X006697Y020475D01*
X006550Y019999D02*
X005704Y019999D01*
X005610Y019841D02*
X006708Y019841D01*
X006867Y019682D02*
X005742Y019682D01*
X005399Y019430D02*
X005349Y019479D01*
X005399Y019430D02*
X006680Y019430D01*
X007180Y018930D01*
X007180Y015180D01*
X008680Y013680D01*
X009680Y013680D01*
X010287Y014135D02*
X012210Y014135D01*
X012210Y014293D02*
X010128Y014293D01*
X010445Y013976D02*
X012210Y013976D01*
X012210Y013818D02*
X010604Y013818D01*
X010762Y013659D02*
X012210Y013659D01*
X012210Y013501D02*
X010921Y013501D01*
X011079Y013342D02*
X012210Y013342D01*
X012210Y013184D02*
X011238Y013184D01*
X011661Y013025D02*
X012199Y013025D01*
X012070Y012867D02*
X011790Y012867D01*
X011830Y012708D02*
X012030Y012708D01*
X012030Y012550D02*
X011830Y012550D01*
X012430Y012430D02*
X012430Y014480D01*
X011930Y014980D01*
X011480Y015430D01*
X010180Y015430D01*
X009904Y015720D02*
X009456Y015720D01*
X009346Y015830D02*
X009014Y015830D01*
X008780Y015596D01*
X008780Y015264D01*
X009014Y015030D01*
X009346Y015030D01*
X009580Y015264D01*
X009580Y015596D01*
X009346Y015830D01*
X009346Y016030D02*
X009014Y016030D01*
X008780Y016264D01*
X008780Y016596D01*
X009014Y016830D01*
X009346Y016830D01*
X009580Y016596D01*
X009580Y016264D01*
X009346Y016030D01*
X009352Y016037D02*
X010008Y016037D01*
X009849Y016195D02*
X009511Y016195D01*
X009580Y016354D02*
X009780Y016354D01*
X009780Y016512D02*
X009580Y016512D01*
X009505Y016671D02*
X009855Y016671D01*
X010013Y016829D02*
X009347Y016829D01*
X009013Y016829D02*
X007900Y016829D01*
X007900Y016671D02*
X008855Y016671D01*
X008780Y016512D02*
X007900Y016512D01*
X007900Y016354D02*
X008780Y016354D01*
X008849Y016195D02*
X007900Y016195D01*
X007900Y016037D02*
X009008Y016037D01*
X008904Y015720D02*
X007900Y015720D01*
X007900Y015878D02*
X012710Y015878D01*
X012710Y015720D02*
X010456Y015720D01*
X010352Y016037D02*
X012710Y016037D01*
X012710Y016195D02*
X010511Y016195D01*
X010180Y016430D02*
X011480Y016430D01*
X011930Y016880D01*
X011980Y016930D01*
X012430Y016930D01*
X012930Y016430D01*
X012930Y013430D01*
X013430Y012930D01*
X013430Y012430D01*
X013830Y012391D02*
X014030Y012391D01*
X014030Y012233D02*
X013830Y012233D01*
X013823Y012074D02*
X014037Y012074D01*
X014030Y012090D02*
X014091Y011943D01*
X014203Y011831D01*
X014350Y011770D01*
X014510Y011770D01*
X014657Y011831D01*
X014769Y011943D01*
X014830Y012090D01*
X014830Y012770D01*
X014769Y012917D01*
X014657Y013029D01*
X014510Y013090D01*
X014350Y013090D01*
X014203Y013029D01*
X014091Y012917D01*
X014030Y012770D01*
X014030Y012090D01*
X014119Y011916D02*
X013741Y011916D01*
X013119Y011916D02*
X012741Y011916D01*
X012823Y012074D02*
X013037Y012074D01*
X013030Y012233D02*
X012830Y012233D01*
X012830Y012391D02*
X013030Y012391D01*
X013030Y012550D02*
X012830Y012550D01*
X012830Y012708D02*
X013030Y012708D01*
X013070Y012867D02*
X012790Y012867D01*
X012661Y013025D02*
X013024Y013025D01*
X012865Y013184D02*
X012650Y013184D01*
X012650Y013342D02*
X012710Y013342D01*
X012710Y013501D02*
X012650Y013501D01*
X012650Y013659D02*
X012710Y013659D01*
X012710Y013818D02*
X012650Y013818D01*
X012650Y013976D02*
X012710Y013976D01*
X012710Y014135D02*
X012650Y014135D01*
X012650Y014293D02*
X012710Y014293D01*
X012710Y014452D02*
X012650Y014452D01*
X012611Y014610D02*
X012710Y014610D01*
X012710Y014769D02*
X012453Y014769D01*
X012330Y014927D02*
X012710Y014927D01*
X012710Y015086D02*
X012319Y015086D01*
X012232Y015244D02*
X012710Y015244D01*
X012710Y015403D02*
X011819Y015403D01*
X011660Y015561D02*
X012710Y015561D01*
X012695Y016354D02*
X011715Y016354D01*
X012087Y016512D02*
X012537Y016512D01*
X012378Y016671D02*
X012276Y016671D01*
X011530Y016829D02*
X010347Y016829D01*
X010505Y016671D02*
X011409Y016671D01*
X011542Y016988D02*
X007900Y016988D01*
X007900Y017146D02*
X011630Y017146D01*
X009780Y015561D02*
X009580Y015561D01*
X009580Y015403D02*
X009780Y015403D01*
X009800Y015244D02*
X009560Y015244D01*
X009401Y015086D02*
X009959Y015086D01*
X010401Y015086D02*
X011513Y015086D01*
X011530Y014927D02*
X008494Y014927D01*
X008336Y015086D02*
X008959Y015086D01*
X008800Y015244D02*
X008177Y015244D01*
X008019Y015403D02*
X008780Y015403D01*
X008780Y015561D02*
X007900Y015561D01*
X007460Y015561D02*
X007400Y015561D01*
X007400Y015403D02*
X007460Y015403D01*
X007427Y015244D02*
X007555Y015244D01*
X007586Y015086D02*
X007713Y015086D01*
X007744Y014927D02*
X007872Y014927D01*
X007903Y014769D02*
X008030Y014769D01*
X008061Y014610D02*
X008189Y014610D01*
X008220Y014452D02*
X008347Y014452D01*
X008378Y014293D02*
X008506Y014293D01*
X008537Y014135D02*
X008664Y014135D01*
X008695Y013976D02*
X008823Y013976D01*
X008970Y014452D02*
X012147Y014452D01*
X011778Y014610D02*
X008811Y014610D01*
X008653Y014769D02*
X011585Y014769D01*
X012839Y013210D02*
X012839Y013210D01*
X013329Y013342D02*
X015146Y013342D01*
X015430Y013342D02*
X015430Y013342D01*
X015430Y013501D02*
X015430Y013501D01*
X015430Y013659D02*
X015430Y013659D01*
X015430Y013818D02*
X015430Y013818D01*
X015430Y013976D02*
X015430Y013976D01*
X015001Y014293D02*
X014307Y014293D01*
X014330Y014452D02*
X014843Y014452D01*
X014780Y014610D02*
X014427Y014610D01*
X014451Y014769D02*
X014780Y014769D01*
X014861Y014927D02*
X014416Y014927D01*
X014302Y015086D02*
X017274Y015086D01*
X017320Y015131D02*
X017089Y014900D01*
X016960Y014771D01*
X016960Y013589D01*
X017210Y013339D01*
X017210Y013032D01*
X017203Y013029D01*
X017091Y012917D01*
X017030Y012770D01*
X017030Y012090D01*
X017091Y011943D01*
X017203Y011831D01*
X017350Y011770D01*
X017510Y011770D01*
X017657Y011831D01*
X017769Y011943D01*
X017830Y012090D01*
X017830Y012770D01*
X017769Y012917D01*
X017657Y013029D01*
X017650Y013032D01*
X017650Y013521D01*
X017521Y013650D01*
X017400Y013771D01*
X017400Y014589D01*
X017550Y014739D01*
X017619Y014670D01*
X017699Y014670D01*
X017420Y014391D01*
X017420Y013969D01*
X017719Y013670D01*
X018141Y013670D01*
X018430Y013959D01*
X018719Y013670D01*
X019109Y013670D01*
X018523Y013084D01*
X018510Y013090D01*
X018350Y013090D01*
X018203Y013029D01*
X018091Y012917D01*
X018030Y012770D01*
X018030Y012090D01*
X018091Y011943D01*
X018203Y011831D01*
X018350Y011770D01*
X018510Y011770D01*
X018657Y011831D01*
X018769Y011943D01*
X018830Y012090D01*
X018830Y012769D01*
X019900Y013839D01*
X019900Y015271D01*
X019771Y015400D01*
X019349Y015822D01*
X019480Y015952D01*
X019480Y016160D01*
X018950Y016160D01*
X018950Y016200D01*
X018910Y016200D01*
X018910Y016730D01*
X018702Y016730D01*
X018402Y016430D01*
X018141Y016690D01*
X017719Y016690D01*
X017420Y016391D01*
X017420Y015969D01*
X017699Y015690D01*
X017619Y015690D01*
X017320Y015391D01*
X017320Y015131D01*
X017320Y015244D02*
X014335Y015244D01*
X014429Y015403D02*
X017331Y015403D01*
X017490Y015561D02*
X014451Y015561D01*
X014414Y015720D02*
X017669Y015720D01*
X017511Y015878D02*
X014297Y015878D01*
X014340Y016037D02*
X017420Y016037D01*
X017420Y016195D02*
X014431Y016195D01*
X014451Y016354D02*
X014941Y016354D01*
X015014Y016280D02*
X014780Y016514D01*
X014780Y016846D01*
X014968Y017033D01*
X014942Y017044D01*
X014824Y017162D01*
X014760Y017316D01*
X014760Y018044D01*
X014824Y018198D01*
X014942Y018316D01*
X015096Y018380D01*
X015264Y018380D01*
X015418Y018316D01*
X015536Y018198D01*
X015600Y018044D01*
X015600Y017316D01*
X015536Y017162D01*
X015418Y017044D01*
X015392Y017033D01*
X015580Y016846D01*
X015580Y016514D01*
X015346Y016280D01*
X015014Y016280D01*
X014782Y016512D02*
X014411Y016512D01*
X014292Y016671D02*
X014780Y016671D01*
X014780Y016829D02*
X014345Y016829D01*
X014433Y016988D02*
X014922Y016988D01*
X014840Y017146D02*
X014451Y017146D01*
X014409Y017305D02*
X014765Y017305D01*
X014760Y017463D02*
X014287Y017463D01*
X014350Y017622D02*
X014760Y017622D01*
X014760Y017780D02*
X014435Y017780D01*
X014451Y017939D02*
X014760Y017939D01*
X014782Y018097D02*
X014407Y018097D01*
X014282Y018256D02*
X014882Y018256D01*
X014438Y018573D02*
X017975Y018573D01*
X017975Y018492D02*
X018242Y018225D01*
X018618Y018225D01*
X018885Y018492D01*
X018885Y018868D01*
X018618Y019135D01*
X018242Y019135D01*
X017975Y018868D01*
X017975Y018492D01*
X018053Y018414D02*
X014355Y018414D01*
X014451Y018731D02*
X017975Y018731D01*
X017996Y018890D02*
X014405Y018890D01*
X014277Y019048D02*
X018155Y019048D01*
X018192Y019294D02*
X018346Y019230D01*
X018514Y019230D01*
X018668Y019294D01*
X018786Y019412D01*
X018850Y019566D01*
X018850Y020294D01*
X018786Y020448D01*
X018668Y020566D01*
X018514Y020630D01*
X018346Y020630D01*
X018192Y020566D01*
X018074Y020448D01*
X018010Y020294D01*
X018010Y019566D01*
X018074Y019412D01*
X018192Y019294D01*
X018121Y019365D02*
X017739Y019365D01*
X017786Y019412D02*
X017668Y019294D01*
X017514Y019230D01*
X017346Y019230D01*
X017192Y019294D01*
X017074Y019412D01*
X017010Y019566D01*
X017010Y020294D01*
X017074Y020448D01*
X017192Y020566D01*
X017346Y020630D01*
X017514Y020630D01*
X017668Y020566D01*
X017786Y020448D01*
X017850Y020294D01*
X017850Y019566D01*
X017786Y019412D01*
X017832Y019524D02*
X018028Y019524D01*
X018010Y019682D02*
X017850Y019682D01*
X017850Y019841D02*
X018010Y019841D01*
X018010Y019999D02*
X017850Y019999D01*
X017850Y020158D02*
X018010Y020158D01*
X018019Y020316D02*
X017841Y020316D01*
X017759Y020475D02*
X018101Y020475D01*
X018759Y020475D02*
X019101Y020475D01*
X019074Y020448D02*
X019010Y020294D01*
X019010Y019566D01*
X019074Y019412D01*
X019192Y019294D01*
X019346Y019230D01*
X019514Y019230D01*
X019668Y019294D01*
X019786Y019412D01*
X019850Y019566D01*
X019850Y019710D01*
X020109Y019710D01*
X020109Y019372D01*
X020191Y019290D01*
X022307Y019290D01*
X022389Y019372D01*
X022389Y020488D01*
X022307Y020570D01*
X020191Y020570D01*
X020109Y020488D01*
X020109Y020150D01*
X019850Y020150D01*
X019850Y020294D01*
X019786Y020448D01*
X019668Y020566D01*
X019514Y020630D01*
X019346Y020630D01*
X019192Y020566D01*
X019074Y020448D01*
X019019Y020316D02*
X018841Y020316D01*
X018850Y020158D02*
X019010Y020158D01*
X019010Y019999D02*
X018850Y019999D01*
X018850Y019841D02*
X019010Y019841D01*
X019010Y019682D02*
X018850Y019682D01*
X018832Y019524D02*
X019028Y019524D01*
X019121Y019365D02*
X018739Y019365D01*
X018705Y019048D02*
X030210Y019048D01*
X030210Y018890D02*
X018864Y018890D01*
X018885Y018731D02*
X030318Y018731D01*
X030273Y018610D02*
X029329Y018610D01*
X029329Y017510D01*
X030429Y017510D01*
X030429Y018454D01*
X030417Y018499D01*
X030393Y018541D01*
X030359Y018574D01*
X030318Y018598D01*
X030273Y018610D01*
X030361Y018573D02*
X030476Y018573D01*
X030429Y018414D02*
X030635Y018414D01*
X030710Y018339D02*
X030710Y018276D01*
X030530Y018096D01*
X030530Y017764D01*
X030764Y017530D01*
X031096Y017530D01*
X031330Y017764D01*
X031330Y018096D01*
X031150Y018276D01*
X031150Y018521D01*
X031021Y018650D01*
X030650Y019021D01*
X030650Y019521D01*
X030521Y019650D01*
X030389Y019782D01*
X030389Y020488D01*
X030307Y020570D01*
X028191Y020570D01*
X028109Y020488D01*
X028109Y019372D01*
X028191Y019290D01*
X030210Y019290D01*
X030210Y018839D01*
X030710Y018339D01*
X030690Y018256D02*
X030429Y018256D01*
X030429Y018097D02*
X030531Y018097D01*
X030530Y017939D02*
X030429Y017939D01*
X030429Y017780D02*
X030530Y017780D01*
X030429Y017622D02*
X030673Y017622D01*
X030429Y017350D02*
X029329Y017350D01*
X029329Y017510D01*
X029169Y017510D01*
X029169Y018610D01*
X028225Y018610D01*
X028179Y018598D01*
X028138Y018574D01*
X028105Y018541D01*
X028081Y018499D01*
X028069Y018454D01*
X028069Y017510D01*
X029169Y017510D01*
X029169Y017350D01*
X029329Y017350D01*
X029329Y016250D01*
X030273Y016250D01*
X030318Y016262D01*
X030359Y016286D01*
X030393Y016319D01*
X030417Y016361D01*
X030429Y016406D01*
X030429Y017350D01*
X030429Y017305D02*
X034215Y017305D01*
X034215Y017463D02*
X029329Y017463D01*
X029329Y017305D02*
X029169Y017305D01*
X029169Y017350D02*
X029169Y016250D01*
X028225Y016250D01*
X028179Y016262D01*
X028138Y016286D01*
X028105Y016319D01*
X028081Y016361D01*
X028069Y016406D01*
X028069Y017350D01*
X029169Y017350D01*
X029169Y017463D02*
X021570Y017463D01*
X021570Y017508D02*
X021511Y017651D01*
X021401Y017761D01*
X021151Y018011D01*
X021008Y018070D01*
X018677Y018070D01*
X018521Y018135D01*
X018339Y018135D01*
X018183Y018070D01*
X016589Y018070D01*
X016536Y018198D01*
X016418Y018316D01*
X016264Y018380D01*
X016096Y018380D01*
X015942Y018316D01*
X015824Y018198D01*
X015760Y018044D01*
X015760Y017316D01*
X015824Y017162D01*
X015942Y017044D01*
X015960Y017037D01*
X015960Y017026D01*
X015780Y016846D01*
X015780Y016514D01*
X016014Y016280D01*
X016346Y016280D01*
X016580Y016514D01*
X016580Y016846D01*
X016400Y017026D01*
X016400Y017037D01*
X016418Y017044D01*
X016536Y017162D01*
X016589Y017290D01*
X018183Y017290D01*
X018339Y017225D01*
X018521Y017225D01*
X018677Y017290D01*
X020768Y017290D01*
X020790Y017268D01*
X020790Y017070D01*
X020191Y017070D01*
X020109Y016988D01*
X020109Y015872D01*
X020191Y015790D01*
X022307Y015790D01*
X022389Y015872D01*
X022389Y016988D01*
X022307Y017070D01*
X021570Y017070D01*
X021570Y017508D01*
X021523Y017622D02*
X028069Y017622D01*
X028069Y017780D02*
X021382Y017780D01*
X021401Y017761D02*
X021401Y017761D01*
X021223Y017939D02*
X028069Y017939D01*
X028069Y018097D02*
X018612Y018097D01*
X018649Y018256D02*
X028069Y018256D01*
X028069Y018414D02*
X018807Y018414D01*
X018885Y018573D02*
X028137Y018573D01*
X029169Y018573D02*
X029329Y018573D01*
X029329Y018414D02*
X029169Y018414D01*
X029169Y018256D02*
X029329Y018256D01*
X029329Y018097D02*
X029169Y018097D01*
X029169Y017939D02*
X029329Y017939D01*
X029329Y017780D02*
X029169Y017780D01*
X029169Y017622D02*
X029329Y017622D01*
X029329Y017146D02*
X029169Y017146D01*
X029169Y016988D02*
X029329Y016988D01*
X029329Y016829D02*
X029169Y016829D01*
X029169Y016671D02*
X029329Y016671D01*
X029329Y016512D02*
X029169Y016512D01*
X029169Y016354D02*
X029329Y016354D01*
X030413Y016354D02*
X034215Y016354D01*
X034215Y016512D02*
X030429Y016512D01*
X030429Y016671D02*
X034215Y016671D01*
X034215Y016829D02*
X030429Y016829D01*
X030429Y016988D02*
X034215Y016988D01*
X034215Y017146D02*
X030429Y017146D01*
X031187Y017622D02*
X034215Y017622D01*
X034215Y017780D02*
X031330Y017780D01*
X031330Y017939D02*
X034215Y017939D01*
X034215Y018097D02*
X031329Y018097D01*
X031170Y018256D02*
X034215Y018256D01*
X034215Y018414D02*
X032810Y018414D01*
X032924Y018444D02*
X032596Y018357D01*
X032256Y018357D01*
X031928Y018444D01*
X031634Y018614D01*
X031394Y018854D01*
X031224Y019149D01*
X031136Y019477D01*
X031136Y019816D01*
X031224Y020144D01*
X031394Y020439D01*
X031634Y020679D01*
X031928Y020849D01*
X032256Y020937D01*
X032596Y020937D01*
X032924Y020849D01*
X033218Y020679D01*
X033458Y020439D01*
X033628Y020144D01*
X033716Y019816D01*
X033716Y019477D01*
X033628Y019149D01*
X033458Y018854D01*
X033218Y018614D01*
X032924Y018444D01*
X033146Y018573D02*
X034215Y018573D01*
X034215Y018731D02*
X033335Y018731D01*
X033479Y018890D02*
X034215Y018890D01*
X034215Y019048D02*
X033570Y019048D01*
X033644Y019207D02*
X034215Y019207D01*
X034215Y019365D02*
X033686Y019365D01*
X033716Y019524D02*
X034215Y019524D01*
X034213Y019682D02*
X033716Y019682D01*
X033710Y019841D02*
X034204Y019841D01*
X034169Y019999D02*
X033667Y019999D01*
X033621Y020158D02*
X034132Y020158D01*
X034076Y020316D02*
X033529Y020316D01*
X033422Y020475D02*
X034000Y020475D01*
X033913Y020633D02*
X033264Y020633D01*
X033023Y020792D02*
X033786Y020792D01*
X033642Y020950D02*
X014444Y020950D01*
X014451Y021109D02*
X033443Y021109D01*
X033157Y021267D02*
X014399Y021267D01*
X014261Y021426D02*
X032595Y021426D01*
X031829Y020792D02*
X014370Y020792D01*
X014267Y020633D02*
X031588Y020633D01*
X031430Y020475D02*
X030389Y020475D01*
X030389Y020316D02*
X031323Y020316D01*
X031232Y020158D02*
X030389Y020158D01*
X030389Y019999D02*
X031185Y019999D01*
X031143Y019841D02*
X030389Y019841D01*
X030489Y019682D02*
X031136Y019682D01*
X031136Y019524D02*
X030648Y019524D01*
X030650Y019365D02*
X031166Y019365D01*
X031208Y019207D02*
X030650Y019207D01*
X030650Y019048D02*
X031282Y019048D01*
X031374Y018890D02*
X030782Y018890D01*
X030940Y018731D02*
X031517Y018731D01*
X031706Y018573D02*
X031099Y018573D01*
X031150Y018414D02*
X032042Y018414D01*
X030930Y018430D02*
X030930Y017930D01*
X030930Y018430D02*
X030430Y018930D01*
X030430Y019430D01*
X029930Y019930D01*
X029249Y019930D01*
X030210Y019207D02*
X014360Y019207D01*
X014440Y019365D02*
X017121Y019365D01*
X017028Y019524D02*
X014451Y019524D01*
X014403Y019682D02*
X017010Y019682D01*
X017010Y019841D02*
X014272Y019841D01*
X014365Y019999D02*
X017010Y019999D01*
X017010Y020158D02*
X014442Y020158D01*
X014451Y020316D02*
X017019Y020316D01*
X017101Y020475D02*
X014401Y020475D01*
X013755Y020633D02*
X005605Y020633D01*
X005709Y020792D02*
X013651Y020792D01*
X013578Y020950D02*
X005782Y020950D01*
X005789Y021109D02*
X013571Y021109D01*
X013623Y021267D02*
X005737Y021267D01*
X005600Y021426D02*
X013760Y021426D01*
X015478Y018256D02*
X015882Y018256D01*
X015782Y018097D02*
X015578Y018097D01*
X015600Y017939D02*
X015760Y017939D01*
X015760Y017780D02*
X015600Y017780D01*
X015600Y017622D02*
X015760Y017622D01*
X015760Y017463D02*
X015600Y017463D01*
X015595Y017305D02*
X015765Y017305D01*
X015840Y017146D02*
X015520Y017146D01*
X015438Y016988D02*
X015922Y016988D01*
X015780Y016829D02*
X015580Y016829D01*
X015580Y016671D02*
X015780Y016671D01*
X015782Y016512D02*
X015578Y016512D01*
X015419Y016354D02*
X015941Y016354D01*
X016180Y016680D02*
X016180Y017680D01*
X016578Y018097D02*
X018248Y018097D01*
X018211Y018256D02*
X016478Y018256D01*
X016520Y017146D02*
X020790Y017146D01*
X020109Y016988D02*
X016438Y016988D01*
X016580Y016829D02*
X020109Y016829D01*
X020109Y016671D02*
X019217Y016671D01*
X019158Y016730D02*
X018950Y016730D01*
X018950Y016200D01*
X019480Y016200D01*
X019480Y016408D01*
X019158Y016730D01*
X018950Y016671D02*
X018910Y016671D01*
X018910Y016512D02*
X018950Y016512D01*
X018950Y016354D02*
X018910Y016354D01*
X018950Y016195D02*
X020109Y016195D01*
X020109Y016037D02*
X019480Y016037D01*
X019406Y015878D02*
X020109Y015878D01*
X020109Y016354D02*
X019480Y016354D01*
X019376Y016512D02*
X020109Y016512D01*
X019452Y015720D02*
X034215Y015720D01*
X034215Y015878D02*
X022389Y015878D01*
X022389Y016037D02*
X034215Y016037D01*
X034215Y016195D02*
X022389Y016195D01*
X022389Y016354D02*
X028085Y016354D01*
X028069Y016512D02*
X022389Y016512D01*
X022389Y016671D02*
X028069Y016671D01*
X028069Y016829D02*
X022389Y016829D01*
X022389Y016988D02*
X028069Y016988D01*
X028069Y017146D02*
X021570Y017146D01*
X021570Y017305D02*
X028069Y017305D01*
X028116Y019365D02*
X022382Y019365D01*
X022389Y019524D02*
X028109Y019524D01*
X028109Y019682D02*
X022389Y019682D01*
X022389Y019841D02*
X028109Y019841D01*
X028109Y019999D02*
X022389Y019999D01*
X022389Y020158D02*
X028109Y020158D01*
X028109Y020316D02*
X022389Y020316D01*
X022389Y020475D02*
X028109Y020475D01*
X021249Y019930D02*
X019430Y019930D01*
X019850Y020158D02*
X020109Y020158D01*
X020109Y020316D02*
X019841Y020316D01*
X019759Y020475D02*
X020109Y020475D01*
X020109Y019682D02*
X019850Y019682D01*
X019832Y019524D02*
X020109Y019524D01*
X020116Y019365D02*
X019739Y019365D01*
X018643Y016671D02*
X018161Y016671D01*
X018319Y016512D02*
X018484Y016512D01*
X017930Y016180D02*
X018430Y015680D01*
X019180Y015680D01*
X019680Y015180D01*
X019680Y013930D01*
X018430Y012680D01*
X018430Y012430D01*
X018830Y012391D02*
X019030Y012391D01*
X019030Y012233D02*
X018830Y012233D01*
X018823Y012074D02*
X019037Y012074D01*
X019030Y012090D02*
X019091Y011943D01*
X019203Y011831D01*
X019350Y011770D01*
X019510Y011770D01*
X019657Y011831D01*
X019769Y011943D01*
X019830Y012090D01*
X019830Y012770D01*
X019769Y012917D01*
X019657Y013029D01*
X019510Y013090D01*
X019350Y013090D01*
X019203Y013029D01*
X019091Y012917D01*
X019030Y012770D01*
X019030Y012090D01*
X019119Y011916D02*
X018741Y011916D01*
X018119Y011916D02*
X017741Y011916D01*
X017823Y012074D02*
X018037Y012074D01*
X018030Y012233D02*
X017830Y012233D01*
X017830Y012391D02*
X018030Y012391D01*
X018030Y012550D02*
X017830Y012550D01*
X017830Y012708D02*
X018030Y012708D01*
X018070Y012867D02*
X017790Y012867D01*
X017661Y013025D02*
X018199Y013025D01*
X018622Y013184D02*
X017650Y013184D01*
X017650Y013342D02*
X018781Y013342D01*
X018939Y013501D02*
X017650Y013501D01*
X017512Y013659D02*
X019098Y013659D01*
X019562Y013501D02*
X020109Y013501D01*
X020109Y013372D02*
X020191Y013290D01*
X022307Y013290D01*
X022389Y013372D01*
X022389Y013522D01*
X022400Y013511D01*
X022582Y013436D01*
X022778Y013436D01*
X022960Y013511D01*
X023099Y013650D01*
X023174Y013832D01*
X023174Y014028D01*
X023099Y014210D01*
X022960Y014349D01*
X022778Y014424D01*
X022582Y014424D01*
X022400Y014349D01*
X022389Y014338D01*
X022389Y014488D01*
X022307Y014570D01*
X020191Y014570D01*
X020109Y014488D01*
X020109Y013372D01*
X020139Y013342D02*
X019403Y013342D01*
X019245Y013184D02*
X034215Y013184D01*
X034215Y013342D02*
X030359Y013342D01*
X030389Y013372D02*
X030389Y014488D01*
X030307Y014570D01*
X029769Y014570D01*
X029849Y014650D01*
X029924Y014832D01*
X029924Y015028D01*
X029849Y015210D01*
X029710Y015349D01*
X029528Y015424D01*
X029332Y015424D01*
X029150Y015349D01*
X029011Y015210D01*
X028936Y015028D01*
X028936Y014832D01*
X028991Y014697D01*
X028968Y014570D01*
X028191Y014570D01*
X028109Y014488D01*
X028109Y013372D01*
X028191Y013290D01*
X030307Y013290D01*
X030389Y013372D01*
X030389Y013501D02*
X034215Y013501D01*
X034215Y013659D02*
X031225Y013659D01*
X031330Y013764D02*
X031096Y013530D01*
X030764Y013530D01*
X030530Y013764D01*
X030530Y014096D01*
X030764Y014330D01*
X031096Y014330D01*
X031330Y014096D01*
X031330Y013764D01*
X031330Y013818D02*
X034215Y013818D01*
X034215Y013976D02*
X031330Y013976D01*
X031291Y014135D02*
X034215Y014135D01*
X034215Y014293D02*
X031133Y014293D01*
X030727Y014293D02*
X030389Y014293D01*
X030389Y014135D02*
X030569Y014135D01*
X030530Y013976D02*
X030389Y013976D01*
X030389Y013818D02*
X030530Y013818D01*
X030635Y013659D02*
X030389Y013659D01*
X030389Y014452D02*
X034215Y014452D01*
X034215Y014610D02*
X029809Y014610D01*
X029898Y014769D02*
X034215Y014769D01*
X034215Y014927D02*
X029924Y014927D01*
X029901Y015086D02*
X034215Y015086D01*
X034215Y015244D02*
X029815Y015244D01*
X029581Y015403D02*
X034215Y015403D01*
X034215Y015561D02*
X019610Y015561D01*
X019769Y015403D02*
X029279Y015403D01*
X029045Y015244D02*
X019900Y015244D01*
X019900Y015086D02*
X028959Y015086D01*
X028936Y014927D02*
X019900Y014927D01*
X019900Y014769D02*
X028962Y014769D01*
X028976Y014610D02*
X019900Y014610D01*
X019900Y014452D02*
X020109Y014452D01*
X020109Y014293D02*
X019900Y014293D01*
X019900Y014135D02*
X020109Y014135D01*
X020109Y013976D02*
X019900Y013976D01*
X019879Y013818D02*
X020109Y013818D01*
X020109Y013659D02*
X019720Y013659D01*
X019661Y013025D02*
X020199Y013025D01*
X020203Y013029D02*
X020091Y012917D01*
X020030Y012770D01*
X020030Y012090D01*
X020091Y011943D01*
X020203Y011831D01*
X020210Y011828D01*
X020210Y010839D01*
X022210Y008839D01*
X022210Y008839D01*
X022339Y008710D01*
X029839Y008710D01*
X030490Y008059D01*
X030490Y007748D01*
X030748Y007490D01*
X031112Y007490D01*
X031370Y007748D01*
X031370Y008112D01*
X031112Y008370D01*
X030801Y008370D01*
X030021Y009150D01*
X022521Y009150D01*
X020650Y011021D01*
X020650Y011828D01*
X020657Y011831D01*
X020769Y011943D01*
X020830Y012090D01*
X020830Y012770D01*
X020769Y012917D01*
X020657Y013029D01*
X020510Y013090D01*
X020350Y013090D01*
X020203Y013029D01*
X020070Y012867D02*
X019790Y012867D01*
X019830Y012708D02*
X020030Y012708D01*
X020030Y012550D02*
X019830Y012550D01*
X019830Y012391D02*
X020030Y012391D01*
X020030Y012233D02*
X019830Y012233D01*
X019823Y012074D02*
X020037Y012074D01*
X020119Y011916D02*
X019741Y011916D01*
X020210Y011757D02*
X016414Y011757D01*
X016573Y011599D02*
X020210Y011599D01*
X020210Y011440D02*
X016731Y011440D01*
X016890Y011282D02*
X020210Y011282D01*
X020210Y011123D02*
X017048Y011123D01*
X017150Y010965D02*
X020210Y010965D01*
X020243Y010806D02*
X017150Y010806D01*
X017150Y010648D02*
X020401Y010648D01*
X020560Y010489D02*
X017150Y010489D01*
X017150Y010331D02*
X020718Y010331D01*
X020877Y010172D02*
X017150Y010172D01*
X017150Y010014D02*
X021035Y010014D01*
X021194Y009855D02*
X017150Y009855D01*
X017150Y009697D02*
X021352Y009697D01*
X021511Y009538D02*
X017150Y009538D01*
X017150Y009380D02*
X021669Y009380D01*
X021828Y009221D02*
X017150Y009221D01*
X017150Y009063D02*
X021986Y009063D01*
X022145Y008904D02*
X017150Y008904D01*
X017150Y008746D02*
X022303Y008746D01*
X022430Y008930D02*
X029930Y008930D01*
X030930Y007930D01*
X031370Y007953D02*
X031450Y007953D01*
X031450Y007950D02*
X031910Y007950D01*
X031910Y008410D01*
X031731Y008410D01*
X031450Y008129D01*
X031450Y007950D01*
X031450Y007910D02*
X031450Y007731D01*
X031731Y007450D01*
X031910Y007450D01*
X031910Y007910D01*
X031450Y007910D01*
X031450Y007795D02*
X031370Y007795D01*
X031258Y007636D02*
X031545Y007636D01*
X031704Y007478D02*
X017194Y007478D01*
X017150Y007636D02*
X030602Y007636D01*
X030490Y007795D02*
X017150Y007795D01*
X017150Y007953D02*
X030490Y007953D01*
X030437Y008112D02*
X017150Y008112D01*
X017150Y008270D02*
X030279Y008270D01*
X030120Y008429D02*
X017150Y008429D01*
X017150Y008587D02*
X029962Y008587D01*
X030267Y008904D02*
X030490Y008904D01*
X030490Y009059D02*
X030490Y008748D01*
X030748Y008490D01*
X031112Y008490D01*
X031370Y008748D01*
X031370Y009112D01*
X031112Y009370D01*
X030801Y009370D01*
X030521Y009650D01*
X022771Y009650D01*
X021650Y010771D01*
X021650Y011828D01*
X021657Y011831D01*
X021769Y011943D01*
X021830Y012090D01*
X021830Y012770D01*
X021769Y012917D01*
X021657Y013029D01*
X021510Y013090D01*
X021350Y013090D01*
X021203Y013029D01*
X021091Y012917D01*
X021030Y012770D01*
X021030Y012090D01*
X021091Y011943D01*
X021203Y011831D01*
X021210Y011828D01*
X021210Y010589D01*
X022460Y009339D01*
X022589Y009210D01*
X030339Y009210D01*
X030490Y009059D01*
X030486Y009063D02*
X030109Y009063D01*
X030426Y008746D02*
X030492Y008746D01*
X030584Y008587D02*
X030651Y008587D01*
X030743Y008429D02*
X034215Y008429D01*
X034215Y008587D02*
X033209Y008587D01*
X033112Y008490D02*
X032748Y008490D01*
X032490Y008748D01*
X032490Y009112D01*
X032748Y009370D01*
X033112Y009370D01*
X033370Y009112D01*
X033370Y008748D01*
X033112Y008490D01*
X033112Y008370D02*
X032748Y008370D01*
X032490Y008112D01*
X032490Y007748D01*
X032748Y007490D01*
X033112Y007490D01*
X033370Y007748D01*
X033370Y008112D01*
X033112Y008370D01*
X033212Y008270D02*
X034215Y008270D01*
X034215Y008112D02*
X033370Y008112D01*
X033370Y007953D02*
X034215Y007953D01*
X034215Y007795D02*
X033370Y007795D01*
X033258Y007636D02*
X034215Y007636D01*
X034215Y007478D02*
X032156Y007478D01*
X032129Y007450D02*
X032410Y007731D01*
X032410Y007910D01*
X031950Y007910D01*
X031950Y007950D01*
X031910Y007950D01*
X031910Y007910D01*
X031950Y007910D01*
X031950Y007450D01*
X032129Y007450D01*
X032129Y007410D02*
X031950Y007410D01*
X031950Y006950D01*
X031910Y006950D01*
X031910Y007410D01*
X031731Y007410D01*
X031450Y007129D01*
X031450Y006950D01*
X031910Y006950D01*
X031910Y006910D01*
X031450Y006910D01*
X031450Y006731D01*
X031731Y006450D01*
X031910Y006450D01*
X031910Y006910D01*
X031950Y006910D01*
X031950Y006950D01*
X032410Y006950D01*
X032410Y007129D01*
X032129Y007410D01*
X032220Y007319D02*
X032697Y007319D01*
X032748Y007370D02*
X032490Y007112D01*
X032490Y006748D01*
X032748Y006490D01*
X033112Y006490D01*
X033370Y006748D01*
X033370Y007112D01*
X033112Y007370D01*
X032748Y007370D01*
X032538Y007161D02*
X032378Y007161D01*
X032410Y007002D02*
X032490Y007002D01*
X032410Y006910D02*
X031950Y006910D01*
X031950Y006450D01*
X032129Y006450D01*
X032410Y006731D01*
X032410Y006910D01*
X032410Y006844D02*
X032490Y006844D01*
X032553Y006685D02*
X032364Y006685D01*
X032205Y006527D02*
X032711Y006527D01*
X033149Y006527D02*
X034215Y006527D01*
X034215Y006685D02*
X033307Y006685D01*
X033370Y006844D02*
X034215Y006844D01*
X034215Y007002D02*
X033370Y007002D01*
X033322Y007161D02*
X034215Y007161D01*
X034215Y007319D02*
X033163Y007319D01*
X032602Y007636D02*
X032315Y007636D01*
X032410Y007795D02*
X032490Y007795D01*
X032490Y007953D02*
X032410Y007953D01*
X032410Y007950D02*
X032410Y008129D01*
X032129Y008410D01*
X031950Y008410D01*
X031950Y007950D01*
X032410Y007950D01*
X032410Y008112D02*
X032490Y008112D01*
X032648Y008270D02*
X032269Y008270D01*
X032129Y008450D02*
X032410Y008731D01*
X032410Y008910D01*
X031950Y008910D01*
X031950Y008950D01*
X031910Y008950D01*
X031910Y009410D01*
X031731Y009410D01*
X031450Y009129D01*
X031450Y008950D01*
X031910Y008950D01*
X031910Y008910D01*
X031450Y008910D01*
X031450Y008731D01*
X031731Y008450D01*
X031910Y008450D01*
X031910Y008910D01*
X031950Y008910D01*
X031950Y008450D01*
X032129Y008450D01*
X032266Y008587D02*
X032651Y008587D01*
X032492Y008746D02*
X032410Y008746D01*
X032410Y008904D02*
X032490Y008904D01*
X032410Y008950D02*
X032410Y009129D01*
X032129Y009410D01*
X031950Y009410D01*
X031950Y008950D01*
X032410Y008950D01*
X032410Y009063D02*
X032490Y009063D01*
X032599Y009221D02*
X032318Y009221D01*
X032159Y009380D02*
X034215Y009380D01*
X034215Y009538D02*
X033160Y009538D01*
X033112Y009490D02*
X033370Y009748D01*
X033370Y010112D01*
X033112Y010370D01*
X032748Y010370D01*
X032490Y010112D01*
X032490Y009748D01*
X032748Y009490D01*
X033112Y009490D01*
X033319Y009697D02*
X034215Y009697D01*
X034215Y009855D02*
X033370Y009855D01*
X033370Y010014D02*
X034215Y010014D01*
X034215Y010172D02*
X033310Y010172D01*
X033152Y010331D02*
X034215Y010331D01*
X034215Y010489D02*
X032168Y010489D01*
X032129Y010450D02*
X032410Y010731D01*
X032410Y010910D01*
X031950Y010910D01*
X031950Y010950D01*
X031910Y010950D01*
X031910Y011410D01*
X031731Y011410D01*
X031450Y011129D01*
X031450Y010950D01*
X031910Y010950D01*
X031910Y010910D01*
X031450Y010910D01*
X031450Y010731D01*
X031731Y010450D01*
X031910Y010450D01*
X031910Y010910D01*
X031950Y010910D01*
X031950Y010450D01*
X032129Y010450D01*
X032129Y010410D02*
X031950Y010410D01*
X031950Y009950D01*
X031910Y009950D01*
X031910Y010410D01*
X031731Y010410D01*
X031450Y010129D01*
X031450Y009950D01*
X031910Y009950D01*
X031910Y009910D01*
X031450Y009910D01*
X031450Y009731D01*
X031731Y009450D01*
X031910Y009450D01*
X031910Y009910D01*
X031950Y009910D01*
X031950Y009950D01*
X032410Y009950D01*
X032410Y010129D01*
X032129Y010410D01*
X032208Y010331D02*
X032708Y010331D01*
X032748Y010490D02*
X033112Y010490D01*
X033370Y010748D01*
X033370Y011112D01*
X033112Y011370D01*
X032748Y011370D01*
X032490Y011112D01*
X032490Y010748D01*
X032748Y010490D01*
X032590Y010648D02*
X032326Y010648D01*
X032410Y010806D02*
X032490Y010806D01*
X032490Y010965D02*
X032410Y010965D01*
X032410Y010950D02*
X032410Y011129D01*
X032129Y011410D01*
X031950Y011410D01*
X031950Y010950D01*
X032410Y010950D01*
X032410Y011123D02*
X032501Y011123D01*
X032659Y011282D02*
X032257Y011282D01*
X032129Y011450D02*
X032410Y011731D01*
X032410Y011910D01*
X031950Y011910D01*
X031950Y011950D01*
X031910Y011950D01*
X031910Y012410D01*
X031731Y012410D01*
X031450Y012129D01*
X031450Y011950D01*
X031910Y011950D01*
X031910Y011910D01*
X031450Y011910D01*
X031450Y011731D01*
X031731Y011450D01*
X031910Y011450D01*
X031910Y011910D01*
X031950Y011910D01*
X031950Y011450D01*
X032129Y011450D01*
X032277Y011599D02*
X032639Y011599D01*
X032748Y011490D02*
X033112Y011490D01*
X033370Y011748D01*
X033370Y012112D01*
X033112Y012370D01*
X032748Y012370D01*
X032490Y012112D01*
X032490Y011748D01*
X032748Y011490D01*
X032490Y011757D02*
X032410Y011757D01*
X032490Y011916D02*
X031950Y011916D01*
X031950Y011950D02*
X032410Y011950D01*
X032410Y012129D01*
X032129Y012410D01*
X031950Y012410D01*
X031950Y011950D01*
X031910Y011916D02*
X031370Y011916D01*
X031370Y012074D02*
X031450Y012074D01*
X031370Y012112D02*
X031370Y011748D01*
X031112Y011490D01*
X030801Y011490D01*
X030021Y010710D01*
X024589Y010710D01*
X024460Y010839D01*
X024210Y011089D01*
X024210Y011828D01*
X024203Y011831D01*
X024091Y011943D01*
X024030Y012090D01*
X024030Y012770D01*
X024091Y012917D01*
X024203Y013029D01*
X024350Y013090D01*
X024510Y013090D01*
X024657Y013029D01*
X024769Y012917D01*
X024830Y012770D01*
X024830Y012090D01*
X024769Y011943D01*
X024657Y011831D01*
X024650Y011828D01*
X024650Y011271D01*
X024771Y011150D01*
X029839Y011150D01*
X030490Y011801D01*
X030490Y012112D01*
X030748Y012370D01*
X031112Y012370D01*
X031370Y012112D01*
X031250Y012233D02*
X031554Y012233D01*
X031712Y012391D02*
X024830Y012391D01*
X024830Y012233D02*
X030610Y012233D01*
X030490Y012074D02*
X024823Y012074D01*
X024741Y011916D02*
X030490Y011916D01*
X030446Y011757D02*
X024650Y011757D01*
X024650Y011599D02*
X030287Y011599D01*
X030129Y011440D02*
X024650Y011440D01*
X024650Y011282D02*
X029970Y011282D01*
X029930Y010930D02*
X030930Y011930D01*
X031370Y011757D02*
X031450Y011757D01*
X031583Y011599D02*
X031221Y011599D01*
X031112Y011370D02*
X030748Y011370D01*
X030490Y011112D01*
X030490Y010801D01*
X030339Y010650D01*
X023771Y010650D01*
X023650Y010771D01*
X023650Y011828D01*
X023657Y011831D01*
X023769Y011943D01*
X023830Y012090D01*
X023830Y012770D01*
X023769Y012917D01*
X023657Y013029D01*
X023510Y013090D01*
X023350Y013090D01*
X023203Y013029D01*
X023091Y012917D01*
X023030Y012770D01*
X023030Y012090D01*
X023091Y011943D01*
X023203Y011831D01*
X023210Y011828D01*
X023210Y010589D01*
X023460Y010339D01*
X023589Y010210D01*
X030521Y010210D01*
X030801Y010490D01*
X031112Y010490D01*
X031370Y010748D01*
X031370Y011112D01*
X031112Y011370D01*
X031201Y011282D02*
X031603Y011282D01*
X031450Y011123D02*
X031359Y011123D01*
X031370Y010965D02*
X031450Y010965D01*
X031450Y010806D02*
X031370Y010806D01*
X031270Y010648D02*
X031534Y010648D01*
X031692Y010489D02*
X030800Y010489D01*
X030748Y010370D02*
X030528Y010150D01*
X023021Y010150D01*
X022650Y010521D01*
X022650Y011828D01*
X022657Y011831D01*
X022769Y011943D01*
X022830Y012090D01*
X022830Y012770D01*
X022769Y012917D01*
X022657Y013029D01*
X022510Y013090D01*
X022350Y013090D01*
X022203Y013029D01*
X022091Y012917D01*
X022030Y012770D01*
X022030Y012090D01*
X022091Y011943D01*
X022203Y011831D01*
X022210Y011828D01*
X022210Y010339D01*
X022710Y009839D01*
X022839Y009710D01*
X030528Y009710D01*
X030748Y009490D01*
X031112Y009490D01*
X031370Y009748D01*
X031370Y010112D01*
X031112Y010370D01*
X030748Y010370D01*
X030708Y010331D02*
X030642Y010331D01*
X030550Y010172D02*
X022999Y010172D01*
X022841Y010331D02*
X023468Y010331D01*
X023310Y010489D02*
X022682Y010489D01*
X022650Y010648D02*
X023210Y010648D01*
X023210Y010806D02*
X022650Y010806D01*
X022650Y010965D02*
X023210Y010965D01*
X023210Y011123D02*
X022650Y011123D01*
X022650Y011282D02*
X023210Y011282D01*
X023210Y011440D02*
X022650Y011440D01*
X022650Y011599D02*
X023210Y011599D01*
X023210Y011757D02*
X022650Y011757D01*
X022741Y011916D02*
X023119Y011916D01*
X023037Y012074D02*
X022823Y012074D01*
X022830Y012233D02*
X023030Y012233D01*
X023030Y012391D02*
X022830Y012391D01*
X022830Y012550D02*
X023030Y012550D01*
X023030Y012708D02*
X022830Y012708D01*
X022790Y012867D02*
X023070Y012867D01*
X023199Y013025D02*
X022661Y013025D01*
X022359Y013342D02*
X028139Y013342D01*
X028109Y013501D02*
X022935Y013501D01*
X023103Y013659D02*
X028109Y013659D01*
X028109Y013818D02*
X023168Y013818D01*
X023174Y013976D02*
X028109Y013976D01*
X028109Y014135D02*
X023130Y014135D01*
X023016Y014293D02*
X028109Y014293D01*
X028109Y014452D02*
X022389Y014452D01*
X022389Y013501D02*
X022425Y013501D01*
X022199Y013025D02*
X021661Y013025D01*
X021790Y012867D02*
X022070Y012867D01*
X022030Y012708D02*
X021830Y012708D01*
X021830Y012550D02*
X022030Y012550D01*
X022030Y012391D02*
X021830Y012391D01*
X021830Y012233D02*
X022030Y012233D01*
X022037Y012074D02*
X021823Y012074D01*
X021741Y011916D02*
X022119Y011916D01*
X022210Y011757D02*
X021650Y011757D01*
X021650Y011599D02*
X022210Y011599D01*
X022210Y011440D02*
X021650Y011440D01*
X021650Y011282D02*
X022210Y011282D01*
X022210Y011123D02*
X021650Y011123D01*
X021650Y010965D02*
X022210Y010965D01*
X022210Y010806D02*
X021650Y010806D01*
X021774Y010648D02*
X022210Y010648D01*
X022210Y010489D02*
X021932Y010489D01*
X022091Y010331D02*
X022218Y010331D01*
X022249Y010172D02*
X022377Y010172D01*
X022408Y010014D02*
X022535Y010014D01*
X022566Y009855D02*
X022694Y009855D01*
X022725Y009697D02*
X030541Y009697D01*
X030633Y009538D02*
X030700Y009538D01*
X030792Y009380D02*
X031701Y009380D01*
X031643Y009538D02*
X031160Y009538D01*
X031319Y009697D02*
X031485Y009697D01*
X031450Y009855D02*
X031370Y009855D01*
X031370Y010014D02*
X031450Y010014D01*
X031493Y010172D02*
X031310Y010172D01*
X031152Y010331D02*
X031652Y010331D01*
X031910Y010331D02*
X031950Y010331D01*
X031950Y010489D02*
X031910Y010489D01*
X031910Y010648D02*
X031950Y010648D01*
X031950Y010806D02*
X031910Y010806D01*
X031910Y010965D02*
X031950Y010965D01*
X031950Y011123D02*
X031910Y011123D01*
X031910Y011282D02*
X031950Y011282D01*
X031950Y011599D02*
X031910Y011599D01*
X031910Y011757D02*
X031950Y011757D01*
X031950Y012074D02*
X031910Y012074D01*
X031910Y012233D02*
X031950Y012233D01*
X031950Y012391D02*
X031910Y012391D01*
X032148Y012391D02*
X034215Y012391D01*
X034215Y012233D02*
X033250Y012233D01*
X033370Y012074D02*
X034215Y012074D01*
X034215Y011916D02*
X033370Y011916D01*
X033370Y011757D02*
X034215Y011757D01*
X034215Y011599D02*
X033221Y011599D01*
X033201Y011282D02*
X034215Y011282D01*
X034215Y011440D02*
X030751Y011440D01*
X030659Y011282D02*
X030593Y011282D01*
X030501Y011123D02*
X030434Y011123D01*
X030490Y010965D02*
X030276Y010965D01*
X030117Y010806D02*
X030490Y010806D01*
X030430Y010430D02*
X030930Y010930D01*
X030430Y010430D02*
X023680Y010430D01*
X023430Y010680D01*
X023430Y012430D01*
X023830Y012391D02*
X024030Y012391D01*
X024030Y012233D02*
X023830Y012233D01*
X023823Y012074D02*
X024037Y012074D01*
X024119Y011916D02*
X023741Y011916D01*
X023650Y011757D02*
X024210Y011757D01*
X024210Y011599D02*
X023650Y011599D01*
X023650Y011440D02*
X024210Y011440D01*
X024210Y011282D02*
X023650Y011282D01*
X023650Y011123D02*
X024210Y011123D01*
X024334Y010965D02*
X023650Y010965D01*
X023650Y010806D02*
X024493Y010806D01*
X024680Y010930D02*
X029930Y010930D01*
X030930Y009930D02*
X022930Y009930D01*
X022430Y010430D01*
X022430Y012430D01*
X021430Y012430D02*
X021430Y010680D01*
X022680Y009430D01*
X030430Y009430D01*
X030930Y008930D01*
X031370Y008904D02*
X031450Y008904D01*
X031450Y008746D02*
X031368Y008746D01*
X031209Y008587D02*
X031594Y008587D01*
X031910Y008587D02*
X031950Y008587D01*
X031950Y008746D02*
X031910Y008746D01*
X031910Y008904D02*
X031950Y008904D01*
X031950Y009063D02*
X031910Y009063D01*
X031910Y009221D02*
X031950Y009221D01*
X031950Y009380D02*
X031910Y009380D01*
X031950Y009450D02*
X032129Y009450D01*
X032410Y009731D01*
X032410Y009910D01*
X031950Y009910D01*
X031950Y009450D01*
X031950Y009538D02*
X031910Y009538D01*
X031910Y009697D02*
X031950Y009697D01*
X031950Y009855D02*
X031910Y009855D01*
X031910Y010014D02*
X031950Y010014D01*
X031950Y010172D02*
X031910Y010172D01*
X032367Y010172D02*
X032550Y010172D01*
X032490Y010014D02*
X032410Y010014D01*
X032410Y009855D02*
X032490Y009855D01*
X032541Y009697D02*
X032375Y009697D01*
X032217Y009538D02*
X032700Y009538D01*
X033261Y009221D02*
X034215Y009221D01*
X034215Y009063D02*
X033370Y009063D01*
X033370Y008904D02*
X034215Y008904D01*
X034215Y008746D02*
X033368Y008746D01*
X031950Y008270D02*
X031910Y008270D01*
X031910Y008112D02*
X031950Y008112D01*
X031950Y007953D02*
X031910Y007953D01*
X031910Y007795D02*
X031950Y007795D01*
X031950Y007636D02*
X031910Y007636D01*
X031910Y007478D02*
X031950Y007478D01*
X031950Y007319D02*
X031910Y007319D01*
X031910Y007161D02*
X031950Y007161D01*
X031950Y007002D02*
X031910Y007002D01*
X031910Y006844D02*
X031950Y006844D01*
X031950Y006685D02*
X031910Y006685D01*
X031910Y006527D02*
X031950Y006527D01*
X031655Y006527D02*
X031149Y006527D01*
X031112Y006490D02*
X031370Y006748D01*
X031370Y007112D01*
X031112Y007370D01*
X030748Y007370D01*
X030490Y007112D01*
X030490Y006748D01*
X030748Y006490D01*
X031112Y006490D01*
X031307Y006685D02*
X031496Y006685D01*
X031450Y006844D02*
X031370Y006844D01*
X031370Y007002D02*
X031450Y007002D01*
X031482Y007161D02*
X031322Y007161D01*
X031163Y007319D02*
X031640Y007319D01*
X030697Y007319D02*
X017352Y007319D01*
X017511Y007161D02*
X028182Y007161D01*
X028189Y007163D02*
X028115Y007139D01*
X028046Y007103D01*
X027983Y007058D01*
X027927Y007002D01*
X027626Y007002D01*
X027493Y007135D02*
X027117Y007135D01*
X026850Y006868D01*
X026850Y006492D01*
X027117Y006225D01*
X027493Y006225D01*
X027760Y006492D01*
X027760Y006868D01*
X027493Y007135D01*
X027760Y006844D02*
X027838Y006844D01*
X027846Y006870D02*
X027822Y006796D01*
X027810Y006719D01*
X027810Y006680D01*
X028305Y006680D01*
X028800Y006680D01*
X028800Y006719D01*
X028788Y006796D01*
X028764Y006870D01*
X028728Y006939D01*
X028683Y007002D01*
X030490Y007002D01*
X030490Y006844D02*
X028772Y006844D01*
X028800Y006685D02*
X030553Y006685D01*
X030711Y006527D02*
X028776Y006527D01*
X028764Y006490D02*
X028788Y006564D01*
X028800Y006641D01*
X028800Y006680D01*
X028305Y006680D01*
X028305Y006680D01*
X028305Y006680D01*
X028305Y007175D01*
X028344Y007175D01*
X028421Y007163D01*
X028495Y007139D01*
X028564Y007103D01*
X028627Y007058D01*
X028683Y007002D01*
X028428Y007161D02*
X030538Y007161D01*
X031370Y008112D02*
X031450Y008112D01*
X031591Y008270D02*
X031212Y008270D01*
X031370Y009063D02*
X031450Y009063D01*
X031542Y009221D02*
X031261Y009221D01*
X033270Y010648D02*
X034215Y010648D01*
X034215Y010806D02*
X033370Y010806D01*
X033370Y010965D02*
X034215Y010965D01*
X034215Y011123D02*
X033359Y011123D01*
X032490Y012074D02*
X032410Y012074D01*
X032306Y012233D02*
X032610Y012233D01*
X034215Y012550D02*
X024830Y012550D01*
X024830Y012708D02*
X034215Y012708D01*
X034215Y012867D02*
X024790Y012867D01*
X024661Y013025D02*
X034215Y013025D01*
X028305Y007175D02*
X028266Y007175D01*
X028189Y007163D01*
X028305Y007161D02*
X028305Y007161D01*
X028305Y007175D02*
X028305Y006680D01*
X028305Y006185D01*
X028344Y006185D01*
X028421Y006197D01*
X028495Y006221D01*
X028564Y006257D01*
X028627Y006302D01*
X028683Y006358D01*
X028728Y006421D01*
X028764Y006490D01*
X028690Y006368D02*
X034215Y006368D01*
X034215Y006210D02*
X028459Y006210D01*
X028305Y006210D02*
X028305Y006210D01*
X028305Y006185D02*
X028305Y006680D01*
X028305Y006680D01*
X028305Y006680D01*
X027810Y006680D01*
X027810Y006641D01*
X027822Y006564D01*
X027846Y006490D01*
X027882Y006421D01*
X027927Y006358D01*
X027983Y006302D01*
X028046Y006257D01*
X028115Y006221D01*
X028189Y006197D01*
X028266Y006185D01*
X028305Y006185D01*
X028151Y006210D02*
X024830Y006210D01*
X024830Y006090D02*
X024769Y005943D01*
X024657Y005831D01*
X024650Y005828D01*
X024650Y004832D01*
X024870Y004612D01*
X024870Y004248D01*
X024612Y003990D01*
X024248Y003990D01*
X023990Y004248D01*
X023990Y004612D01*
X024210Y004832D01*
X024210Y005828D01*
X024203Y005831D01*
X024091Y005943D01*
X024030Y006090D01*
X024030Y006770D01*
X024091Y006917D01*
X024203Y007029D01*
X024350Y007090D01*
X024510Y007090D01*
X024657Y007029D01*
X024769Y006917D01*
X024830Y006770D01*
X024830Y006090D01*
X024814Y006051D02*
X034215Y006051D01*
X034215Y005893D02*
X024718Y005893D01*
X024650Y005734D02*
X034215Y005734D01*
X034215Y005576D02*
X024650Y005576D01*
X024650Y005417D02*
X034215Y005417D01*
X034215Y005259D02*
X024650Y005259D01*
X024650Y005100D02*
X031927Y005100D01*
X031928Y005101D02*
X031634Y004931D01*
X031394Y004691D01*
X031224Y004396D01*
X031136Y004068D01*
X031136Y003729D01*
X031224Y003401D01*
X031394Y003106D01*
X031634Y002866D01*
X031928Y002696D01*
X032256Y002609D01*
X032596Y002609D01*
X032924Y002696D01*
X033218Y002866D01*
X033458Y003106D01*
X033628Y003401D01*
X033716Y003729D01*
X033716Y004068D01*
X033628Y004396D01*
X033458Y004691D01*
X033218Y004931D01*
X032924Y005101D01*
X032596Y005189D01*
X032256Y005189D01*
X031928Y005101D01*
X031653Y004942D02*
X024650Y004942D01*
X024699Y004783D02*
X031486Y004783D01*
X031356Y004625D02*
X024858Y004625D01*
X024870Y004466D02*
X031264Y004466D01*
X031200Y004308D02*
X024870Y004308D01*
X024771Y004149D02*
X031158Y004149D01*
X031136Y003991D02*
X024613Y003991D01*
X024629Y003910D02*
X024450Y003910D01*
X024450Y003450D01*
X024910Y003450D01*
X024910Y003629D01*
X024629Y003910D01*
X024707Y003832D02*
X031136Y003832D01*
X031151Y003674D02*
X024865Y003674D01*
X024910Y003515D02*
X031193Y003515D01*
X031249Y003357D02*
X024910Y003357D01*
X024910Y003410D02*
X024910Y003231D01*
X024629Y002950D01*
X024450Y002950D01*
X024450Y003410D01*
X024450Y003450D01*
X024410Y003450D01*
X024410Y003910D01*
X024231Y003910D01*
X023950Y003629D01*
X023950Y003450D01*
X024410Y003450D01*
X024410Y003410D01*
X024450Y003410D01*
X024910Y003410D01*
X024877Y003198D02*
X031341Y003198D01*
X031461Y003040D02*
X024718Y003040D01*
X024450Y003040D02*
X024410Y003040D01*
X024410Y002950D02*
X024410Y003410D01*
X023950Y003410D01*
X023950Y003231D01*
X024231Y002950D01*
X024410Y002950D01*
X024410Y003198D02*
X024450Y003198D01*
X024450Y003357D02*
X024410Y003357D01*
X024410Y003515D02*
X024450Y003515D01*
X024450Y003674D02*
X024410Y003674D01*
X024410Y003832D02*
X024450Y003832D01*
X024247Y003991D02*
X023613Y003991D01*
X023612Y003990D02*
X023870Y004248D01*
X023870Y004612D01*
X023650Y004832D01*
X023650Y005828D01*
X023657Y005831D01*
X023769Y005943D01*
X023830Y006090D01*
X023830Y006770D01*
X023769Y006917D01*
X023657Y007029D01*
X023510Y007090D01*
X023350Y007090D01*
X023203Y007029D01*
X023091Y006917D01*
X023030Y006770D01*
X023030Y006090D01*
X023091Y005943D01*
X023203Y005831D01*
X023210Y005828D01*
X023210Y004832D01*
X022990Y004612D01*
X022990Y004248D01*
X023248Y003990D01*
X023612Y003990D01*
X023629Y003910D02*
X023450Y003910D01*
X023450Y003450D01*
X023910Y003450D01*
X023910Y003629D01*
X023629Y003910D01*
X023707Y003832D02*
X024153Y003832D01*
X023995Y003674D02*
X023865Y003674D01*
X023910Y003515D02*
X023950Y003515D01*
X023910Y003410D02*
X023450Y003410D01*
X023450Y003450D01*
X023410Y003450D01*
X023410Y003910D01*
X023231Y003910D01*
X022950Y003629D01*
X022950Y003450D01*
X023410Y003450D01*
X023410Y003410D01*
X023450Y003410D01*
X023450Y002950D01*
X023629Y002950D01*
X023910Y003231D01*
X023910Y003410D01*
X023910Y003357D02*
X023950Y003357D01*
X023983Y003198D02*
X023877Y003198D01*
X023718Y003040D02*
X024142Y003040D01*
X024100Y002723D02*
X023760Y002723D01*
X023870Y002564D02*
X023990Y002564D01*
X023990Y002406D02*
X023870Y002406D01*
X023869Y002247D02*
X023991Y002247D01*
X024760Y002723D02*
X031883Y002723D01*
X031619Y002881D02*
X003705Y002881D01*
X003691Y002866D02*
X003931Y003106D01*
X004101Y003401D01*
X004189Y003729D01*
X004189Y004068D01*
X004101Y004396D01*
X003931Y004691D01*
X003691Y004931D01*
X003396Y005101D01*
X003068Y005189D01*
X002729Y005189D01*
X002401Y005101D01*
X002106Y004931D01*
X001866Y004691D01*
X001696Y004396D01*
X001609Y004068D01*
X001609Y003729D01*
X001696Y003401D01*
X001866Y003106D01*
X002106Y002866D01*
X002401Y002696D01*
X002729Y002609D01*
X003068Y002609D01*
X003396Y002696D01*
X003691Y002866D01*
X003864Y003040D02*
X005142Y003040D01*
X005231Y002950D02*
X005410Y002950D01*
X005410Y003410D01*
X005450Y003410D01*
X005450Y003450D01*
X005910Y003450D01*
X005910Y003629D01*
X005629Y003910D01*
X005450Y003910D01*
X005450Y003450D01*
X005410Y003450D01*
X005410Y003910D01*
X005231Y003910D01*
X004950Y003629D01*
X004950Y003450D01*
X005410Y003450D01*
X005410Y003410D01*
X004950Y003410D01*
X004950Y003231D01*
X005231Y002950D01*
X005410Y003040D02*
X005450Y003040D01*
X005450Y002950D02*
X005629Y002950D01*
X005910Y003231D01*
X005910Y003410D01*
X005450Y003410D01*
X005450Y002950D01*
X005450Y003198D02*
X005410Y003198D01*
X005410Y003357D02*
X005450Y003357D01*
X005450Y003515D02*
X005410Y003515D01*
X005410Y003674D02*
X005450Y003674D01*
X005450Y003832D02*
X005410Y003832D01*
X005248Y003990D02*
X005612Y003990D01*
X005870Y004248D01*
X005870Y004612D01*
X005650Y004832D01*
X005650Y005828D01*
X005657Y005831D01*
X005769Y005943D01*
X005830Y006090D01*
X005830Y006770D01*
X005769Y006917D01*
X005657Y007029D01*
X005510Y007090D01*
X005350Y007090D01*
X005203Y007029D01*
X005091Y006917D01*
X005030Y006770D01*
X005030Y006090D01*
X005091Y005943D01*
X005203Y005831D01*
X005210Y005828D01*
X005210Y004832D01*
X004990Y004612D01*
X004990Y004248D01*
X005248Y003990D01*
X005247Y003991D02*
X004189Y003991D01*
X004189Y003832D02*
X005153Y003832D01*
X004995Y003674D02*
X004174Y003674D01*
X004131Y003515D02*
X004950Y003515D01*
X004950Y003357D02*
X004075Y003357D01*
X003984Y003198D02*
X004983Y003198D01*
X005100Y002723D02*
X003442Y002723D01*
X002355Y002723D02*
X001567Y002723D01*
X001438Y002881D02*
X002092Y002881D01*
X001933Y003040D02*
X001347Y003040D01*
X001255Y003198D02*
X001813Y003198D01*
X001722Y003357D02*
X001208Y003357D01*
X001166Y003515D02*
X001666Y003515D01*
X001623Y003674D02*
X001125Y003674D01*
X001114Y003832D02*
X001609Y003832D01*
X001609Y003991D02*
X001110Y003991D01*
X001110Y004149D02*
X001630Y004149D01*
X001673Y004308D02*
X001110Y004308D01*
X001110Y004466D02*
X001737Y004466D01*
X001828Y004625D02*
X001110Y004625D01*
X001110Y004783D02*
X001959Y004783D01*
X002125Y004942D02*
X001110Y004942D01*
X001110Y005100D02*
X002400Y005100D01*
X002764Y005780D02*
X003096Y005780D01*
X003276Y005960D01*
X003584Y005960D01*
X003764Y005780D01*
X004096Y005780D01*
X004330Y006014D01*
X004330Y006346D01*
X004096Y006580D01*
X003764Y006580D01*
X003584Y006400D01*
X003276Y006400D01*
X003096Y006580D01*
X002764Y006580D01*
X002530Y006346D01*
X002530Y006014D01*
X002764Y005780D01*
X002652Y005893D02*
X001110Y005893D01*
X001110Y006051D02*
X002530Y006051D01*
X002530Y006210D02*
X001110Y006210D01*
X001110Y006368D02*
X002552Y006368D01*
X002711Y006527D02*
X001110Y006527D01*
X001110Y006685D02*
X005030Y006685D01*
X005030Y006527D02*
X004149Y006527D01*
X004112Y006740D02*
X003930Y006740D01*
X003930Y007180D01*
X003930Y007180D01*
X003930Y007620D01*
X004112Y007620D01*
X004370Y007362D01*
X004370Y007180D01*
X003930Y007180D01*
X003930Y007180D01*
X003930Y007180D01*
X003490Y007180D01*
X003490Y007362D01*
X003748Y007620D01*
X003930Y007620D01*
X003930Y007180D01*
X004370Y007180D01*
X004370Y006998D01*
X004112Y006740D01*
X004216Y006844D02*
X005061Y006844D01*
X005176Y007002D02*
X004370Y007002D01*
X004370Y007161D02*
X016888Y007161D01*
X016740Y007002D02*
X017047Y007002D01*
X017061Y006844D02*
X016843Y006844D01*
X016838Y006859D02*
X016806Y006921D01*
X016766Y006977D01*
X016717Y007026D01*
X016661Y007066D01*
X016599Y007098D01*
X016533Y007119D01*
X016465Y007130D01*
X016430Y007130D01*
X016430Y006430D01*
X016430Y006430D01*
X016870Y006430D01*
X016870Y006725D01*
X016859Y006793D01*
X016838Y006859D01*
X016870Y006685D02*
X017030Y006685D01*
X017030Y006527D02*
X016870Y006527D01*
X016870Y006430D02*
X016430Y006430D01*
X016430Y006430D01*
X016430Y006430D01*
X015990Y006430D01*
X015990Y006725D01*
X016001Y006793D01*
X016022Y006859D01*
X016054Y006921D01*
X016094Y006977D01*
X016143Y007026D01*
X016199Y007066D01*
X016261Y007098D01*
X016327Y007119D01*
X016395Y007130D01*
X016430Y007130D01*
X016430Y006430D01*
X016430Y005730D01*
X016465Y005730D01*
X016533Y005741D01*
X016599Y005762D01*
X016661Y005794D01*
X016717Y005834D01*
X016766Y005883D01*
X016806Y005939D01*
X016838Y006001D01*
X016859Y006067D01*
X016870Y006135D01*
X016870Y006430D01*
X016870Y006368D02*
X017030Y006368D01*
X017030Y006210D02*
X016870Y006210D01*
X016854Y006051D02*
X017046Y006051D01*
X017142Y005893D02*
X016772Y005893D01*
X016490Y005734D02*
X018210Y005734D01*
X018210Y005828D02*
X018210Y005521D01*
X017559Y004870D01*
X017248Y004870D01*
X016990Y004612D01*
X016990Y004248D01*
X017248Y003990D01*
X017612Y003990D01*
X017870Y004248D01*
X017870Y004559D01*
X018650Y005339D01*
X018650Y005828D01*
X018657Y005831D01*
X018769Y005943D01*
X018830Y006090D01*
X018830Y006770D01*
X018769Y006917D01*
X018657Y007029D01*
X018510Y007090D01*
X018350Y007090D01*
X018203Y007029D01*
X018091Y006917D01*
X018030Y006770D01*
X018030Y006090D01*
X018091Y005943D01*
X018203Y005831D01*
X018210Y005828D01*
X018142Y005893D02*
X017718Y005893D01*
X017814Y006051D02*
X018046Y006051D01*
X018030Y006210D02*
X017830Y006210D01*
X017830Y006368D02*
X018030Y006368D01*
X018030Y006527D02*
X017830Y006527D01*
X017830Y006685D02*
X018030Y006685D01*
X018061Y006844D02*
X017799Y006844D01*
X017684Y007002D02*
X018176Y007002D01*
X018684Y007002D02*
X019176Y007002D01*
X019203Y007029D02*
X019091Y006917D01*
X019030Y006770D01*
X019030Y006090D01*
X019091Y005943D01*
X019203Y005831D01*
X019210Y005828D01*
X019210Y004832D01*
X018990Y004612D01*
X018990Y004248D01*
X019248Y003990D01*
X019612Y003990D01*
X019870Y004248D01*
X019870Y004612D01*
X019650Y004832D01*
X019650Y005828D01*
X019657Y005831D01*
X019769Y005943D01*
X019830Y006090D01*
X019830Y006770D01*
X019769Y006917D01*
X019657Y007029D01*
X019510Y007090D01*
X019350Y007090D01*
X019203Y007029D01*
X019061Y006844D02*
X018799Y006844D01*
X018830Y006685D02*
X019030Y006685D01*
X019030Y006527D02*
X018830Y006527D01*
X018830Y006368D02*
X019030Y006368D01*
X019030Y006210D02*
X018830Y006210D01*
X018814Y006051D02*
X019046Y006051D01*
X019142Y005893D02*
X018718Y005893D01*
X018650Y005734D02*
X019210Y005734D01*
X019210Y005576D02*
X018650Y005576D01*
X018650Y005417D02*
X019210Y005417D01*
X019210Y005259D02*
X018570Y005259D01*
X018430Y005430D02*
X017430Y004430D01*
X017870Y004466D02*
X018990Y004466D01*
X018990Y004308D02*
X017870Y004308D01*
X017771Y004149D02*
X019089Y004149D01*
X019247Y003991D02*
X017613Y003991D01*
X017629Y003910D02*
X017450Y003910D01*
X017450Y003450D01*
X017910Y003450D01*
X017910Y003629D01*
X017629Y003910D01*
X017707Y003832D02*
X019153Y003832D01*
X019231Y003910D02*
X018950Y003629D01*
X018950Y003450D01*
X019410Y003450D01*
X019410Y003910D01*
X019231Y003910D01*
X019410Y003832D02*
X019450Y003832D01*
X019450Y003910D02*
X019450Y003450D01*
X019910Y003450D01*
X019910Y003629D01*
X019629Y003910D01*
X019450Y003910D01*
X019613Y003991D02*
X020247Y003991D01*
X020248Y003990D02*
X020612Y003990D01*
X020870Y004248D01*
X020870Y004612D01*
X020650Y004832D01*
X020650Y005828D01*
X020657Y005831D01*
X020769Y005943D01*
X020830Y006090D01*
X020830Y006770D01*
X020769Y006917D01*
X020657Y007029D01*
X020510Y007090D01*
X020350Y007090D01*
X020203Y007029D01*
X020091Y006917D01*
X020030Y006770D01*
X020030Y006090D01*
X020091Y005943D01*
X020203Y005831D01*
X020210Y005828D01*
X020210Y004832D01*
X019990Y004612D01*
X019990Y004248D01*
X020248Y003990D01*
X020231Y003910D02*
X019950Y003629D01*
X019950Y003450D01*
X020410Y003450D01*
X020410Y003910D01*
X020231Y003910D01*
X020153Y003832D02*
X019707Y003832D01*
X019865Y003674D02*
X019995Y003674D01*
X019950Y003515D02*
X019910Y003515D01*
X019910Y003410D02*
X019450Y003410D01*
X019450Y003450D01*
X019410Y003450D01*
X019410Y003410D01*
X019450Y003410D01*
X019450Y002950D01*
X019629Y002950D01*
X019910Y003231D01*
X019910Y003410D01*
X019950Y003410D02*
X019950Y003231D01*
X020231Y002950D01*
X020410Y002950D01*
X020410Y003410D01*
X020450Y003410D01*
X020450Y003450D01*
X020910Y003450D01*
X020910Y003629D01*
X020629Y003910D01*
X020450Y003910D01*
X020450Y003450D01*
X020410Y003450D01*
X020410Y003410D01*
X019950Y003410D01*
X019950Y003357D02*
X019910Y003357D01*
X019877Y003198D02*
X019983Y003198D01*
X020142Y003040D02*
X019718Y003040D01*
X019450Y003040D02*
X019410Y003040D01*
X019410Y002950D02*
X019410Y003410D01*
X018950Y003410D01*
X018950Y003231D01*
X019231Y002950D01*
X019410Y002950D01*
X019410Y003198D02*
X019450Y003198D01*
X019450Y003357D02*
X019410Y003357D01*
X019410Y003515D02*
X019450Y003515D01*
X019450Y003674D02*
X019410Y003674D01*
X018995Y003674D02*
X017865Y003674D01*
X017910Y003515D02*
X018950Y003515D01*
X018950Y003357D02*
X017910Y003357D01*
X017910Y003410D02*
X017910Y003231D01*
X017629Y002950D01*
X017450Y002950D01*
X017450Y003410D01*
X017450Y003450D01*
X017410Y003450D01*
X017410Y003910D01*
X017231Y003910D01*
X016950Y003629D01*
X016950Y003450D01*
X017410Y003450D01*
X017410Y003410D01*
X017450Y003410D01*
X017910Y003410D01*
X017877Y003198D02*
X018983Y003198D01*
X019142Y003040D02*
X017718Y003040D01*
X017450Y003040D02*
X017410Y003040D01*
X017410Y002950D02*
X017410Y003410D01*
X016950Y003410D01*
X016950Y003231D01*
X017231Y002950D01*
X017410Y002950D01*
X017410Y003198D02*
X017450Y003198D01*
X017450Y003357D02*
X017410Y003357D01*
X017410Y003515D02*
X017450Y003515D01*
X017450Y003674D02*
X017410Y003674D01*
X017410Y003832D02*
X017450Y003832D01*
X017247Y003991D02*
X016613Y003991D01*
X016612Y003990D02*
X016870Y004248D01*
X016870Y004612D01*
X016612Y004870D01*
X016248Y004870D01*
X015990Y004612D01*
X015990Y004248D01*
X016248Y003990D01*
X016612Y003990D01*
X016629Y003910D02*
X016450Y003910D01*
X016450Y003450D01*
X016910Y003450D01*
X016910Y003629D01*
X016629Y003910D01*
X016707Y003832D02*
X017153Y003832D01*
X016995Y003674D02*
X016865Y003674D01*
X016910Y003515D02*
X016950Y003515D01*
X016910Y003410D02*
X016450Y003410D01*
X016450Y003450D01*
X016410Y003450D01*
X016410Y003910D01*
X016231Y003910D01*
X015950Y003629D01*
X015950Y003450D01*
X016410Y003450D01*
X016410Y003410D01*
X016450Y003410D01*
X016450Y002950D01*
X016629Y002950D01*
X016910Y003231D01*
X016910Y003410D01*
X016910Y003357D02*
X016950Y003357D01*
X016983Y003198D02*
X016877Y003198D01*
X016718Y003040D02*
X017142Y003040D01*
X017100Y002723D02*
X016760Y002723D01*
X016870Y002564D02*
X016990Y002564D01*
X016990Y002406D02*
X016870Y002406D01*
X016869Y002247D02*
X016991Y002247D01*
X017869Y002247D02*
X018991Y002247D01*
X018990Y002406D02*
X017870Y002406D01*
X017870Y002564D02*
X018990Y002564D01*
X019100Y002723D02*
X017760Y002723D01*
X016450Y003040D02*
X016410Y003040D01*
X016410Y002950D02*
X016410Y003410D01*
X015950Y003410D01*
X015950Y003231D01*
X016231Y002950D01*
X016410Y002950D01*
X016410Y003198D02*
X016450Y003198D01*
X016450Y003357D02*
X016410Y003357D01*
X016410Y003515D02*
X016450Y003515D01*
X016450Y003674D02*
X016410Y003674D01*
X016410Y003832D02*
X016450Y003832D01*
X016247Y003991D02*
X015613Y003991D01*
X015612Y003990D02*
X015870Y004248D01*
X015870Y004612D01*
X015612Y004870D01*
X015248Y004870D01*
X014990Y004612D01*
X014990Y004248D01*
X015248Y003990D01*
X015612Y003990D01*
X015629Y003910D02*
X015450Y003910D01*
X015450Y003450D01*
X015910Y003450D01*
X015910Y003629D01*
X015629Y003910D01*
X015707Y003832D02*
X016153Y003832D01*
X015995Y003674D02*
X015865Y003674D01*
X015910Y003515D02*
X015950Y003515D01*
X015910Y003410D02*
X015450Y003410D01*
X015450Y003450D01*
X015410Y003450D01*
X015410Y003910D01*
X015231Y003910D01*
X014950Y003629D01*
X014950Y003450D01*
X015410Y003450D01*
X015410Y003410D01*
X015450Y003410D01*
X015450Y002950D01*
X015629Y002950D01*
X015910Y003231D01*
X015910Y003410D01*
X015910Y003357D02*
X015950Y003357D01*
X015983Y003198D02*
X015877Y003198D01*
X015718Y003040D02*
X016142Y003040D01*
X016100Y002723D02*
X015760Y002723D01*
X015870Y002564D02*
X015990Y002564D01*
X015990Y002406D02*
X015870Y002406D01*
X015869Y002247D02*
X015991Y002247D01*
X014991Y002247D02*
X014869Y002247D01*
X014870Y002406D02*
X014990Y002406D01*
X014990Y002564D02*
X014870Y002564D01*
X014760Y002723D02*
X015100Y002723D01*
X015231Y002950D02*
X015410Y002950D01*
X015410Y003410D01*
X014950Y003410D01*
X014950Y003231D01*
X015231Y002950D01*
X015142Y003040D02*
X014718Y003040D01*
X014629Y002950D02*
X014910Y003231D01*
X014910Y003410D01*
X014450Y003410D01*
X014450Y003450D01*
X014910Y003450D01*
X014910Y003629D01*
X014629Y003910D01*
X014450Y003910D01*
X014450Y003450D01*
X014410Y003450D01*
X014410Y003910D01*
X014231Y003910D01*
X013950Y003629D01*
X013950Y003450D01*
X014410Y003450D01*
X014410Y003410D01*
X014450Y003410D01*
X014450Y002950D01*
X014629Y002950D01*
X014450Y003040D02*
X014410Y003040D01*
X014410Y002950D02*
X014410Y003410D01*
X013950Y003410D01*
X013950Y003231D01*
X014231Y002950D01*
X014410Y002950D01*
X014410Y003198D02*
X014450Y003198D01*
X014450Y003357D02*
X014410Y003357D01*
X014410Y003515D02*
X014450Y003515D01*
X014450Y003674D02*
X014410Y003674D01*
X014410Y003832D02*
X014450Y003832D01*
X014612Y003990D02*
X014248Y003990D01*
X013990Y004248D01*
X013990Y004612D01*
X014248Y004870D01*
X014612Y004870D01*
X014870Y004612D01*
X014870Y004248D01*
X014612Y003990D01*
X014613Y003991D02*
X015247Y003991D01*
X015153Y003832D02*
X014707Y003832D01*
X014865Y003674D02*
X014995Y003674D01*
X014950Y003515D02*
X014910Y003515D01*
X014910Y003357D02*
X014950Y003357D01*
X014983Y003198D02*
X014877Y003198D01*
X015410Y003198D02*
X015450Y003198D01*
X015450Y003040D02*
X015410Y003040D01*
X015410Y003357D02*
X015450Y003357D01*
X015450Y003515D02*
X015410Y003515D01*
X015410Y003674D02*
X015450Y003674D01*
X015450Y003832D02*
X015410Y003832D01*
X015089Y004149D02*
X014771Y004149D01*
X014870Y004308D02*
X014990Y004308D01*
X014990Y004466D02*
X014870Y004466D01*
X014858Y004625D02*
X015002Y004625D01*
X015161Y004783D02*
X014699Y004783D01*
X014161Y004783D02*
X013699Y004783D01*
X013612Y004870D02*
X013870Y004612D01*
X013870Y004248D01*
X013612Y003990D01*
X013248Y003990D01*
X012990Y004248D01*
X012990Y004612D01*
X013248Y004870D01*
X013612Y004870D01*
X013858Y004625D02*
X014002Y004625D01*
X013990Y004466D02*
X013870Y004466D01*
X013870Y004308D02*
X013990Y004308D01*
X014089Y004149D02*
X013771Y004149D01*
X013613Y003991D02*
X014247Y003991D01*
X014153Y003832D02*
X013707Y003832D01*
X013629Y003910D02*
X013450Y003910D01*
X013450Y003450D01*
X013910Y003450D01*
X013910Y003629D01*
X013629Y003910D01*
X013450Y003832D02*
X013410Y003832D01*
X013410Y003910D02*
X013410Y003450D01*
X013450Y003450D01*
X013450Y003410D01*
X013910Y003410D01*
X013910Y003231D01*
X013629Y002950D01*
X013450Y002950D01*
X013450Y003410D01*
X013410Y003410D01*
X013410Y002950D01*
X013231Y002950D01*
X012950Y003231D01*
X012950Y003410D01*
X013410Y003410D01*
X013410Y003450D01*
X012950Y003450D01*
X012950Y003629D01*
X013231Y003910D01*
X013410Y003910D01*
X013247Y003991D02*
X012613Y003991D01*
X012612Y003990D02*
X012870Y004248D01*
X012870Y004612D01*
X012650Y004832D01*
X012650Y004839D01*
X013521Y005710D01*
X013521Y005710D01*
X013632Y005821D01*
X013657Y005831D01*
X013769Y005943D01*
X013830Y006090D01*
X013830Y006770D01*
X013769Y006917D01*
X013657Y007029D01*
X013510Y007090D01*
X013350Y007090D01*
X013203Y007029D01*
X013091Y006917D01*
X013030Y006770D01*
X013030Y006090D01*
X013091Y005943D01*
X013112Y005923D01*
X012339Y005150D01*
X012339Y005150D01*
X012210Y005021D01*
X012210Y004832D01*
X011990Y004612D01*
X011990Y004248D01*
X012248Y003990D01*
X012612Y003990D01*
X012629Y003910D02*
X012450Y003910D01*
X012450Y003450D01*
X012910Y003450D01*
X012910Y003629D01*
X012629Y003910D01*
X012707Y003832D02*
X013153Y003832D01*
X012995Y003674D02*
X012865Y003674D01*
X012910Y003515D02*
X012950Y003515D01*
X012910Y003410D02*
X012450Y003410D01*
X012450Y003450D01*
X012410Y003450D01*
X012410Y003910D01*
X012231Y003910D01*
X011950Y003629D01*
X011950Y003450D01*
X012410Y003450D01*
X012410Y003410D01*
X012450Y003410D01*
X012450Y002950D01*
X012629Y002950D01*
X012910Y003231D01*
X012910Y003410D01*
X012910Y003357D02*
X012950Y003357D01*
X012983Y003198D02*
X012877Y003198D01*
X012718Y003040D02*
X013142Y003040D01*
X013410Y003040D02*
X013450Y003040D01*
X013450Y003198D02*
X013410Y003198D01*
X013410Y003357D02*
X013450Y003357D01*
X013450Y003515D02*
X013410Y003515D01*
X013410Y003674D02*
X013450Y003674D01*
X013865Y003674D02*
X013995Y003674D01*
X013950Y003515D02*
X013910Y003515D01*
X013910Y003357D02*
X013950Y003357D01*
X013983Y003198D02*
X013877Y003198D01*
X013718Y003040D02*
X014142Y003040D01*
X014100Y002723D02*
X013760Y002723D01*
X013870Y002564D02*
X013990Y002564D01*
X013990Y002406D02*
X013870Y002406D01*
X013869Y002247D02*
X013991Y002247D01*
X012991Y002247D02*
X012869Y002247D01*
X012870Y002406D02*
X012990Y002406D01*
X012990Y002564D02*
X012870Y002564D01*
X012760Y002723D02*
X013100Y002723D01*
X012450Y003040D02*
X012410Y003040D01*
X012410Y002950D02*
X012410Y003410D01*
X011950Y003410D01*
X011950Y003231D01*
X012231Y002950D01*
X012410Y002950D01*
X012410Y003198D02*
X012450Y003198D01*
X012450Y003357D02*
X012410Y003357D01*
X012410Y003515D02*
X012450Y003515D01*
X012450Y003674D02*
X012410Y003674D01*
X012410Y003832D02*
X012450Y003832D01*
X012247Y003991D02*
X010613Y003991D01*
X010612Y003990D02*
X010870Y004248D01*
X010870Y004559D01*
X011021Y004710D01*
X011521Y004710D01*
X011650Y004839D01*
X012632Y005821D01*
X012657Y005831D01*
X012769Y005943D01*
X012830Y006090D01*
X012830Y006770D01*
X012769Y006917D01*
X012657Y007029D01*
X012510Y007090D01*
X012350Y007090D01*
X012203Y007029D01*
X012091Y006917D01*
X012030Y006770D01*
X012030Y006090D01*
X012091Y005943D01*
X012112Y005923D01*
X011339Y005150D01*
X010839Y005150D01*
X010559Y004870D01*
X010248Y004870D01*
X009990Y004612D01*
X009990Y004248D01*
X010248Y003990D01*
X010612Y003990D01*
X010629Y003910D02*
X010450Y003910D01*
X010450Y003450D01*
X010910Y003450D01*
X010910Y003629D01*
X010629Y003910D01*
X010707Y003832D02*
X012153Y003832D01*
X011995Y003674D02*
X010865Y003674D01*
X010910Y003515D02*
X011950Y003515D01*
X011950Y003357D02*
X010910Y003357D01*
X010910Y003410D02*
X010910Y003231D01*
X010629Y002950D01*
X010450Y002950D01*
X010450Y003410D01*
X010450Y003450D01*
X010410Y003450D01*
X010410Y003910D01*
X010231Y003910D01*
X009950Y003629D01*
X009950Y003450D01*
X010410Y003450D01*
X010410Y003410D01*
X010450Y003410D01*
X010910Y003410D01*
X010877Y003198D02*
X011983Y003198D01*
X012142Y003040D02*
X010718Y003040D01*
X010450Y003040D02*
X010410Y003040D01*
X010410Y002950D02*
X010410Y003410D01*
X009950Y003410D01*
X009950Y003231D01*
X010231Y002950D01*
X010410Y002950D01*
X010410Y003198D02*
X010450Y003198D01*
X010450Y003357D02*
X010410Y003357D01*
X010410Y003515D02*
X010450Y003515D01*
X010450Y003674D02*
X010410Y003674D01*
X010410Y003832D02*
X010450Y003832D01*
X010247Y003991D02*
X009613Y003991D01*
X009612Y003990D02*
X009870Y004248D01*
X009870Y004559D01*
X010271Y004960D01*
X010521Y004960D01*
X010650Y005089D01*
X011337Y005776D01*
X011350Y005770D01*
X011510Y005770D01*
X011657Y005831D01*
X011769Y005943D01*
X011830Y006090D01*
X011830Y006770D01*
X011769Y006917D01*
X011657Y007029D01*
X011510Y007090D01*
X011350Y007090D01*
X011203Y007029D01*
X011091Y006917D01*
X011030Y006770D01*
X011030Y006091D01*
X010339Y005400D01*
X010089Y005400D01*
X009559Y004870D01*
X009248Y004870D01*
X008990Y004612D01*
X008990Y004248D01*
X009248Y003990D01*
X009612Y003990D01*
X009629Y003910D02*
X009450Y003910D01*
X009450Y003450D01*
X009910Y003450D01*
X009910Y003629D01*
X009629Y003910D01*
X009707Y003832D02*
X010153Y003832D01*
X009995Y003674D02*
X009865Y003674D01*
X009910Y003515D02*
X009950Y003515D01*
X009910Y003410D02*
X009450Y003410D01*
X009450Y003450D01*
X009410Y003450D01*
X009410Y003910D01*
X009231Y003910D01*
X008950Y003629D01*
X008950Y003450D01*
X009410Y003450D01*
X009410Y003410D01*
X009450Y003410D01*
X009450Y002950D01*
X009629Y002950D01*
X009910Y003231D01*
X009910Y003410D01*
X009910Y003357D02*
X009950Y003357D01*
X009983Y003198D02*
X009877Y003198D01*
X009718Y003040D02*
X010142Y003040D01*
X010100Y002723D02*
X009760Y002723D01*
X009870Y002564D02*
X009990Y002564D01*
X009990Y002406D02*
X009870Y002406D01*
X009869Y002247D02*
X009991Y002247D01*
X010869Y002247D02*
X011991Y002247D01*
X011990Y002406D02*
X010870Y002406D01*
X010870Y002564D02*
X011990Y002564D01*
X012100Y002723D02*
X010760Y002723D01*
X009450Y003040D02*
X009410Y003040D01*
X009410Y002950D02*
X009410Y003410D01*
X008950Y003410D01*
X008950Y003231D01*
X009231Y002950D01*
X009410Y002950D01*
X009410Y003198D02*
X009450Y003198D01*
X009450Y003357D02*
X009410Y003357D01*
X009410Y003515D02*
X009450Y003515D01*
X009450Y003674D02*
X009410Y003674D01*
X009410Y003832D02*
X009450Y003832D01*
X009247Y003991D02*
X008613Y003991D01*
X008612Y003990D02*
X008870Y004248D01*
X008870Y004559D01*
X009771Y005460D01*
X010271Y005460D01*
X010400Y005589D01*
X010632Y005821D01*
X010657Y005831D01*
X010769Y005943D01*
X010830Y006090D01*
X010830Y006770D01*
X010769Y006917D01*
X010657Y007029D01*
X010510Y007090D01*
X010350Y007090D01*
X010203Y007029D01*
X010091Y006917D01*
X010030Y006770D01*
X010030Y006090D01*
X010091Y005943D01*
X010112Y005923D01*
X010089Y005900D01*
X009726Y005900D01*
X009769Y005943D01*
X009830Y006090D01*
X009830Y006770D01*
X009769Y006917D01*
X009657Y007029D01*
X009510Y007090D01*
X009350Y007090D01*
X009203Y007029D01*
X009091Y006917D01*
X009030Y006770D01*
X009030Y006091D01*
X008339Y005400D01*
X007589Y005400D01*
X007339Y005150D01*
X007210Y005021D01*
X007210Y004832D01*
X006990Y004612D01*
X006990Y004248D01*
X007248Y003990D01*
X007612Y003990D01*
X007870Y004248D01*
X007870Y004612D01*
X007650Y004832D01*
X007650Y004839D01*
X007771Y004960D01*
X008521Y004960D01*
X008650Y005089D01*
X009337Y005776D01*
X009350Y005770D01*
X009459Y005770D01*
X008559Y004870D01*
X008248Y004870D01*
X007990Y004612D01*
X007990Y004248D01*
X008248Y003990D01*
X008612Y003990D01*
X008629Y003910D02*
X008450Y003910D01*
X008450Y003450D01*
X008910Y003450D01*
X008910Y003629D01*
X008629Y003910D01*
X008707Y003832D02*
X009153Y003832D01*
X008995Y003674D02*
X008865Y003674D01*
X008910Y003515D02*
X008950Y003515D01*
X008910Y003410D02*
X008450Y003410D01*
X008450Y003450D01*
X008410Y003450D01*
X008410Y003910D01*
X008231Y003910D01*
X007950Y003629D01*
X007950Y003450D01*
X008410Y003450D01*
X008410Y003410D01*
X008450Y003410D01*
X008450Y002950D01*
X008629Y002950D01*
X008910Y003231D01*
X008910Y003410D01*
X008910Y003357D02*
X008950Y003357D01*
X008983Y003198D02*
X008877Y003198D01*
X008718Y003040D02*
X009142Y003040D01*
X009100Y002723D02*
X008760Y002723D01*
X008870Y002564D02*
X008990Y002564D01*
X008990Y002406D02*
X008870Y002406D01*
X008869Y002247D02*
X008991Y002247D01*
X008100Y002723D02*
X007760Y002723D01*
X007870Y002564D02*
X007990Y002564D01*
X007990Y002406D02*
X007870Y002406D01*
X007869Y002247D02*
X007991Y002247D01*
X006991Y002247D02*
X006869Y002247D01*
X006870Y002406D02*
X006990Y002406D01*
X006990Y002564D02*
X006870Y002564D01*
X006760Y002723D02*
X007100Y002723D01*
X007231Y002950D02*
X007410Y002950D01*
X007410Y003410D01*
X007450Y003410D01*
X007450Y003450D01*
X007910Y003450D01*
X007910Y003629D01*
X007629Y003910D01*
X007450Y003910D01*
X007450Y003450D01*
X007410Y003450D01*
X007410Y003910D01*
X007231Y003910D01*
X006950Y003629D01*
X006950Y003450D01*
X007410Y003450D01*
X007410Y003410D01*
X006950Y003410D01*
X006950Y003231D01*
X007231Y002950D01*
X007142Y003040D02*
X006718Y003040D01*
X006629Y002950D02*
X006910Y003231D01*
X006910Y003410D01*
X006450Y003410D01*
X006450Y003450D01*
X006910Y003450D01*
X006910Y003629D01*
X006629Y003910D01*
X006450Y003910D01*
X006450Y003450D01*
X006410Y003450D01*
X006410Y003910D01*
X006231Y003910D01*
X005950Y003629D01*
X005950Y003450D01*
X006410Y003450D01*
X006410Y003410D01*
X006450Y003410D01*
X006450Y002950D01*
X006629Y002950D01*
X006450Y003040D02*
X006410Y003040D01*
X006410Y002950D02*
X006410Y003410D01*
X005950Y003410D01*
X005950Y003231D01*
X006231Y002950D01*
X006410Y002950D01*
X006410Y003198D02*
X006450Y003198D01*
X006450Y003357D02*
X006410Y003357D01*
X006410Y003515D02*
X006450Y003515D01*
X006450Y003674D02*
X006410Y003674D01*
X006410Y003832D02*
X006450Y003832D01*
X006612Y003990D02*
X006248Y003990D01*
X005990Y004248D01*
X005990Y004612D01*
X006210Y004832D01*
X006210Y005021D01*
X006339Y005150D01*
X007089Y005900D01*
X007134Y005900D01*
X007091Y005943D01*
X007030Y006090D01*
X007030Y006770D01*
X007091Y006917D01*
X007203Y007029D01*
X007350Y007090D01*
X007510Y007090D01*
X007657Y007029D01*
X007769Y006917D01*
X007830Y006770D01*
X007830Y006090D01*
X007769Y005943D01*
X007726Y005900D01*
X008089Y005900D01*
X008112Y005923D01*
X008091Y005943D01*
X008030Y006090D01*
X008030Y006770D01*
X008091Y006917D01*
X008203Y007029D01*
X008350Y007090D01*
X008510Y007090D01*
X008657Y007029D01*
X008769Y006917D01*
X008830Y006770D01*
X008830Y006090D01*
X008769Y005943D01*
X008657Y005831D01*
X008632Y005821D01*
X008400Y005589D01*
X008271Y005460D01*
X007271Y005460D01*
X006650Y004839D01*
X006650Y004832D01*
X006870Y004612D01*
X006870Y004248D01*
X006612Y003990D01*
X006613Y003991D02*
X007247Y003991D01*
X007153Y003832D02*
X006707Y003832D01*
X006865Y003674D02*
X006995Y003674D01*
X006950Y003515D02*
X006910Y003515D01*
X006910Y003357D02*
X006950Y003357D01*
X006983Y003198D02*
X006877Y003198D01*
X007410Y003198D02*
X007450Y003198D01*
X007450Y003040D02*
X007410Y003040D01*
X007450Y002950D02*
X007629Y002950D01*
X007910Y003231D01*
X007910Y003410D01*
X007450Y003410D01*
X007450Y002950D01*
X007718Y003040D02*
X008142Y003040D01*
X008231Y002950D02*
X008410Y002950D01*
X008410Y003410D01*
X007950Y003410D01*
X007950Y003231D01*
X008231Y002950D01*
X008410Y003040D02*
X008450Y003040D01*
X008450Y003198D02*
X008410Y003198D01*
X008410Y003357D02*
X008450Y003357D01*
X008450Y003515D02*
X008410Y003515D01*
X008410Y003674D02*
X008450Y003674D01*
X008450Y003832D02*
X008410Y003832D01*
X008247Y003991D02*
X007613Y003991D01*
X007707Y003832D02*
X008153Y003832D01*
X007995Y003674D02*
X007865Y003674D01*
X007910Y003515D02*
X007950Y003515D01*
X007950Y003357D02*
X007910Y003357D01*
X007877Y003198D02*
X007983Y003198D01*
X007450Y003357D02*
X007410Y003357D01*
X007410Y003515D02*
X007450Y003515D01*
X007450Y003674D02*
X007410Y003674D01*
X007410Y003832D02*
X007450Y003832D01*
X007771Y004149D02*
X008089Y004149D01*
X007990Y004308D02*
X007870Y004308D01*
X007870Y004466D02*
X007990Y004466D01*
X008002Y004625D02*
X007858Y004625D01*
X007699Y004783D02*
X008161Y004783D01*
X007753Y004942D02*
X008630Y004942D01*
X008661Y005100D02*
X008789Y005100D01*
X008820Y005259D02*
X008947Y005259D01*
X008978Y005417D02*
X009106Y005417D01*
X009137Y005576D02*
X009264Y005576D01*
X009295Y005734D02*
X009423Y005734D01*
X009680Y005680D02*
X008430Y004430D01*
X008870Y004466D02*
X008990Y004466D01*
X008990Y004308D02*
X008870Y004308D01*
X008771Y004149D02*
X009089Y004149D01*
X009430Y004430D02*
X010180Y005180D01*
X010430Y005180D01*
X011430Y006180D01*
X011430Y006430D01*
X011830Y006368D02*
X012030Y006368D01*
X012030Y006210D02*
X011830Y006210D01*
X011814Y006051D02*
X012046Y006051D01*
X012081Y005893D02*
X011718Y005893D01*
X011923Y005734D02*
X011295Y005734D01*
X011137Y005576D02*
X011764Y005576D01*
X011606Y005417D02*
X010978Y005417D01*
X010820Y005259D02*
X011447Y005259D01*
X011430Y004930D02*
X010930Y004930D01*
X010430Y004430D01*
X010870Y004466D02*
X011990Y004466D01*
X011990Y004308D02*
X010870Y004308D01*
X010771Y004149D02*
X012089Y004149D01*
X012430Y004430D02*
X012430Y004930D01*
X013430Y005930D01*
X013430Y006430D01*
X013830Y006368D02*
X013990Y006368D01*
X013990Y006430D02*
X013990Y006135D01*
X014001Y006067D01*
X014022Y006001D01*
X014054Y005939D01*
X014094Y005883D01*
X014143Y005834D01*
X014199Y005794D01*
X014261Y005762D01*
X014327Y005741D01*
X014395Y005730D01*
X014430Y005730D01*
X014465Y005730D01*
X014533Y005741D01*
X014599Y005762D01*
X014661Y005794D01*
X014717Y005834D01*
X014766Y005883D01*
X014806Y005939D01*
X014838Y006001D01*
X014859Y006067D01*
X014870Y006135D01*
X014870Y006430D01*
X014870Y006725D01*
X014859Y006793D01*
X014838Y006859D01*
X014806Y006921D01*
X014766Y006977D01*
X014717Y007026D01*
X014661Y007066D01*
X014599Y007098D01*
X014533Y007119D01*
X014465Y007130D01*
X014430Y007130D01*
X014430Y006430D01*
X014430Y006430D01*
X014870Y006430D01*
X014430Y006430D01*
X014430Y006430D01*
X014430Y006430D01*
X013990Y006430D01*
X013990Y006725D01*
X014001Y006793D01*
X014022Y006859D01*
X014054Y006921D01*
X014094Y006977D01*
X014143Y007026D01*
X014199Y007066D01*
X014261Y007098D01*
X014327Y007119D01*
X014395Y007130D01*
X014430Y007130D01*
X014430Y006430D01*
X014430Y005730D01*
X014430Y006430D01*
X014430Y006430D01*
X013990Y006430D01*
X013990Y006527D02*
X013830Y006527D01*
X013830Y006685D02*
X013990Y006685D01*
X014017Y006844D02*
X013799Y006844D01*
X013684Y007002D02*
X014120Y007002D01*
X014430Y007002D02*
X014430Y007002D01*
X014430Y006844D02*
X014430Y006844D01*
X014430Y006685D02*
X014430Y006685D01*
X014430Y006527D02*
X014430Y006527D01*
X014430Y006368D02*
X014430Y006368D01*
X014430Y006210D02*
X014430Y006210D01*
X014430Y006051D02*
X014430Y006051D01*
X014430Y005893D02*
X014430Y005893D01*
X014430Y005734D02*
X014430Y005734D01*
X014490Y005734D02*
X016370Y005734D01*
X016395Y005730D02*
X016327Y005741D01*
X016261Y005762D01*
X016199Y005794D01*
X016143Y005834D01*
X016094Y005883D01*
X016054Y005939D01*
X016022Y006001D01*
X016001Y006067D01*
X015990Y006135D01*
X015990Y006430D01*
X016430Y006430D01*
X016430Y006430D01*
X016430Y005730D01*
X016395Y005730D01*
X016430Y005734D02*
X016430Y005734D01*
X016430Y005893D02*
X016430Y005893D01*
X016430Y006051D02*
X016430Y006051D01*
X016430Y006210D02*
X016430Y006210D01*
X016430Y006368D02*
X016430Y006368D01*
X016430Y006527D02*
X016430Y006527D01*
X016430Y006685D02*
X016430Y006685D01*
X016430Y006844D02*
X016430Y006844D01*
X016430Y007002D02*
X016430Y007002D01*
X016120Y007002D02*
X015684Y007002D01*
X015657Y007029D02*
X015510Y007090D01*
X015350Y007090D01*
X015203Y007029D01*
X015091Y006917D01*
X015030Y006770D01*
X015030Y006090D01*
X015091Y005943D01*
X015203Y005831D01*
X015350Y005770D01*
X015510Y005770D01*
X015657Y005831D01*
X015769Y005943D01*
X015830Y006090D01*
X015830Y006770D01*
X015769Y006917D01*
X015657Y007029D01*
X015799Y006844D02*
X016017Y006844D01*
X015990Y006685D02*
X015830Y006685D01*
X015830Y006527D02*
X015990Y006527D01*
X015990Y006368D02*
X015830Y006368D01*
X015830Y006210D02*
X015990Y006210D01*
X016006Y006051D02*
X015814Y006051D01*
X015718Y005893D02*
X016088Y005893D01*
X015142Y005893D02*
X014772Y005893D01*
X014854Y006051D02*
X015046Y006051D01*
X015030Y006210D02*
X014870Y006210D01*
X014870Y006368D02*
X015030Y006368D01*
X015030Y006527D02*
X014870Y006527D01*
X014870Y006685D02*
X015030Y006685D01*
X015061Y006844D02*
X014843Y006844D01*
X014740Y007002D02*
X015176Y007002D01*
X013990Y006210D02*
X013830Y006210D01*
X013814Y006051D02*
X014006Y006051D01*
X014088Y005893D02*
X013718Y005893D01*
X013545Y005734D02*
X014370Y005734D01*
X013387Y005576D02*
X018210Y005576D01*
X018106Y005417D02*
X013228Y005417D01*
X013070Y005259D02*
X017947Y005259D01*
X017789Y005100D02*
X012911Y005100D01*
X012753Y004942D02*
X017630Y004942D01*
X017936Y004625D02*
X019002Y004625D01*
X019161Y004783D02*
X018094Y004783D01*
X018253Y004942D02*
X019210Y004942D01*
X019210Y005100D02*
X018411Y005100D01*
X018430Y005430D02*
X018430Y006430D01*
X017430Y006430D02*
X017430Y006930D01*
X016930Y007430D01*
X016930Y010930D01*
X015930Y011930D01*
X015430Y011916D02*
X015430Y011916D01*
X015430Y012074D02*
X015430Y012074D01*
X015430Y012233D02*
X015430Y012233D01*
X015430Y012391D02*
X015430Y012391D01*
X015430Y012550D02*
X015430Y012550D01*
X015430Y012708D02*
X015430Y012708D01*
X015430Y012867D02*
X015430Y012867D01*
X015430Y013025D02*
X015430Y013025D01*
X015143Y013025D02*
X014661Y013025D01*
X014790Y012867D02*
X015026Y012867D01*
X014990Y012708D02*
X014830Y012708D01*
X014830Y012550D02*
X014990Y012550D01*
X014990Y012391D02*
X014830Y012391D01*
X014830Y012233D02*
X014990Y012233D01*
X015000Y012074D02*
X014823Y012074D01*
X014741Y011916D02*
X015071Y011916D01*
X015950Y011599D02*
X003553Y011599D01*
X003590Y011440D02*
X016109Y011440D01*
X016267Y011282D02*
X003561Y011282D01*
X003449Y011123D02*
X016426Y011123D01*
X016584Y010965D02*
X001110Y010965D01*
X001110Y011123D02*
X002411Y011123D01*
X002299Y011282D02*
X001110Y011282D01*
X001110Y011440D02*
X002270Y011440D01*
X002307Y011599D02*
X001110Y011599D01*
X001110Y011757D02*
X002431Y011757D01*
X002590Y010830D02*
X002443Y010769D01*
X002331Y010657D01*
X002270Y010510D01*
X002270Y010350D01*
X002331Y010203D01*
X002443Y010091D01*
X002590Y010030D01*
X003270Y010030D01*
X003417Y010091D01*
X003529Y010203D01*
X003590Y010350D01*
X003590Y010510D01*
X003529Y010657D01*
X003417Y010769D01*
X003270Y010830D01*
X002590Y010830D01*
X002533Y010806D02*
X001110Y010806D01*
X001110Y010648D02*
X002327Y010648D01*
X002270Y010489D02*
X001110Y010489D01*
X001110Y010331D02*
X002278Y010331D01*
X002362Y010172D02*
X001110Y010172D01*
X001110Y010014D02*
X016710Y010014D01*
X016710Y010172D02*
X003498Y010172D01*
X003582Y010331D02*
X016710Y010331D01*
X016710Y010489D02*
X003590Y010489D01*
X003533Y010648D02*
X016710Y010648D01*
X016710Y010806D02*
X003327Y010806D01*
X003270Y009830D02*
X002590Y009830D01*
X002443Y009769D01*
X002331Y009657D01*
X002270Y009510D01*
X002270Y009350D01*
X002331Y009203D01*
X002443Y009091D01*
X002590Y009030D01*
X003270Y009030D01*
X003417Y009091D01*
X003529Y009203D01*
X003590Y009350D01*
X003590Y009510D01*
X003529Y009657D01*
X003417Y009769D01*
X003270Y009830D01*
X003489Y009697D02*
X016710Y009697D01*
X016710Y009855D02*
X001110Y009855D01*
X001110Y009697D02*
X002371Y009697D01*
X002282Y009538D02*
X001110Y009538D01*
X001110Y009380D02*
X002270Y009380D01*
X002324Y009221D02*
X001110Y009221D01*
X001110Y009063D02*
X002512Y009063D01*
X002567Y008859D02*
X002501Y008838D01*
X002439Y008806D01*
X002383Y008766D01*
X002334Y008717D01*
X002294Y008661D01*
X002262Y008599D01*
X002241Y008533D01*
X002230Y008465D01*
X002230Y008430D01*
X002930Y008430D01*
X002930Y008430D01*
X002930Y008870D01*
X003225Y008870D01*
X003293Y008859D01*
X003359Y008838D01*
X003421Y008806D01*
X003477Y008766D01*
X003526Y008717D01*
X003566Y008661D01*
X003598Y008599D01*
X003619Y008533D01*
X003630Y008465D01*
X003630Y008430D01*
X002930Y008430D01*
X002930Y008430D01*
X002930Y008870D01*
X002635Y008870D01*
X002567Y008859D01*
X002363Y008746D02*
X001110Y008746D01*
X001110Y008904D02*
X016710Y008904D01*
X016710Y008746D02*
X003497Y008746D01*
X003602Y008587D02*
X016710Y008587D01*
X016710Y008429D02*
X003630Y008429D01*
X003630Y008430D02*
X002930Y008430D01*
X002930Y007990D01*
X003225Y007990D01*
X003293Y008001D01*
X003359Y008022D01*
X003421Y008054D01*
X003477Y008094D01*
X003526Y008143D01*
X003566Y008199D01*
X003598Y008261D01*
X003619Y008327D01*
X003630Y008395D01*
X003630Y008430D01*
X003601Y008270D02*
X016710Y008270D01*
X016710Y008112D02*
X003494Y008112D01*
X002930Y008112D02*
X002930Y008112D01*
X002930Y007990D02*
X002635Y007990D01*
X002567Y008001D01*
X002501Y008022D01*
X002439Y008054D01*
X002383Y008094D01*
X002334Y008143D01*
X002294Y008199D01*
X002262Y008261D01*
X002241Y008327D01*
X002230Y008395D01*
X002230Y008430D01*
X002930Y008430D01*
X002930Y008430D01*
X002930Y008430D01*
X002930Y007990D01*
X002764Y007580D02*
X002530Y007346D01*
X002530Y007014D01*
X002764Y006780D01*
X003096Y006780D01*
X003330Y007014D01*
X003330Y007346D01*
X003096Y007580D01*
X002764Y007580D01*
X002662Y007478D02*
X001110Y007478D01*
X001110Y007636D02*
X016710Y007636D01*
X016710Y007478D02*
X004255Y007478D01*
X004370Y007319D02*
X016730Y007319D01*
X016710Y007795D02*
X001110Y007795D01*
X001110Y007953D02*
X016710Y007953D01*
X016710Y009063D02*
X003348Y009063D01*
X003536Y009221D02*
X016710Y009221D01*
X016710Y009380D02*
X003590Y009380D01*
X003578Y009538D02*
X016710Y009538D01*
X016741Y011916D02*
X017119Y011916D01*
X017037Y012074D02*
X016823Y012074D01*
X016830Y012233D02*
X017030Y012233D01*
X017030Y012391D02*
X016830Y012391D01*
X016830Y012550D02*
X017030Y012550D01*
X017030Y012708D02*
X016830Y012708D01*
X016790Y012867D02*
X017070Y012867D01*
X017199Y013025D02*
X016661Y013025D01*
X016658Y013342D02*
X017207Y013342D01*
X017210Y013184D02*
X016150Y013184D01*
X016150Y013342D02*
X016202Y013342D01*
X016199Y013025D02*
X016150Y013025D01*
X015710Y013184D02*
X013488Y013184D01*
X013661Y013025D02*
X014199Y013025D01*
X014070Y012867D02*
X013790Y012867D01*
X013830Y012708D02*
X014030Y012708D01*
X014030Y012550D02*
X013830Y012550D01*
X016150Y013976D02*
X016160Y013976D01*
X016150Y014135D02*
X016960Y014135D01*
X016960Y014293D02*
X016359Y014293D01*
X016517Y014452D02*
X016960Y014452D01*
X016960Y014610D02*
X016580Y014610D01*
X016580Y014769D02*
X016960Y014769D01*
X017116Y014927D02*
X016499Y014927D01*
X017180Y014680D02*
X017180Y013680D01*
X017430Y013430D01*
X017430Y012430D01*
X017048Y013501D02*
X016816Y013501D01*
X016830Y013659D02*
X016960Y013659D01*
X016960Y013818D02*
X016830Y013818D01*
X016700Y013976D02*
X016960Y013976D01*
X017400Y013976D02*
X017420Y013976D01*
X017420Y014135D02*
X017400Y014135D01*
X017400Y014293D02*
X017420Y014293D01*
X017400Y014452D02*
X017480Y014452D01*
X017421Y014610D02*
X017639Y014610D01*
X017180Y014680D02*
X017680Y015180D01*
X017830Y015180D01*
X017420Y016354D02*
X016419Y016354D01*
X016578Y016512D02*
X017541Y016512D01*
X017699Y016671D02*
X016580Y016671D01*
X017400Y013818D02*
X017571Y013818D01*
X018289Y013818D02*
X018571Y013818D01*
X019086Y013025D02*
X019199Y013025D01*
X019070Y012867D02*
X018928Y012867D01*
X018830Y012708D02*
X019030Y012708D01*
X019030Y012550D02*
X018830Y012550D01*
X020430Y012430D02*
X020430Y010930D01*
X022430Y008930D01*
X022450Y009221D02*
X022578Y009221D01*
X022419Y009380D02*
X022292Y009380D01*
X022261Y009538D02*
X022133Y009538D01*
X022102Y009697D02*
X021975Y009697D01*
X021944Y009855D02*
X021816Y009855D01*
X021785Y010014D02*
X021658Y010014D01*
X021627Y010172D02*
X021499Y010172D01*
X021468Y010331D02*
X021341Y010331D01*
X021310Y010489D02*
X021182Y010489D01*
X021210Y010648D02*
X021024Y010648D01*
X020865Y010806D02*
X021210Y010806D01*
X021210Y010965D02*
X020707Y010965D01*
X020650Y011123D02*
X021210Y011123D01*
X021210Y011282D02*
X020650Y011282D01*
X020650Y011440D02*
X021210Y011440D01*
X021210Y011599D02*
X020650Y011599D01*
X020650Y011757D02*
X021210Y011757D01*
X021119Y011916D02*
X020741Y011916D01*
X020823Y012074D02*
X021037Y012074D01*
X021030Y012233D02*
X020830Y012233D01*
X020830Y012391D02*
X021030Y012391D01*
X021030Y012550D02*
X020830Y012550D01*
X020830Y012708D02*
X021030Y012708D01*
X021070Y012867D02*
X020790Y012867D01*
X020661Y013025D02*
X021199Y013025D01*
X023661Y013025D02*
X024199Y013025D01*
X024070Y012867D02*
X023790Y012867D01*
X023830Y012708D02*
X024030Y012708D01*
X024030Y012550D02*
X023830Y012550D01*
X024430Y012430D02*
X024430Y011180D01*
X024680Y010930D01*
X022657Y007029D02*
X022510Y007090D01*
X022350Y007090D01*
X022203Y007029D01*
X022091Y006917D01*
X022030Y006770D01*
X022030Y006090D01*
X022091Y005943D01*
X022203Y005831D01*
X022210Y005828D01*
X022210Y004832D01*
X021990Y004612D01*
X021990Y004248D01*
X022248Y003990D01*
X022612Y003990D01*
X022870Y004248D01*
X022870Y004612D01*
X022650Y004832D01*
X022650Y005828D01*
X022657Y005831D01*
X022769Y005943D01*
X022830Y006090D01*
X022830Y006770D01*
X022769Y006917D01*
X022657Y007029D01*
X022684Y007002D02*
X023176Y007002D01*
X023061Y006844D02*
X022799Y006844D01*
X022830Y006685D02*
X023030Y006685D01*
X023030Y006527D02*
X022830Y006527D01*
X022830Y006368D02*
X023030Y006368D01*
X023030Y006210D02*
X022830Y006210D01*
X022814Y006051D02*
X023046Y006051D01*
X023142Y005893D02*
X022718Y005893D01*
X022650Y005734D02*
X023210Y005734D01*
X023210Y005576D02*
X022650Y005576D01*
X022650Y005417D02*
X023210Y005417D01*
X023210Y005259D02*
X022650Y005259D01*
X022650Y005100D02*
X023210Y005100D01*
X023210Y004942D02*
X022650Y004942D01*
X022699Y004783D02*
X023161Y004783D01*
X023002Y004625D02*
X022858Y004625D01*
X022870Y004466D02*
X022990Y004466D01*
X022990Y004308D02*
X022870Y004308D01*
X022771Y004149D02*
X023089Y004149D01*
X023247Y003991D02*
X022613Y003991D01*
X022629Y003910D02*
X022450Y003910D01*
X022450Y003450D01*
X022910Y003450D01*
X022910Y003629D01*
X022629Y003910D01*
X022707Y003832D02*
X023153Y003832D01*
X022995Y003674D02*
X022865Y003674D01*
X022910Y003515D02*
X022950Y003515D01*
X022950Y003410D02*
X022950Y003231D01*
X023231Y002950D01*
X023410Y002950D01*
X023410Y003410D01*
X022950Y003410D01*
X022910Y003410D02*
X022450Y003410D01*
X022450Y003450D01*
X022410Y003450D01*
X022410Y003910D01*
X022231Y003910D01*
X021950Y003629D01*
X021950Y003450D01*
X022410Y003450D01*
X022410Y003410D01*
X022450Y003410D01*
X022450Y002950D01*
X022629Y002950D01*
X022910Y003231D01*
X022910Y003410D01*
X022910Y003357D02*
X022950Y003357D01*
X022983Y003198D02*
X022877Y003198D01*
X022718Y003040D02*
X023142Y003040D01*
X023410Y003040D02*
X023450Y003040D01*
X023450Y003198D02*
X023410Y003198D01*
X023410Y003357D02*
X023450Y003357D01*
X023450Y003515D02*
X023410Y003515D01*
X023410Y003674D02*
X023450Y003674D01*
X023450Y003832D02*
X023410Y003832D01*
X023771Y004149D02*
X024089Y004149D01*
X023990Y004308D02*
X023870Y004308D01*
X023870Y004466D02*
X023990Y004466D01*
X024002Y004625D02*
X023858Y004625D01*
X023699Y004783D02*
X024161Y004783D01*
X024210Y004942D02*
X023650Y004942D01*
X023650Y005100D02*
X024210Y005100D01*
X024210Y005259D02*
X023650Y005259D01*
X023650Y005417D02*
X024210Y005417D01*
X024210Y005576D02*
X023650Y005576D01*
X023650Y005734D02*
X024210Y005734D01*
X024142Y005893D02*
X023718Y005893D01*
X023814Y006051D02*
X024046Y006051D01*
X024030Y006210D02*
X023830Y006210D01*
X023830Y006368D02*
X024030Y006368D01*
X024030Y006527D02*
X023830Y006527D01*
X023830Y006685D02*
X024030Y006685D01*
X024061Y006844D02*
X023799Y006844D01*
X023684Y007002D02*
X024176Y007002D01*
X024684Y007002D02*
X026984Y007002D01*
X026850Y006844D02*
X024799Y006844D01*
X024830Y006685D02*
X026850Y006685D01*
X026850Y006527D02*
X024830Y006527D01*
X024830Y006368D02*
X026974Y006368D01*
X027636Y006368D02*
X027920Y006368D01*
X027834Y006527D02*
X027760Y006527D01*
X027760Y006685D02*
X027810Y006685D01*
X027846Y006870D02*
X027882Y006939D01*
X027927Y007002D01*
X028305Y007002D02*
X028305Y007002D01*
X028305Y006844D02*
X028305Y006844D01*
X028305Y006685D02*
X028305Y006685D01*
X028305Y006527D02*
X028305Y006527D01*
X028305Y006368D02*
X028305Y006368D01*
X024430Y006430D02*
X024430Y004430D01*
X023430Y004430D02*
X023430Y006430D01*
X022430Y006430D02*
X022430Y004430D01*
X021990Y004466D02*
X021870Y004466D01*
X021870Y004612D02*
X021870Y004248D01*
X021612Y003990D01*
X021248Y003990D01*
X020990Y004248D01*
X020990Y004612D01*
X021210Y004832D01*
X021210Y005828D01*
X021203Y005831D01*
X021091Y005943D01*
X021030Y006090D01*
X021030Y006770D01*
X021091Y006917D01*
X021203Y007029D01*
X021350Y007090D01*
X021510Y007090D01*
X021657Y007029D01*
X021769Y006917D01*
X021830Y006770D01*
X021830Y006090D01*
X021769Y005943D01*
X021657Y005831D01*
X021650Y005828D01*
X021650Y004832D01*
X021870Y004612D01*
X021858Y004625D02*
X022002Y004625D01*
X022161Y004783D02*
X021699Y004783D01*
X021650Y004942D02*
X022210Y004942D01*
X022210Y005100D02*
X021650Y005100D01*
X021650Y005259D02*
X022210Y005259D01*
X022210Y005417D02*
X021650Y005417D01*
X021650Y005576D02*
X022210Y005576D01*
X022210Y005734D02*
X021650Y005734D01*
X021718Y005893D02*
X022142Y005893D01*
X022046Y006051D02*
X021814Y006051D01*
X021830Y006210D02*
X022030Y006210D01*
X022030Y006368D02*
X021830Y006368D01*
X021830Y006527D02*
X022030Y006527D01*
X022030Y006685D02*
X021830Y006685D01*
X021799Y006844D02*
X022061Y006844D01*
X022176Y007002D02*
X021684Y007002D01*
X021176Y007002D02*
X020684Y007002D01*
X020799Y006844D02*
X021061Y006844D01*
X021030Y006685D02*
X020830Y006685D01*
X020830Y006527D02*
X021030Y006527D01*
X021030Y006368D02*
X020830Y006368D01*
X020830Y006210D02*
X021030Y006210D01*
X021046Y006051D02*
X020814Y006051D01*
X020718Y005893D02*
X021142Y005893D01*
X021210Y005734D02*
X020650Y005734D01*
X020650Y005576D02*
X021210Y005576D01*
X021210Y005417D02*
X020650Y005417D01*
X020650Y005259D02*
X021210Y005259D01*
X021210Y005100D02*
X020650Y005100D01*
X020650Y004942D02*
X021210Y004942D01*
X021161Y004783D02*
X020699Y004783D01*
X020858Y004625D02*
X021002Y004625D01*
X020990Y004466D02*
X020870Y004466D01*
X020870Y004308D02*
X020990Y004308D01*
X021089Y004149D02*
X020771Y004149D01*
X020613Y003991D02*
X021247Y003991D01*
X021231Y003910D02*
X020950Y003629D01*
X020950Y003450D01*
X021410Y003450D01*
X021410Y003910D01*
X021231Y003910D01*
X021153Y003832D02*
X020707Y003832D01*
X020865Y003674D02*
X020995Y003674D01*
X020950Y003515D02*
X020910Y003515D01*
X020910Y003410D02*
X020450Y003410D01*
X020450Y002950D01*
X020629Y002950D01*
X020910Y003231D01*
X020910Y003410D01*
X020950Y003410D02*
X020950Y003231D01*
X021231Y002950D01*
X021410Y002950D01*
X021410Y003410D01*
X021450Y003410D01*
X021450Y003450D01*
X021910Y003450D01*
X021910Y003629D01*
X021629Y003910D01*
X021450Y003910D01*
X021450Y003450D01*
X021410Y003450D01*
X021410Y003410D01*
X020950Y003410D01*
X020950Y003357D02*
X020910Y003357D01*
X020877Y003198D02*
X020983Y003198D01*
X021142Y003040D02*
X020718Y003040D01*
X020450Y003040D02*
X020410Y003040D01*
X020410Y003198D02*
X020450Y003198D01*
X020450Y003357D02*
X020410Y003357D01*
X020410Y003515D02*
X020450Y003515D01*
X020450Y003674D02*
X020410Y003674D01*
X020410Y003832D02*
X020450Y003832D01*
X020089Y004149D02*
X019771Y004149D01*
X019870Y004308D02*
X019990Y004308D01*
X019990Y004466D02*
X019870Y004466D01*
X019858Y004625D02*
X020002Y004625D01*
X020161Y004783D02*
X019699Y004783D01*
X019650Y004942D02*
X020210Y004942D01*
X020210Y005100D02*
X019650Y005100D01*
X019650Y005259D02*
X020210Y005259D01*
X020210Y005417D02*
X019650Y005417D01*
X019650Y005576D02*
X020210Y005576D01*
X020210Y005734D02*
X019650Y005734D01*
X019718Y005893D02*
X020142Y005893D01*
X020046Y006051D02*
X019814Y006051D01*
X019830Y006210D02*
X020030Y006210D01*
X020030Y006368D02*
X019830Y006368D01*
X019830Y006527D02*
X020030Y006527D01*
X020030Y006685D02*
X019830Y006685D01*
X019799Y006844D02*
X020061Y006844D01*
X020176Y007002D02*
X019684Y007002D01*
X019430Y006430D02*
X019430Y004430D01*
X020430Y004430D02*
X020430Y006430D01*
X021430Y006430D02*
X021430Y004430D01*
X021771Y004149D02*
X022089Y004149D01*
X021990Y004308D02*
X021870Y004308D01*
X021613Y003991D02*
X022247Y003991D01*
X022153Y003832D02*
X021707Y003832D01*
X021865Y003674D02*
X021995Y003674D01*
X021950Y003515D02*
X021910Y003515D01*
X021910Y003410D02*
X021450Y003410D01*
X021450Y002950D01*
X021629Y002950D01*
X021910Y003231D01*
X021910Y003410D01*
X021950Y003410D02*
X021950Y003231D01*
X022231Y002950D01*
X022410Y002950D01*
X022410Y003410D01*
X021950Y003410D01*
X021950Y003357D02*
X021910Y003357D01*
X021877Y003198D02*
X021983Y003198D01*
X022142Y003040D02*
X021718Y003040D01*
X021450Y003040D02*
X021410Y003040D01*
X021410Y003198D02*
X021450Y003198D01*
X021450Y003357D02*
X021410Y003357D01*
X021410Y003515D02*
X021450Y003515D01*
X021450Y003674D02*
X021410Y003674D01*
X021410Y003832D02*
X021450Y003832D01*
X022410Y003832D02*
X022450Y003832D01*
X022450Y003674D02*
X022410Y003674D01*
X022410Y003515D02*
X022450Y003515D01*
X022450Y003357D02*
X022410Y003357D01*
X022410Y003198D02*
X022450Y003198D01*
X022450Y003040D02*
X022410Y003040D01*
X022100Y002723D02*
X021760Y002723D01*
X021870Y002564D02*
X021990Y002564D01*
X021990Y002406D02*
X021870Y002406D01*
X021869Y002247D02*
X021991Y002247D01*
X022869Y002247D02*
X022991Y002247D01*
X022990Y002406D02*
X022870Y002406D01*
X022870Y002564D02*
X022990Y002564D01*
X023100Y002723D02*
X022760Y002723D01*
X021100Y002723D02*
X020760Y002723D01*
X020870Y002564D02*
X020990Y002564D01*
X020990Y002406D02*
X020870Y002406D01*
X020869Y002247D02*
X020991Y002247D01*
X020100Y002723D02*
X019760Y002723D01*
X019870Y002564D02*
X019990Y002564D01*
X019990Y002406D02*
X019870Y002406D01*
X019869Y002247D02*
X019991Y002247D01*
X017089Y004149D02*
X016771Y004149D01*
X016870Y004308D02*
X016990Y004308D01*
X016990Y004466D02*
X016870Y004466D01*
X016858Y004625D02*
X017002Y004625D01*
X017161Y004783D02*
X016699Y004783D01*
X016161Y004783D02*
X015699Y004783D01*
X015858Y004625D02*
X016002Y004625D01*
X015990Y004466D02*
X015870Y004466D01*
X015870Y004308D02*
X015990Y004308D01*
X016089Y004149D02*
X015771Y004149D01*
X013161Y004783D02*
X012699Y004783D01*
X012858Y004625D02*
X013002Y004625D01*
X012990Y004466D02*
X012870Y004466D01*
X012870Y004308D02*
X012990Y004308D01*
X013089Y004149D02*
X012771Y004149D01*
X012161Y004783D02*
X011594Y004783D01*
X011430Y004930D02*
X012430Y005930D01*
X012430Y006430D01*
X012830Y006368D02*
X013030Y006368D01*
X013030Y006210D02*
X012830Y006210D01*
X012814Y006051D02*
X013046Y006051D01*
X013081Y005893D02*
X012718Y005893D01*
X012545Y005734D02*
X012923Y005734D01*
X012764Y005576D02*
X012387Y005576D01*
X012228Y005417D02*
X012606Y005417D01*
X012447Y005259D02*
X012070Y005259D01*
X011911Y005100D02*
X012289Y005100D01*
X012210Y004942D02*
X011753Y004942D01*
X012002Y004625D02*
X010936Y004625D01*
X010630Y004942D02*
X010253Y004942D01*
X010161Y004783D02*
X010094Y004783D01*
X010002Y004625D02*
X009936Y004625D01*
X009990Y004466D02*
X009870Y004466D01*
X009870Y004308D02*
X009990Y004308D01*
X010089Y004149D02*
X009771Y004149D01*
X009161Y004783D02*
X009094Y004783D01*
X009002Y004625D02*
X008936Y004625D01*
X009253Y004942D02*
X009630Y004942D01*
X009789Y005100D02*
X009411Y005100D01*
X009570Y005259D02*
X009947Y005259D01*
X009728Y005417D02*
X010356Y005417D01*
X010387Y005576D02*
X010514Y005576D01*
X010545Y005734D02*
X010673Y005734D01*
X010718Y005893D02*
X010831Y005893D01*
X010814Y006051D02*
X010990Y006051D01*
X011030Y006210D02*
X010830Y006210D01*
X010830Y006368D02*
X011030Y006368D01*
X011030Y006527D02*
X010830Y006527D01*
X010830Y006685D02*
X011030Y006685D01*
X011061Y006844D02*
X010799Y006844D01*
X010684Y007002D02*
X011176Y007002D01*
X011684Y007002D02*
X012176Y007002D01*
X012061Y006844D02*
X011799Y006844D01*
X011830Y006685D02*
X012030Y006685D01*
X012030Y006527D02*
X011830Y006527D01*
X012684Y007002D02*
X013176Y007002D01*
X013061Y006844D02*
X012799Y006844D01*
X012830Y006685D02*
X013030Y006685D01*
X013030Y006527D02*
X012830Y006527D01*
X010789Y005100D02*
X010661Y005100D01*
X010180Y005680D02*
X009680Y005680D01*
X009814Y006051D02*
X010046Y006051D01*
X010030Y006210D02*
X009830Y006210D01*
X009830Y006368D02*
X010030Y006368D01*
X010030Y006527D02*
X009830Y006527D01*
X009830Y006685D02*
X010030Y006685D01*
X010061Y006844D02*
X009799Y006844D01*
X009684Y007002D02*
X010176Y007002D01*
X010430Y006430D02*
X010430Y005930D01*
X010180Y005680D01*
X009430Y006180D02*
X008430Y005180D01*
X007680Y005180D01*
X007430Y004930D01*
X007430Y004430D01*
X006990Y004466D02*
X006870Y004466D01*
X006870Y004308D02*
X006990Y004308D01*
X007089Y004149D02*
X006771Y004149D01*
X006430Y004430D02*
X006430Y004930D01*
X007180Y005680D01*
X008180Y005680D01*
X008430Y005930D01*
X008430Y006430D01*
X008830Y006368D02*
X009030Y006368D01*
X009030Y006210D02*
X008830Y006210D01*
X008814Y006051D02*
X008990Y006051D01*
X008831Y005893D02*
X008718Y005893D01*
X008673Y005734D02*
X008545Y005734D01*
X008514Y005576D02*
X008387Y005576D01*
X008356Y005417D02*
X007228Y005417D01*
X007070Y005259D02*
X007447Y005259D01*
X007289Y005100D02*
X006911Y005100D01*
X006753Y004942D02*
X007210Y004942D01*
X007161Y004783D02*
X006699Y004783D01*
X006858Y004625D02*
X007002Y004625D01*
X006447Y005259D02*
X005650Y005259D01*
X005650Y005417D02*
X006606Y005417D01*
X006764Y005576D02*
X005650Y005576D01*
X005650Y005734D02*
X006923Y005734D01*
X007081Y005893D02*
X006718Y005893D01*
X006769Y005943D02*
X006830Y006090D01*
X006830Y006770D01*
X006769Y006917D01*
X006657Y007029D01*
X006510Y007090D01*
X006350Y007090D01*
X006203Y007029D01*
X006091Y006917D01*
X006030Y006770D01*
X006030Y006090D01*
X006091Y005943D01*
X006203Y005831D01*
X006350Y005770D01*
X006510Y005770D01*
X006657Y005831D01*
X006769Y005943D01*
X006814Y006051D02*
X007046Y006051D01*
X007030Y006210D02*
X006830Y006210D01*
X006830Y006368D02*
X007030Y006368D01*
X007030Y006527D02*
X006830Y006527D01*
X006830Y006685D02*
X007030Y006685D01*
X007061Y006844D02*
X006799Y006844D01*
X006684Y007002D02*
X007176Y007002D01*
X007684Y007002D02*
X008176Y007002D01*
X008061Y006844D02*
X007799Y006844D01*
X007830Y006685D02*
X008030Y006685D01*
X008030Y006527D02*
X007830Y006527D01*
X007830Y006368D02*
X008030Y006368D01*
X008030Y006210D02*
X007830Y006210D01*
X007814Y006051D02*
X008046Y006051D01*
X008830Y006527D02*
X009030Y006527D01*
X009030Y006685D02*
X008830Y006685D01*
X008799Y006844D02*
X009061Y006844D01*
X009176Y007002D02*
X008684Y007002D01*
X009430Y006430D02*
X009430Y006180D01*
X006289Y005100D02*
X005650Y005100D01*
X005650Y004942D02*
X006210Y004942D01*
X006161Y004783D02*
X005699Y004783D01*
X005858Y004625D02*
X006002Y004625D01*
X005990Y004466D02*
X005870Y004466D01*
X005870Y004308D02*
X005990Y004308D01*
X006089Y004149D02*
X005771Y004149D01*
X005613Y003991D02*
X006247Y003991D01*
X006153Y003832D02*
X005707Y003832D01*
X005865Y003674D02*
X005995Y003674D01*
X005950Y003515D02*
X005910Y003515D01*
X005910Y003357D02*
X005950Y003357D01*
X005983Y003198D02*
X005877Y003198D01*
X005718Y003040D02*
X006142Y003040D01*
X006100Y002723D02*
X005760Y002723D01*
X005870Y002564D02*
X005990Y002564D01*
X005990Y002406D02*
X005870Y002406D01*
X005869Y002247D02*
X005991Y002247D01*
X004991Y002247D02*
X002213Y002247D01*
X001938Y002406D02*
X004990Y002406D01*
X004990Y002564D02*
X001725Y002564D01*
X004167Y004149D02*
X005089Y004149D01*
X004990Y004308D02*
X004124Y004308D01*
X004060Y004466D02*
X004990Y004466D01*
X005002Y004625D02*
X003969Y004625D01*
X003838Y004783D02*
X005161Y004783D01*
X005210Y004942D02*
X003672Y004942D01*
X003397Y005100D02*
X005210Y005100D01*
X005210Y005259D02*
X001110Y005259D01*
X001110Y005417D02*
X005210Y005417D01*
X005210Y005576D02*
X001110Y005576D01*
X001110Y005734D02*
X005210Y005734D01*
X005142Y005893D02*
X004208Y005893D01*
X004330Y006051D02*
X005046Y006051D01*
X005030Y006210D02*
X004330Y006210D01*
X004308Y006368D02*
X005030Y006368D01*
X005430Y006430D02*
X005430Y004430D01*
X005718Y005893D02*
X006142Y005893D01*
X006046Y006051D02*
X005814Y006051D01*
X005830Y006210D02*
X006030Y006210D01*
X006030Y006368D02*
X005830Y006368D01*
X005830Y006527D02*
X006030Y006527D01*
X006030Y006685D02*
X005830Y006685D01*
X005799Y006844D02*
X006061Y006844D01*
X006176Y007002D02*
X005684Y007002D01*
X003930Y007002D02*
X003930Y007002D01*
X003930Y006844D02*
X003930Y006844D01*
X003930Y006740D02*
X003930Y007180D01*
X003930Y007180D01*
X003490Y007180D01*
X003490Y006998D01*
X003748Y006740D01*
X003930Y006740D01*
X003644Y006844D02*
X003159Y006844D01*
X003318Y007002D02*
X003490Y007002D01*
X003490Y007161D02*
X003330Y007161D01*
X003330Y007319D02*
X003490Y007319D01*
X003605Y007478D02*
X003198Y007478D01*
X002530Y007319D02*
X001110Y007319D01*
X001110Y007161D02*
X002530Y007161D01*
X002542Y007002D02*
X001110Y007002D01*
X001110Y006844D02*
X002701Y006844D01*
X003149Y006527D02*
X003711Y006527D01*
X003930Y006180D02*
X002930Y006180D01*
X003208Y005893D02*
X003652Y005893D01*
X003930Y007161D02*
X003930Y007161D01*
X003930Y007319D02*
X003930Y007319D01*
X003930Y007478D02*
X003930Y007478D01*
X002930Y008270D02*
X002930Y008270D01*
X002930Y008429D02*
X002930Y008429D01*
X002930Y008587D02*
X002930Y008587D01*
X002930Y008746D02*
X002930Y008746D01*
X002258Y008587D02*
X001110Y008587D01*
X001110Y008429D02*
X002230Y008429D01*
X002259Y008270D02*
X001110Y008270D01*
X001110Y008112D02*
X002366Y008112D01*
X006091Y011943D02*
X006203Y011831D01*
X006350Y011770D01*
X006510Y011770D01*
X006657Y011831D01*
X006769Y011943D01*
X006830Y012090D01*
X006830Y012770D01*
X006769Y012917D01*
X006657Y013029D01*
X006510Y013090D01*
X006350Y013090D01*
X006203Y013029D01*
X006091Y012917D01*
X006030Y012770D01*
X006030Y012090D01*
X006091Y011943D01*
X006119Y011916D02*
X005741Y011916D01*
X005823Y012074D02*
X006037Y012074D01*
X006030Y012233D02*
X005830Y012233D01*
X005830Y012391D02*
X006030Y012391D01*
X006030Y012550D02*
X005830Y012550D01*
X005830Y012708D02*
X006030Y012708D01*
X006070Y012867D02*
X005790Y012867D01*
X005661Y013025D02*
X006199Y013025D01*
X006661Y013025D02*
X007199Y013025D01*
X007070Y012867D02*
X006790Y012867D01*
X006830Y012708D02*
X007030Y012708D01*
X007030Y012550D02*
X006830Y012550D01*
X006830Y012391D02*
X007030Y012391D01*
X007030Y012233D02*
X006830Y012233D01*
X006823Y012074D02*
X007037Y012074D01*
X007119Y011916D02*
X006741Y011916D01*
X005199Y013025D02*
X001110Y013025D01*
X001110Y012867D02*
X005070Y012867D01*
X005663Y013659D02*
X008390Y013659D01*
X008231Y013818D02*
X005763Y013818D01*
X005789Y013976D02*
X008073Y013976D01*
X007914Y014135D02*
X005756Y014135D01*
X005646Y014293D02*
X007756Y014293D01*
X007597Y014452D02*
X005668Y014452D01*
X005766Y014610D02*
X007439Y014610D01*
X007280Y014769D02*
X005789Y014769D01*
X005754Y014927D02*
X007122Y014927D01*
X006963Y015086D02*
X005641Y015086D01*
X005673Y015244D02*
X006960Y015244D01*
X006960Y015403D02*
X005768Y015403D01*
X005789Y015561D02*
X006960Y015561D01*
X006960Y015720D02*
X005752Y015720D01*
X005636Y015878D02*
X006960Y015878D01*
X006960Y016037D02*
X005678Y016037D01*
X005770Y016195D02*
X006960Y016195D01*
X006960Y016354D02*
X005789Y016354D01*
X005750Y016512D02*
X006960Y016512D01*
X006960Y016671D02*
X005631Y016671D01*
X005684Y016829D02*
X006960Y016829D01*
X006960Y016988D02*
X005772Y016988D01*
X005789Y017146D02*
X006960Y017146D01*
X006960Y017305D02*
X005748Y017305D01*
X005626Y017463D02*
X006960Y017463D01*
X006960Y017622D02*
X005689Y017622D01*
X005774Y017780D02*
X006960Y017780D01*
X006960Y017939D02*
X005789Y017939D01*
X005746Y018097D02*
X006960Y018097D01*
X006960Y018256D02*
X005620Y018256D01*
X005694Y018414D02*
X006960Y018414D01*
X006960Y018573D02*
X005776Y018573D01*
X005789Y018731D02*
X006960Y018731D01*
X006909Y018890D02*
X005744Y018890D01*
X005615Y019048D02*
X006751Y019048D01*
X006592Y019207D02*
X005699Y019207D01*
X005083Y019048D02*
X004900Y019048D01*
X004900Y018890D02*
X004955Y018890D01*
X004909Y018731D02*
X004900Y018731D01*
X004900Y018573D02*
X004922Y018573D01*
X004900Y018414D02*
X005005Y018414D01*
X005078Y018256D02*
X004900Y018256D01*
X004900Y018097D02*
X004953Y018097D01*
X004909Y017939D02*
X004900Y017939D01*
X004900Y017780D02*
X004925Y017780D01*
X004900Y017622D02*
X005010Y017622D01*
X005073Y017463D02*
X004900Y017463D01*
X004900Y017305D02*
X004951Y017305D01*
X004909Y017146D02*
X004900Y017146D01*
X004900Y016988D02*
X004927Y016988D01*
X004890Y016829D02*
X005015Y016829D01*
X005068Y016671D02*
X004732Y016671D01*
X004573Y016512D02*
X004949Y016512D01*
X004909Y016354D02*
X004169Y016354D01*
X003930Y016680D02*
X004430Y016680D01*
X004680Y016930D01*
X004680Y020930D01*
X004804Y021054D01*
X005349Y021054D01*
X004990Y020792D02*
X004900Y020792D01*
X004900Y020633D02*
X005093Y020633D01*
X004959Y020475D02*
X004900Y020475D01*
X004900Y020316D02*
X004909Y020316D01*
X004900Y020158D02*
X004918Y020158D01*
X004900Y019999D02*
X004995Y019999D01*
X005088Y019841D02*
X004900Y019841D01*
X004900Y019682D02*
X004957Y019682D01*
X004909Y019524D02*
X004900Y019524D01*
X004900Y019365D02*
X004920Y019365D01*
X004900Y019207D02*
X005000Y019207D01*
X004460Y019207D02*
X004116Y019207D01*
X004101Y019149D02*
X004189Y019477D01*
X004189Y019816D01*
X004101Y020144D01*
X003931Y020439D01*
X003691Y020679D01*
X003396Y020849D01*
X003068Y020937D01*
X002729Y020937D01*
X002401Y020849D01*
X002106Y020679D01*
X001866Y020439D01*
X001696Y020144D01*
X001609Y019816D01*
X001609Y019477D01*
X001696Y019149D01*
X001866Y018854D01*
X002106Y018614D01*
X002401Y018444D01*
X002729Y018357D01*
X003068Y018357D01*
X003396Y018444D01*
X003691Y018614D01*
X003931Y018854D01*
X004101Y019149D01*
X004043Y019048D02*
X004460Y019048D01*
X004460Y018890D02*
X003951Y018890D01*
X003807Y018731D02*
X004460Y018731D01*
X004460Y018573D02*
X003618Y018573D01*
X003283Y018414D02*
X004460Y018414D01*
X004460Y018256D02*
X001110Y018256D01*
X001110Y018414D02*
X002514Y018414D01*
X002179Y018573D02*
X001110Y018573D01*
X001110Y018731D02*
X001990Y018731D01*
X001846Y018890D02*
X001110Y018890D01*
X001110Y019048D02*
X001754Y019048D01*
X001681Y019207D02*
X001110Y019207D01*
X001110Y019365D02*
X001638Y019365D01*
X001609Y019524D02*
X001110Y019524D01*
X001112Y019682D02*
X001609Y019682D01*
X001615Y019841D02*
X001123Y019841D01*
X001157Y019999D02*
X001657Y019999D01*
X001704Y020158D02*
X001200Y020158D01*
X001242Y020316D02*
X001795Y020316D01*
X001902Y020475D02*
X001329Y020475D01*
X001421Y020633D02*
X002061Y020633D01*
X002302Y020792D02*
X001536Y020792D01*
X001694Y020950D02*
X004460Y020950D01*
X004460Y020792D02*
X003495Y020792D01*
X003736Y020633D02*
X004460Y020633D01*
X004460Y020475D02*
X003895Y020475D01*
X004002Y020316D02*
X004460Y020316D01*
X004460Y020158D02*
X004093Y020158D01*
X004140Y019999D02*
X004460Y019999D01*
X004460Y019841D02*
X004182Y019841D01*
X004189Y019682D02*
X004460Y019682D01*
X004460Y019524D02*
X004189Y019524D01*
X004159Y019365D02*
X004460Y019365D01*
X004460Y018097D02*
X001110Y018097D01*
X001110Y017939D02*
X002623Y017939D01*
X002530Y017846D02*
X002530Y017514D01*
X002764Y017280D01*
X003096Y017280D01*
X003276Y017460D01*
X003584Y017460D01*
X003764Y017280D01*
X004096Y017280D01*
X004330Y017514D01*
X004330Y017846D01*
X004096Y018080D01*
X003764Y018080D01*
X003584Y017900D01*
X003276Y017900D01*
X003096Y018080D01*
X002764Y018080D01*
X002530Y017846D01*
X002530Y017780D02*
X001110Y017780D01*
X001110Y017622D02*
X002530Y017622D01*
X002581Y017463D02*
X001110Y017463D01*
X001110Y017305D02*
X002740Y017305D01*
X002764Y017080D02*
X002530Y016846D01*
X002530Y016514D01*
X002764Y016280D01*
X003096Y016280D01*
X003330Y016514D01*
X003330Y016846D01*
X003096Y017080D01*
X002764Y017080D01*
X002672Y016988D02*
X001110Y016988D01*
X001110Y017146D02*
X004460Y017146D01*
X004460Y017305D02*
X004120Y017305D01*
X004279Y017463D02*
X004460Y017463D01*
X004460Y017622D02*
X004330Y017622D01*
X004330Y017780D02*
X004460Y017780D01*
X004460Y017939D02*
X004237Y017939D01*
X003930Y017680D02*
X002930Y017680D01*
X003237Y017939D02*
X003623Y017939D01*
X003740Y017305D02*
X003120Y017305D01*
X003188Y016988D02*
X003672Y016988D01*
X003530Y016829D02*
X003330Y016829D01*
X003330Y016671D02*
X003530Y016671D01*
X003532Y016512D02*
X003328Y016512D01*
X003169Y016354D02*
X003691Y016354D01*
X003417Y015769D02*
X003270Y015830D01*
X002590Y015830D01*
X002443Y015769D01*
X002331Y015657D01*
X002270Y015510D01*
X002270Y015350D01*
X002331Y015203D01*
X002443Y015091D01*
X002590Y015030D01*
X003270Y015030D01*
X003417Y015091D01*
X003529Y015203D01*
X003590Y015350D01*
X003590Y015510D01*
X003529Y015657D01*
X003417Y015769D01*
X003466Y015720D02*
X004946Y015720D01*
X004909Y015561D02*
X003569Y015561D01*
X003590Y015403D02*
X004931Y015403D01*
X005025Y015244D02*
X003546Y015244D01*
X003404Y015086D02*
X005058Y015086D01*
X004944Y014927D02*
X001110Y014927D01*
X001110Y014769D02*
X002443Y014769D01*
X002312Y014610D02*
X001110Y014610D01*
X001110Y014452D02*
X002270Y014452D01*
X002294Y014293D02*
X001110Y014293D01*
X001110Y014135D02*
X002400Y014135D01*
X003566Y014293D02*
X005053Y014293D01*
X005030Y014452D02*
X003590Y014452D01*
X003548Y014610D02*
X004933Y014610D01*
X004909Y014769D02*
X003417Y014769D01*
X002456Y015086D02*
X001110Y015086D01*
X001110Y015244D02*
X002314Y015244D01*
X002270Y015403D02*
X001110Y015403D01*
X001110Y015561D02*
X002291Y015561D01*
X002394Y015720D02*
X001110Y015720D01*
X001110Y015878D02*
X005063Y015878D01*
X005020Y016037D02*
X001110Y016037D01*
X001110Y016195D02*
X004929Y016195D01*
X004426Y016988D02*
X004188Y016988D01*
X002691Y016354D02*
X001110Y016354D01*
X001110Y016512D02*
X002532Y016512D01*
X002530Y016671D02*
X001110Y016671D01*
X001110Y016829D02*
X002530Y016829D01*
X006898Y019524D02*
X007025Y019524D01*
X007056Y019365D02*
X007184Y019365D01*
X007215Y019207D02*
X007342Y019207D01*
X007373Y019048D02*
X007460Y019048D01*
X007460Y018890D02*
X007400Y018890D01*
X007400Y018731D02*
X007460Y018731D01*
X007460Y018573D02*
X007400Y018573D01*
X007400Y018414D02*
X007460Y018414D01*
X007460Y018256D02*
X007400Y018256D01*
X007400Y018097D02*
X007460Y018097D01*
X007460Y017939D02*
X007400Y017939D01*
X007400Y017780D02*
X007460Y017780D01*
X007460Y017622D02*
X007400Y017622D01*
X007400Y017463D02*
X007460Y017463D01*
X007460Y017305D02*
X007400Y017305D01*
X007400Y017146D02*
X007460Y017146D01*
X007460Y016988D02*
X007400Y016988D01*
X007400Y016829D02*
X007460Y016829D01*
X007460Y016671D02*
X007400Y016671D01*
X007400Y016512D02*
X007460Y016512D01*
X007460Y016354D02*
X007400Y016354D01*
X007400Y016195D02*
X007460Y016195D01*
X007460Y016037D02*
X007400Y016037D01*
X007400Y015878D02*
X007460Y015878D01*
X007460Y015720D02*
X007400Y015720D01*
X008680Y020930D02*
X008680Y021180D01*
X005099Y021426D02*
X002753Y021426D01*
X002159Y021267D02*
X004706Y021267D01*
X004547Y021109D02*
X001884Y021109D01*
X024870Y002564D02*
X033603Y002564D01*
X033761Y002723D02*
X032969Y002723D01*
X033233Y002881D02*
X033888Y002881D01*
X033985Y003040D02*
X033391Y003040D01*
X033511Y003198D02*
X034061Y003198D01*
X034125Y003357D02*
X033603Y003357D01*
X033659Y003515D02*
X034161Y003515D01*
X034198Y003674D02*
X033701Y003674D01*
X033716Y003832D02*
X034211Y003832D01*
X034215Y003991D02*
X033716Y003991D01*
X033694Y004149D02*
X034215Y004149D01*
X034215Y004308D02*
X033652Y004308D01*
X033588Y004466D02*
X034215Y004466D01*
X034215Y004625D02*
X033496Y004625D01*
X033366Y004783D02*
X034215Y004783D01*
X034215Y004942D02*
X033200Y004942D01*
X032925Y005100D02*
X034215Y005100D01*
X033404Y002406D02*
X024870Y002406D01*
X024869Y002247D02*
X033093Y002247D01*
D24*
X008680Y021180D03*
D25*
X016180Y017680D02*
X018430Y017680D01*
X018680Y017680D01*
X020930Y017680D01*
X021180Y017430D01*
X021180Y016499D01*
X021249Y016430D01*
X021249Y013930D02*
X022680Y013930D01*
X029249Y013930D02*
X029430Y014930D01*
D26*
X029430Y014930D03*
X022680Y013930D03*
M02*
