G75*
%MOIN*%
%OFA0B0*%
%FSLAX24Y24*%
%IPPOS*%
%LPD*%
%AMOC8*
5,1,8,0,0,1.08239X$1,22.5*
%
%ADD10C,0.0000*%
%ADD11R,0.0590X0.0790*%
%ADD12R,0.1500X0.0790*%
D10*
X002899Y001930D02*
X032426Y001930D01*
X032512Y001932D01*
X032598Y001937D01*
X032683Y001947D01*
X032768Y001960D01*
X032852Y001977D01*
X032936Y001997D01*
X033018Y002021D01*
X033099Y002049D01*
X033180Y002080D01*
X033258Y002114D01*
X033335Y002152D01*
X033411Y002194D01*
X033484Y002238D01*
X033555Y002286D01*
X033625Y002337D01*
X033692Y002391D01*
X033756Y002447D01*
X033818Y002507D01*
X033878Y002569D01*
X033934Y002633D01*
X033988Y002700D01*
X034039Y002770D01*
X034087Y002841D01*
X034131Y002914D01*
X034173Y002990D01*
X034211Y003067D01*
X034245Y003145D01*
X034276Y003226D01*
X034304Y003307D01*
X034328Y003389D01*
X034348Y003473D01*
X034365Y003557D01*
X034378Y003642D01*
X034388Y003727D01*
X034393Y003813D01*
X034395Y003899D01*
X034395Y019647D01*
X034393Y019733D01*
X034388Y019819D01*
X034378Y019904D01*
X034365Y019989D01*
X034348Y020073D01*
X034328Y020157D01*
X034304Y020239D01*
X034276Y020320D01*
X034245Y020401D01*
X034211Y020479D01*
X034173Y020556D01*
X034131Y020632D01*
X034087Y020705D01*
X034039Y020776D01*
X033988Y020846D01*
X033934Y020913D01*
X033878Y020977D01*
X033818Y021039D01*
X033756Y021099D01*
X033692Y021155D01*
X033625Y021209D01*
X033555Y021260D01*
X033484Y021308D01*
X033411Y021352D01*
X033335Y021394D01*
X033258Y021432D01*
X033180Y021466D01*
X033099Y021497D01*
X033018Y021525D01*
X032936Y021549D01*
X032852Y021569D01*
X032768Y021586D01*
X032683Y021599D01*
X032598Y021609D01*
X032512Y021614D01*
X032426Y021616D01*
X032426Y021615D02*
X002899Y021615D01*
X002899Y021616D02*
X002811Y021614D01*
X002723Y021608D01*
X002635Y021598D01*
X002547Y021584D01*
X002461Y021567D01*
X002375Y021545D01*
X002291Y021520D01*
X002207Y021490D01*
X002125Y021458D01*
X002045Y021421D01*
X001966Y021381D01*
X001889Y021337D01*
X001814Y021290D01*
X001742Y021240D01*
X001671Y021186D01*
X001604Y021130D01*
X001538Y021070D01*
X001476Y021008D01*
X001416Y020942D01*
X001360Y020875D01*
X001306Y020804D01*
X001256Y020732D01*
X001209Y020657D01*
X001165Y020580D01*
X001125Y020501D01*
X001088Y020421D01*
X001056Y020339D01*
X001026Y020255D01*
X001001Y020171D01*
X000979Y020085D01*
X000962Y019999D01*
X000948Y019911D01*
X000938Y019823D01*
X000932Y019735D01*
X000930Y019647D01*
X000930Y003899D01*
X000932Y003811D01*
X000938Y003723D01*
X000948Y003635D01*
X000962Y003547D01*
X000979Y003461D01*
X001001Y003375D01*
X001026Y003291D01*
X001056Y003207D01*
X001088Y003125D01*
X001125Y003045D01*
X001165Y002966D01*
X001209Y002889D01*
X001256Y002814D01*
X001306Y002742D01*
X001360Y002671D01*
X001416Y002604D01*
X001476Y002538D01*
X001538Y002476D01*
X001604Y002416D01*
X001671Y002360D01*
X001742Y002306D01*
X001814Y002256D01*
X001889Y002209D01*
X001966Y002165D01*
X002045Y002125D01*
X002125Y002088D01*
X002207Y002056D01*
X002291Y002026D01*
X002375Y002001D01*
X002461Y001979D01*
X002547Y001962D01*
X002635Y001948D01*
X002723Y001938D01*
X002811Y001932D01*
X002899Y001930D01*
D11*
X006790Y020170D03*
X007690Y020170D03*
X008590Y020170D03*
D12*
X007680Y017690D03*
M02*
