G75*
%MOIN*%
%OFA0B0*%
%FSLAX24Y24*%
%IPPOS*%
%LPD*%
%AMOC8*
5,1,8,0,0,1.08239X$1,22.5*
%
%ADD10C,0.0000*%
%ADD11C,0.0560*%
%ADD12R,0.0630X0.0830*%
%ADD13R,0.1540X0.0830*%
%ADD14OC8,0.0560*%
%ADD15C,0.0560*%
%ADD16OC8,0.0640*%
%ADD17OC8,0.0780*%
%ADD18C,0.0600*%
%ADD19OC8,0.0670*%
%ADD20C,0.0670*%
%ADD21C,0.2340*%
%ADD22C,0.0640*%
D10*
X002899Y001930D02*
X032426Y001930D01*
X032512Y001932D01*
X032598Y001937D01*
X032683Y001947D01*
X032768Y001960D01*
X032852Y001977D01*
X032936Y001997D01*
X033018Y002021D01*
X033099Y002049D01*
X033180Y002080D01*
X033258Y002114D01*
X033335Y002152D01*
X033411Y002194D01*
X033484Y002238D01*
X033555Y002286D01*
X033625Y002337D01*
X033692Y002391D01*
X033756Y002447D01*
X033818Y002507D01*
X033878Y002569D01*
X033934Y002633D01*
X033988Y002700D01*
X034039Y002770D01*
X034087Y002841D01*
X034131Y002914D01*
X034173Y002990D01*
X034211Y003067D01*
X034245Y003145D01*
X034276Y003226D01*
X034304Y003307D01*
X034328Y003389D01*
X034348Y003473D01*
X034365Y003557D01*
X034378Y003642D01*
X034388Y003727D01*
X034393Y003813D01*
X034395Y003899D01*
X034395Y019647D01*
X034393Y019733D01*
X034388Y019819D01*
X034378Y019904D01*
X034365Y019989D01*
X034348Y020073D01*
X034328Y020157D01*
X034304Y020239D01*
X034276Y020320D01*
X034245Y020401D01*
X034211Y020479D01*
X034173Y020556D01*
X034131Y020632D01*
X034087Y020705D01*
X034039Y020776D01*
X033988Y020846D01*
X033934Y020913D01*
X033878Y020977D01*
X033818Y021039D01*
X033756Y021099D01*
X033692Y021155D01*
X033625Y021209D01*
X033555Y021260D01*
X033484Y021308D01*
X033411Y021352D01*
X033335Y021394D01*
X033258Y021432D01*
X033180Y021466D01*
X033099Y021497D01*
X033018Y021525D01*
X032936Y021549D01*
X032852Y021569D01*
X032768Y021586D01*
X032683Y021599D01*
X032598Y021609D01*
X032512Y021614D01*
X032426Y021616D01*
X032426Y021615D02*
X002899Y021615D01*
X002899Y021616D02*
X002811Y021614D01*
X002723Y021608D01*
X002635Y021598D01*
X002547Y021584D01*
X002461Y021567D01*
X002375Y021545D01*
X002291Y021520D01*
X002207Y021490D01*
X002125Y021458D01*
X002045Y021421D01*
X001966Y021381D01*
X001889Y021337D01*
X001814Y021290D01*
X001742Y021240D01*
X001671Y021186D01*
X001604Y021130D01*
X001538Y021070D01*
X001476Y021008D01*
X001416Y020942D01*
X001360Y020875D01*
X001306Y020804D01*
X001256Y020732D01*
X001209Y020657D01*
X001165Y020580D01*
X001125Y020501D01*
X001088Y020421D01*
X001056Y020339D01*
X001026Y020255D01*
X001001Y020171D01*
X000979Y020085D01*
X000962Y019999D01*
X000948Y019911D01*
X000938Y019823D01*
X000932Y019735D01*
X000930Y019647D01*
X000930Y003899D01*
X000932Y003811D01*
X000938Y003723D01*
X000948Y003635D01*
X000962Y003547D01*
X000979Y003461D01*
X001001Y003375D01*
X001026Y003291D01*
X001056Y003207D01*
X001088Y003125D01*
X001125Y003045D01*
X001165Y002966D01*
X001209Y002889D01*
X001256Y002814D01*
X001306Y002742D01*
X001360Y002671D01*
X001416Y002604D01*
X001476Y002538D01*
X001538Y002476D01*
X001604Y002416D01*
X001671Y002360D01*
X001742Y002306D01*
X001814Y002256D01*
X001889Y002209D01*
X001966Y002165D01*
X002045Y002125D01*
X002125Y002088D01*
X002207Y002056D01*
X002291Y002026D01*
X002375Y002001D01*
X002461Y001979D01*
X002547Y001962D01*
X002635Y001948D01*
X002723Y001938D01*
X002811Y001932D01*
X002899Y001930D01*
D11*
X005430Y006170D02*
X005430Y006690D01*
X006430Y006690D02*
X006430Y006170D01*
X007430Y006170D02*
X007430Y006690D01*
X008430Y006690D02*
X008430Y006170D01*
X009430Y006170D02*
X009430Y006690D01*
X010430Y006690D02*
X010430Y006170D01*
X011430Y006170D02*
X011430Y006690D01*
X012430Y006690D02*
X012430Y006170D01*
X013430Y006170D02*
X013430Y006690D01*
X014430Y006690D02*
X014430Y006170D01*
X015430Y006170D02*
X015430Y006690D01*
X016430Y006690D02*
X016430Y006170D01*
X017430Y006170D02*
X017430Y006690D01*
X018430Y006690D02*
X018430Y006170D01*
X019430Y006170D02*
X019430Y006690D01*
X020430Y006690D02*
X020430Y006170D01*
X021430Y006170D02*
X021430Y006690D01*
X022430Y006690D02*
X022430Y006170D01*
X023430Y006170D02*
X023430Y006690D01*
X024430Y006690D02*
X024430Y006170D01*
X024430Y012170D02*
X024430Y012690D01*
X023430Y012690D02*
X023430Y012170D01*
X022430Y012170D02*
X022430Y012690D01*
X021430Y012690D02*
X021430Y012170D01*
X020430Y012170D02*
X020430Y012690D01*
X019430Y012690D02*
X019430Y012170D01*
X018430Y012170D02*
X018430Y012690D01*
X017430Y012690D02*
X017430Y012170D01*
X016430Y012170D02*
X016430Y012690D01*
X015430Y012690D02*
X015430Y012170D01*
X014430Y012170D02*
X014430Y012690D01*
X013430Y012690D02*
X013430Y012170D01*
X012430Y012170D02*
X012430Y012690D01*
X011430Y012690D02*
X011430Y012170D01*
X010430Y012170D02*
X010430Y012690D01*
X009430Y012690D02*
X009430Y012170D01*
X008430Y012170D02*
X008430Y012690D01*
X007430Y012690D02*
X007430Y012170D01*
X006430Y012170D02*
X006430Y012690D01*
X005430Y012690D02*
X005430Y012170D01*
X003190Y012430D02*
X002670Y012430D01*
X002670Y011430D02*
X003190Y011430D01*
X003190Y010430D02*
X002670Y010430D01*
X002670Y009430D02*
X003190Y009430D01*
X003190Y008430D02*
X002670Y008430D01*
X002670Y013430D02*
X003190Y013430D01*
X003190Y014430D02*
X002670Y014430D01*
X002670Y015430D02*
X003190Y015430D01*
D12*
X006790Y020170D03*
X007690Y020170D03*
X008590Y020170D03*
D13*
X007680Y017690D03*
D14*
X009180Y016430D03*
X010180Y016430D03*
X010180Y015430D03*
X009180Y015430D03*
X003930Y016680D03*
X002930Y016680D03*
X002930Y017680D03*
X003930Y017680D03*
X015180Y016680D03*
X016180Y016680D03*
X016180Y014680D03*
X015180Y014680D03*
X015430Y013680D03*
X016430Y013680D03*
X003930Y007180D03*
X002930Y007180D03*
X002930Y006180D03*
X003930Y006180D03*
X030930Y013930D03*
X030930Y017930D03*
D15*
X011930Y016880D03*
X011930Y014980D03*
D16*
X012430Y004430D03*
X013430Y004430D03*
X014430Y004430D03*
X015430Y004430D03*
X016430Y004430D03*
X017430Y004430D03*
X017430Y003430D03*
X016430Y003430D03*
X015430Y003430D03*
X014430Y003430D03*
X013430Y003430D03*
X012430Y003430D03*
X012430Y002430D03*
X013430Y002430D03*
X014430Y002430D03*
X015430Y002430D03*
X016430Y002430D03*
X017430Y002430D03*
X019430Y002430D03*
X020430Y002430D03*
X021430Y002430D03*
X022430Y002430D03*
X023430Y002430D03*
X024430Y002430D03*
X024430Y003430D03*
X023430Y003430D03*
X022430Y003430D03*
X021430Y003430D03*
X020430Y003430D03*
X019430Y003430D03*
X019430Y004430D03*
X020430Y004430D03*
X021430Y004430D03*
X022430Y004430D03*
X023430Y004430D03*
X024430Y004430D03*
X030930Y006930D03*
X031930Y006930D03*
X032930Y006930D03*
X032930Y007930D03*
X031930Y007930D03*
X030930Y007930D03*
X030930Y008930D03*
X031930Y008930D03*
X032930Y008930D03*
X032930Y009930D03*
X031930Y009930D03*
X030930Y009930D03*
X030930Y010930D03*
X031930Y010930D03*
X032930Y010930D03*
X032930Y011930D03*
X031930Y011930D03*
X030930Y011930D03*
X010430Y004430D03*
X009430Y004430D03*
X008430Y004430D03*
X007430Y004430D03*
X006430Y004430D03*
X005430Y004430D03*
X005430Y003430D03*
X006430Y003430D03*
X007430Y003430D03*
X008430Y003430D03*
X009430Y003430D03*
X010430Y003430D03*
X010430Y002430D03*
X009430Y002430D03*
X008430Y002430D03*
X007430Y002430D03*
X006430Y002430D03*
X005430Y002430D03*
D17*
X017930Y014180D03*
X018930Y014180D03*
X018830Y015180D03*
X017830Y015180D03*
X017930Y016180D03*
X018930Y016180D03*
D18*
X016180Y017400D02*
X016180Y017960D01*
X015180Y017960D02*
X015180Y017400D01*
X017430Y019650D02*
X017430Y020210D01*
X018430Y020210D02*
X018430Y019650D01*
X019430Y019650D02*
X019430Y020210D01*
D19*
X018430Y018680D03*
X027305Y006680D03*
D20*
X028305Y006680D03*
X018430Y017680D03*
D21*
X032426Y019647D03*
X032426Y003899D03*
X002899Y003899D03*
X002899Y019647D03*
D22*
X005349Y019479D03*
X005349Y018692D03*
X005349Y017904D03*
X005349Y017117D03*
X005349Y016330D03*
X005349Y015542D03*
X005349Y014755D03*
X005349Y013967D03*
X014011Y013967D03*
X014011Y014755D03*
X014011Y015542D03*
X014011Y016330D03*
X014011Y017117D03*
X014011Y017904D03*
X014011Y018692D03*
X014011Y019479D03*
X014011Y020267D03*
X014011Y021054D03*
X005349Y021054D03*
X005349Y020267D03*
M02*
