%
M48
M72
T01C0.0315
T02C0.0320
T03C0.0360
T04C0.0400
T05C0.0472
T06C0.1260
%
T01
X5349Y13967
X5349Y14755
X5349Y15542
X5349Y16330
X5349Y17117
X5349Y17904
X5349Y18692
X5349Y19479
X5349Y20267
X5349Y21054
X8680Y21180
X14011Y21054
X14011Y20267
X14011Y19479
X14011Y18692
X14011Y17904
X14011Y17117
X14011Y16330
X14011Y15542
X14011Y14755
X14011Y13967
T02
X15180Y14680
X16180Y14680
X16430Y13680
X15430Y13680
X15430Y12430
X16430Y12430
X17430Y12430
X18430Y12430
X19430Y12430
X20430Y12430
X21430Y12430
X22430Y12430
X23430Y12430
X24430Y12430
X30930Y13930
X30930Y17930
X18430Y17680
X18430Y18680
X16180Y16680
X15180Y16680
X11930Y16880
X10180Y16430
X9180Y16430
X9180Y15430
X10180Y15430
X11930Y14980
X11430Y12430
X10430Y12430
X9430Y12430
X8430Y12430
X7430Y12430
X6430Y12430
X5430Y12430
X2930Y12430
X2930Y11430
X2930Y10430
X2930Y9430
X2930Y8430
X2930Y7180
X3930Y7180
X3930Y6180
X2930Y6180
X5430Y6430
X6430Y6430
X7430Y6430
X8430Y6430
X9430Y6430
X10430Y6430
X11430Y6430
X12430Y6430
X13430Y6430
X14430Y6430
X15430Y6430
X16430Y6430
X17430Y6430
X18430Y6430
X19430Y6430
X20430Y6430
X21430Y6430
X22430Y6430
X23430Y6430
X24430Y6430
X27305Y6680
X28305Y6680
X14430Y12430
X13430Y12430
X12430Y12430
X3930Y16680
X2930Y16680
X2930Y17680
X3930Y17680
X2930Y15430
X2930Y14430
X2930Y13430
T03
X15180Y17680
X16180Y17680
X17430Y19930
X18430Y19930
X19430Y19930
T04
X5430Y2430
X6430Y2430
X7430Y2430
X8430Y2430
X9430Y2430
X10430Y2430
X10430Y3430
X9430Y3430
X8430Y3430
X7430Y3430
X6430Y3430
X5430Y3430
X5430Y4430
X6430Y4430
X7430Y4430
X8430Y4430
X9430Y4430
X10430Y4430
X12430Y4430
X13430Y4430
X14430Y4430
X15430Y4430
X16430Y4430
X17430Y4430
X17430Y3430
X16430Y3430
X15430Y3430
X14430Y3430
X13430Y3430
X12430Y3430
X12430Y2430
X13430Y2430
X14430Y2430
X15430Y2430
X16430Y2430
X17430Y2430
X19430Y2430
X20430Y2430
X21430Y2430
X22430Y2430
X23430Y2430
X24430Y2430
X24430Y3430
X23430Y3430
X22430Y3430
X21430Y3430
X20430Y3430
X19430Y3430
X19430Y4430
X20430Y4430
X21430Y4430
X22430Y4430
X23430Y4430
X24430Y4430
X30930Y6930
X31930Y6930
X32930Y6930
X32930Y7930
X31930Y7930
X30930Y7930
X30930Y8930
X31930Y8930
X32930Y8930
X32930Y9930
X31930Y9930
X30930Y9930
X30930Y10930
X31930Y10930
X32930Y10930
X32930Y11930
X31930Y11930
X30930Y11930
X18930Y14180
X17930Y14180
X17830Y15180
X18830Y15180
X18930Y16180
X17930Y16180
T05
X22680Y13930
X29430Y14930
T06
X32426Y19647
X32426Y3899
X2899Y3899
X2899Y19647
M30
